<svg width="652" height="915" viewBox="0 0 652 915" fill="none" xmlns="http://www.w3.org/2000/svg">
<g clip-path="url(#clip0_19_988)">
<g clip-path="url(#clip1_19_988)">
<path d="M325.654 37.9949C325.534 38.1549 321.824 38.1449 321.684 37.9949C320.604 36.8749 323.384 30.455 323.234 27.975C323.114 25.915 318.764 15.845 317.664 14.995C315.464 13.305 314.864 19.625 312.694 17.985C312.454 17.805 311.644 13.625 310.884 12.285C303.564 -0.625049 290.194 1.75495 279.744 9.55495C278.154 10.745 269.714 19.445 269.704 20.495C269.674 22.935 278.864 21.165 281.154 21.255C288.314 21.555 302.354 22.805 308.054 27.115C308.914 27.765 311.024 30.685 310.684 30.975C309.984 31.575 302.534 27.975 300.714 27.455C288.664 24.045 260.404 22.105 251.684 32.485C246.164 39.055 252.624 34.215 255.434 33.235C268.594 28.675 280.624 29.775 294.024 32.135C295.114 32.355 296.854 35.8249 296.674 35.9749C295.914 36.5949 280.104 34.035 277.214 33.945C271.704 33.765 266.154 34.065 260.864 35.685C258.994 36.255 248.744 40.6549 247.604 41.4949C246.464 42.3349 248.564 45.495 245.044 46.875C241.524 48.255 243.134 44.625 242.664 43.985C241.874 42.905 234.124 48.895 233.124 49.945C231.514 51.635 224.664 62.805 225.674 63.985C226.014 64.375 233.424 58.005 234.164 58.005C234.554 58.005 235.874 59.4949 235.654 60.4749C235.124 62.8849 224.244 69.175 222.424 73.255C220.754 76.995 220.044 85.0749 221.124 89.0249C221.824 91.5749 224.444 94.075 225.534 96.615C228.664 103.875 230.254 111.905 234.824 118.325C249.174 138.435 266.824 160.075 290.294 169.855C298.604 173.315 303.124 173.985 311.644 170.495C323.474 165.635 331.344 151.275 334.594 139.445C335.004 137.965 337.034 129.375 336.644 129.005C336.114 128.505 328.364 130.095 326.574 127.335C322.894 121.655 329.524 120.125 329.654 119.485C330.144 117.065 327.334 118.285 326.714 116.395C326.014 114.235 330.654 105.215 332.204 103.065C334.814 99.4449 348.234 90.625 347.504 86.645C346.974 83.755 342.084 83.4149 339.654 84.5249C339.204 84.7349 332.414 90.5949 332.164 91.0249C331.334 92.4049 331.754 94.485 331.184 96.045C329.554 100.505 321.104 104.545 316.404 103.815C307.764 102.475 307.774 92.465 314.154 91.015C320.654 89.535 312.414 97.1449 313.644 98.9949C313.974 99.4949 318.824 100.145 320.054 99.9949C323.144 99.6149 328.734 93.8849 328.614 91.4949C328.514 89.5949 324.214 91.325 321.904 90.255C312.514 85.915 326.304 87.8949 326.914 87.8149C336.454 86.4649 342.984 67.375 337.384 61.255C332.504 55.935 333.934 64.4949 333.524 67.3849C333.224 69.4649 331.384 79.4749 330.724 80.4149C330.064 81.3549 327.754 81.1149 327.644 80.9949C326.744 80.0249 330.174 68.7449 330.524 66.3849C330.874 64.0249 330.244 61.435 330.574 59.535C330.794 58.265 333.794 59.625 333.634 58.505C332.784 52.855 317.704 38.6949 312.054 38.0149C309.014 37.6549 302.724 40.875 301.654 38.485C300.884 36.775 305.584 35.625 306.584 35.445C317.154 33.535 329.834 44.0949 336.054 52.0849C338.624 55.3749 342.334 64.235 344.364 66.045C348.584 69.825 358.264 69.155 363.994 72.155C366.764 73.605 374.934 78.265 377.144 80.005C384.164 85.525 386.564 97.055 385.654 105.515C385.424 107.595 379.794 128.895 379.094 129.955C378.624 130.665 367.844 138.935 367.094 139.045C357.704 140.445 364.284 128.765 362.634 127.015C362.144 126.495 354.204 130.215 353.734 131.675C353.014 133.965 358.484 148.275 360.104 151.035C363.394 156.625 370.584 162.325 376.654 164.485C378.524 165.145 388.574 167.565 389.514 166.895C390.074 166.495 391.834 160.205 392.774 158.655C394.204 156.305 396.954 154.675 398.604 152.485C409.684 137.895 412.934 103.465 429.104 94.9849C431.654 93.6449 435.014 93.475 436.584 92.465C438.574 91.195 441.424 84.2749 444.864 81.7449C452.024 76.4949 457.144 78.1749 464.324 81.8149C466.214 82.7749 467.674 84.9649 469.574 85.5649C472.874 86.6149 476.364 85.4349 479.684 86.4549C482.034 87.1849 484.584 90.265 486.924 91.215C490.914 92.845 495.354 93.0649 499.864 95.2749C507.334 98.9449 514.814 107.795 519.474 114.665C521.214 117.225 526.274 128.245 526.894 128.745C527.654 129.355 529.674 129.325 530.974 130.145C542.554 137.455 548.184 147.145 544.364 161.205C543.404 164.745 538.374 173.075 538.614 175.455C538.854 177.835 543.754 181.415 544.444 183.695C545.534 187.325 543.754 190.535 543.964 193.365C544.194 196.625 548.944 202.195 541.664 201.985C543.694 198.275 539.714 195.185 539.584 191.485C539.494 188.845 541.264 186.345 540.504 183.715C540.364 183.215 534.094 175.705 533.674 175.995C533.534 176.095 533.234 177.865 532.204 179.035C528.124 183.665 520.654 186.565 518.874 190.705C517.094 194.845 514.714 203.815 516.114 208.055C516.614 209.575 518.254 210.545 518.624 212.535C519.464 216.975 518.964 219.945 515.124 216.035C511.394 212.235 511.544 201.985 512.654 197.005C506.284 195.835 507.874 198.805 505.704 201.545C504.904 202.545 501.684 203.805 501.684 204.505C501.684 205.455 508.284 208.285 509.194 209.975C510.024 211.505 508.794 213.005 508.164 212.985C507.734 212.975 502.794 208.625 501.364 207.805C497.154 205.415 489.114 201.545 484.434 202.195C475.514 203.425 465.924 214.075 458.594 219.415C448.234 226.955 436.894 233.615 427.204 242.025C394.994 269.945 367.564 305.485 328.984 325.805C321.714 329.635 317.454 326.115 310.324 322.865C286.954 312.225 247.264 286.955 229.144 269.075C218.594 258.655 210.294 245.855 198.014 237.175C196.044 235.785 189.804 232.945 189.114 232.025C188.864 231.695 189.574 229.115 189.684 229.005C193.704 225.325 227.424 260.015 230.294 264.895L239.684 272.995C233.294 257.115 229.404 239.505 222.224 223.965C221.154 221.645 218.654 219.395 217.914 217.275C217.494 216.055 216.824 213.505 219.174 214.015C226.244 221.005 229.284 232.145 232.704 241.485C235.744 249.785 238.484 258.435 240.694 266.995L242.684 258.495C242.824 256.925 242.414 251.325 242.684 250.995C242.784 250.885 245.584 250.875 245.674 250.995C247.214 252.855 243.154 274.575 244.894 278.795C261.154 289.345 277.114 300.605 294.004 310.175C298.334 312.625 321.004 325.135 324.024 324.805C324.954 324.705 334.064 319.875 332.284 317.965C325.714 309.425 320.434 299.755 314.074 291.115C312.004 288.315 303.464 276.985 301.164 276.015C298.424 274.865 299.884 282.115 300.144 283.045C301.004 286.135 307.364 294.655 309.704 297.485C310.294 298.205 319.414 304.915 314.164 306.005C312.594 306.335 309.114 301.655 307.614 300.575C301.054 295.855 287.284 290.355 279.214 289.975C278.054 289.915 271.504 289.415 273.674 292.005C274.554 293.055 294.434 299.075 299.004 302.185C300.144 302.965 306.904 308.875 305.664 310.015C303.914 311.625 296.184 304.575 293.884 303.305C289.794 301.045 268.014 294.345 267.874 291.545C267.624 286.715 279.874 286.665 283.184 287.015C286.224 287.335 300.014 292.645 300.664 292.015C301.674 291.045 292.124 281.165 297.094 274.945C297.904 273.935 300.744 271.915 302.024 272.165C307.104 273.155 330.854 309.175 335.414 315.755C335.914 316.475 335.144 317.495 337.044 316.915C352.094 306.215 367.064 295.025 380.684 282.535C393.844 270.455 405.544 256.645 418.654 244.505C420.844 242.475 432.724 233.995 432.244 231.985C431.874 230.435 427.884 219.945 427.154 219.025C424.104 215.225 414.934 217.025 410.674 214.015C412.594 218.975 405.864 233.305 401.044 233.755C399.754 233.875 397.464 232.535 396.734 233.055C396.344 233.325 396.234 237.195 394.024 237.905C387.424 240.045 388.914 228.175 387.574 227.095C386.864 226.525 384.084 227.385 383.664 227.005C383.204 226.585 383.264 218.145 379.694 215.455C377.404 213.735 377.074 219.965 372.254 213.915C368.484 209.175 364.914 200.105 367.424 194.255C370.264 187.645 385.334 177.305 390.654 171.505C385.274 168.775 379.364 169.025 373.414 166.765C363.594 163.035 358.824 156.795 354.814 147.365C353.804 144.995 350.864 133.035 350.104 132.965C349.524 132.915 339.134 134.645 338.744 135.065C338.434 135.395 338.764 138.025 338.434 139.235C334.134 155.205 323.444 174.095 305.164 175.995C303.364 176.185 296.014 175.675 295.674 176.005C295.104 176.555 297.574 183.665 298.154 185.015C298.944 186.825 303.434 191.215 301.664 192.995C301.524 193.135 298.104 193.155 297.784 192.885C297.544 192.685 297.444 190.365 296.894 189.315C293.944 183.785 293.924 180.805 291.914 176.265C290.684 173.485 270.924 161.985 266.754 159.425C265.154 158.445 260.634 154.325 259.684 155.005C259.514 155.125 259.134 157.635 258.134 158.955C256.164 161.545 248.684 167.515 248.944 170.325C249.204 173.135 251.214 174.445 250.494 178.255C249.424 183.925 239.394 191.645 233.954 192.785C229.494 193.715 219.594 191.585 216.584 195.415C215.554 196.725 213.404 208.135 212.394 211.225C211.384 214.315 206.034 229.605 204.694 230.575C203.824 231.195 202.934 229.655 201.674 230.005L214.164 193.005C224.444 188.855 238.314 191.655 245.124 180.965C248.144 176.225 245.614 174.865 245.584 170.505C245.514 161.065 266.404 155.715 250.684 146.005C252.974 150.515 246.644 154.135 246.594 154.645C246.364 157.005 248.984 158.845 246.574 162.405C245.444 164.075 238.284 168.935 236.684 165.495C235.854 163.705 240.524 163.495 242.204 162.045C243.664 160.785 245.244 157.255 243.614 156.075C241.784 154.765 237.484 158.505 235.704 155.515C240.064 149.785 249.864 154.675 248.254 143.965C247.244 137.275 232.734 123.335 228.864 116.335C226.884 112.755 218.224 86.0149 216.194 86.0249C215.164 86.0249 209.274 98.6549 208.924 100.745C207.784 107.575 211.564 110.285 207.564 118.375C204.194 125.195 196.444 126.125 193.904 132.715C190.744 140.895 195.744 147.315 189.904 155.715C188.184 158.185 173.844 166.045 172.694 165.005C172.584 164.905 171.874 162.325 172.124 161.985C173.604 159.985 182.244 157.935 185.424 155.335C191.394 150.455 187.364 141.675 189.154 134.965C191.774 125.185 204.664 120.795 205.714 111.525C206.864 101.355 203.704 96.505 211.214 87.015C212.684 85.155 215.364 85.2949 214.674 83.5249C214.484 83.0249 208.104 75.815 207.644 75.545C204.674 73.825 200.374 74.585 197.424 73.765C194.904 73.065 192.494 69.545 188.954 69.215C179.994 68.355 158.944 71.075 149.924 73.755C133.944 78.485 116.264 95.3449 114.764 112.635C114.234 118.745 116.504 126.615 115.734 133.555C115.614 134.665 115.424 136.745 114.174 137.005C109.354 138.015 112.654 124.545 112.734 122.465C112.814 120.385 112.054 118.855 112.044 117.335C112.044 115.725 113.364 111.975 112.564 111.115C112.304 110.835 110.284 111.115 109.184 110.035C108.304 109.175 108.124 107.215 107.124 106.065C100.714 98.7149 85.1942 101.425 80.6842 109.995C84.8742 108.775 106.424 108.005 106.664 113.505C106.834 117.325 97.2342 112.475 95.9542 112.245C78.8942 109.225 71.1642 120.295 76.1642 136.025C78.8742 144.555 92.2542 146.735 100.144 147.045C104.014 147.195 110.524 145.385 113.084 146.105C118.194 147.535 109.544 150.165 109.694 150.505C110.054 151.295 115.504 156.495 116.674 157.525C124.444 164.325 134.394 172.395 144.474 174.725C148.854 175.735 159.764 177.435 163.934 176.805C169.464 175.965 181.144 165.205 185.174 166.015C186.364 166.255 186.824 167.295 185.714 168.535C183.724 170.765 174.554 173.545 174.794 176.345C175.034 179.145 182.194 184.305 184.964 183.865C186.584 183.605 187.774 181.815 190.184 182.015C192.734 182.225 189.484 188.965 180.654 186.555C174.704 184.925 172.704 177.995 172.084 177.955C169.384 177.755 164.604 180.245 160.174 180.105C156.934 179.995 141.404 176.355 140.694 177.045C140.524 177.215 141.494 179.655 141.264 181.075C140.444 186.145 136.094 193.695 134.694 199.035C144.824 195.325 152.984 197.435 162.384 201.855C165.734 203.425 181.704 212.175 181.454 215.555C181.154 219.455 174.044 218.745 173.704 219.045C172.274 220.315 178.354 222.865 176.214 227.025C174.074 231.185 170.224 226.345 167.194 225.045C165.864 225.425 167.924 227.765 167.704 228.035C165.474 230.815 149.364 221.305 145.094 222.125L120.704 225.035C119.984 219.495 124.704 221.625 127.974 220.815C140.014 217.825 148.424 216.255 160.934 220.315C162.884 220.945 171.834 225.915 172.704 225.035C173.704 224.015 172.284 222.095 171.074 221.165C169.524 219.975 160.734 215.835 158.384 214.855C152.784 212.515 149.374 211.775 143.204 212.045C140.734 212.155 129.804 214.275 128.694 213.575C127.914 213.085 127.264 211.675 127.704 211.045C128.294 210.195 146.224 207.875 148.174 207.985C153.554 208.285 174.734 218.505 177.704 216.035C177.844 215.915 176.604 213.365 176.024 212.975C174.884 212.195 172.544 212.105 171.014 211.225C153.924 201.455 149.344 197.615 129.164 204.005C111.724 209.535 81.4942 223.705 75.4242 242.265C68.6342 262.995 67.1742 301.275 75.8442 321.405C78.3142 327.125 84.8542 335.285 86.2542 340.005C86.6742 341.425 86.7042 344.075 85.2042 344.025C83.2542 343.955 72.4042 322.385 71.2142 319.035C64.3242 299.655 65.9742 263.965 71.1942 244.035C76.7742 222.705 99.9242 212.985 117.704 204.495C118.784 203.975 120.254 204.545 119.714 202.555C119.594 202.125 115.834 200.055 115.204 200.045C113.624 200.025 112.294 202.095 110.764 202.605C103.004 205.215 102.634 198.265 101.224 198.155C99.8142 198.045 94.5942 202.715 89.7442 198.515C83.6242 193.215 92.1642 187.655 91.7442 183.585C91.5642 181.825 87.3242 177.725 86.2142 175.045C83.7642 169.165 84.3042 165.345 86.8342 159.675C88.2042 156.605 95.9042 146.725 95.7442 153.555C95.7042 155.485 87.8842 161.825 87.6542 168.575C87.3842 176.795 95.4842 178.665 95.7242 183.635C95.8542 186.355 89.3242 193.365 92.6542 195.595C95.7442 197.665 100.884 193.595 101.484 190.325C101.584 189.785 101.394 183.415 101.234 183.095C98.4442 177.315 91.4542 178.535 95.9942 166.855C96.5042 165.555 101.664 157.325 102.694 161.575C103.444 164.655 95.9042 169.095 99.6442 175.615C100.704 177.455 106.404 180.835 106.474 181.525C106.524 182.045 104.774 186.155 104.644 188.535C104.564 190.015 105.344 198.675 105.724 199.035C106.184 199.475 109.694 198.955 110.744 198.605C115.734 196.935 112.474 194.575 112.864 191.765C113.214 189.205 117.344 186.215 117.704 183.495C118.114 180.435 115.844 177.255 115.774 174.465C115.714 172.255 116.924 170.165 116.774 167.575C116.424 161.535 111.754 159.875 109.274 155.985C108.464 154.725 108.024 151.515 107.544 151.205C105.574 149.895 90.3942 149.965 85.6742 148.585C79.9942 146.925 73.4842 142.325 71.9342 136.325C69.1942 125.745 72.7842 113.895 79.7242 105.585C88.1342 95.515 103.334 97.0349 112.684 105.065C118.944 84.9049 138.134 71.6749 158.484 68.3549C164.254 67.4149 185.214 65.285 189.984 66.295C192.834 66.895 196.854 69.9749 200.164 71.1049C203.474 72.2349 208.824 72.5349 211.454 73.8149C214.544 75.3149 214.334 79.7949 217.694 81.0649C216.694 76.4749 219.384 73.155 220.424 69.285C222.634 61.0149 222.184 57.275 228.194 50.055C232.064 45.405 237.074 42.975 241.234 39.095C249.794 31.095 247.194 27.045 260.914 22.7649C262.614 22.2349 265.924 22.295 266.534 21.895C266.894 21.655 269.254 15.715 270.294 14.155C277.234 3.62495 291.444 -2.57505 303.684 1.59495C308.314 3.17495 321.434 14.175 323.914 18.365C325.954 21.815 326.904 25.5849 326.774 29.5949C326.734 30.7649 325.934 37.7149 325.684 38.0649L325.654 37.9949ZM364.684 135.995L372.724 130.545C378.034 125.065 376.274 123.475 377.924 117.745C379.284 113.025 381.784 108.075 382.114 103.145C382.554 96.535 380.144 84.815 373.624 81.535C372.674 81.055 371.414 81.7549 370.164 81.0649C367.244 79.4649 364.404 76.7249 361.704 75.4849C356.594 73.1349 349.114 72.5249 343.694 69.9949C343.934 71.9349 340.744 80.3349 341.674 80.9949C341.994 81.2249 344.044 80.765 345.094 81.045C346.624 81.455 349.424 83.845 350.644 82.975C350.934 82.765 352.034 77.6149 353.664 76.4249C354.144 76.0749 356.794 77.0749 356.664 77.4849C355.584 80.9249 349.544 90.9149 347.094 93.9149C343.824 97.9349 338.914 100.415 336.234 104.055C335.264 105.385 329.954 115.275 330.674 115.985C333.264 118.545 350.504 102.205 352.664 99.4849C354.204 97.5549 354.854 94.395 355.934 93.255C358.344 90.725 360.454 91.3049 359.464 95.2749C357.334 103.845 338.724 116.125 331.654 122.465C330.594 123.415 329.194 124.645 328.674 125.975C337.494 127.475 341.084 121.515 346.754 117.565C352.554 113.525 357.614 110.755 363.074 105.885C363.854 105.185 366.624 99.875 368.664 101.975C370.964 104.365 360.684 113.935 358.604 115.415C351.844 120.215 343.554 120.625 340.674 130.485C347.294 132.275 357.414 125.495 362.584 121.395C364.524 119.855 371.184 110.765 372.664 111.985C375.214 114.085 368.204 120.995 367.174 123.985C365.854 127.815 366.254 132.205 364.674 135.975L364.684 135.995ZM472.684 88.005C471.244 89.275 494.014 115.825 494.704 119.475C507.234 137.655 506.204 161.235 509.934 182.245C510.404 184.885 512.644 188.165 512.664 188.505C512.804 191.405 509.574 188.995 508.704 186.475C503.774 172.165 503.594 151.945 499.394 136.785C495.594 123.065 485.614 113.675 477.284 102.895C470.174 93.695 462.914 75.435 447.974 83.795C445.884 84.965 438.984 92.6249 440.674 93.9949C441.294 94.4949 449.174 94.7749 450.944 95.2349C458.194 97.1049 460.284 104.355 465.154 109.025C468.904 112.625 474.684 115.355 478.224 118.955C486.204 127.075 488.854 139.455 493.964 149.215C495.254 151.685 503.944 162.715 502.674 163.995C500.214 166.465 493.774 155.995 492.844 154.325C487.434 144.575 484.684 133.585 477.654 124.515C472.754 118.205 467.534 116.045 462.154 111.015C453.724 103.125 455.494 97.7849 441.224 96.9549C436.004 96.6549 429.394 96.6149 426.684 101.985C430.644 101.195 432.054 104.715 435.614 105.565C440.314 106.685 443.944 105.415 448.644 108.535C453.344 111.655 453.024 117.075 456.764 119.405C461.004 122.035 462.994 119.605 466.924 120.175C475.814 121.455 481.104 130.715 480.194 138.985C475.354 135.975 476.614 129.135 472.214 125.965C467.124 122.315 460.984 125.355 455.954 123.225C450.804 121.045 450.574 112.925 444.964 110.215C439.944 107.795 434.544 110.475 429.764 106.415C426.844 103.945 426.764 98.655 423.154 105.935C418.914 114.495 428.314 113.005 433.754 114.415C445.724 117.515 440.914 125.745 447.324 129.845C453.334 133.695 460.724 130.095 466.044 134.125C469.804 136.975 469.884 142.155 473.174 144.995C478.254 149.395 483.914 146.515 489.204 152.965C490.544 154.595 493.964 160.745 493.684 162.465C493.504 163.585 492.394 164.135 491.164 163.005C488.384 160.435 486.114 154.275 483.664 152.495C480.294 150.045 473.874 150.485 470.154 147.005C468.134 145.115 467.684 142.215 466.114 140.045C461.184 133.225 456.304 135.785 449.414 134.745C438.764 133.145 441.994 122.175 437.084 119.075C434.244 117.285 428.714 117.585 425.434 116.725C423.834 116.305 419.514 113.365 418.694 113.975C417.874 114.585 412.164 130.435 411.214 133.005C409.624 137.325 409.054 142.935 407.194 146.985C404.474 152.925 396.434 157.975 394.454 163.245C390.864 172.815 395.104 168.895 399.164 168.945C399.934 168.945 405.394 169.795 405.684 169.965C405.814 170.045 405.794 172.855 405.684 172.955C404.504 173.985 397.164 171.485 396.684 171.965C396.254 172.405 397.234 180.395 397.774 180.855C398.674 181.635 406.944 180.355 407.684 180.955C407.804 181.055 407.814 183.865 407.684 183.945C407.444 184.105 403.584 184.115 401.864 184.635C393.074 187.295 397.184 189.105 402.674 192.455C399.074 193.225 402.334 194.485 401.564 197.245C400.944 199.465 396.604 200.695 399.174 205.965C401.764 211.275 422.624 211.915 428.204 215.925C432.904 219.295 433.914 230.225 434.684 230.955C436.734 232.895 475.194 200.095 481.194 198.975C483.404 195.315 480.224 187.205 476.674 185.395C474.164 184.115 472.014 189.685 468.114 189.935C465.664 190.095 459.724 187.745 458.784 185.315C457.974 183.215 460.084 181.925 461.184 182.005C462.384 182.095 462.524 188.235 469.414 185.195C477.784 181.495 474.524 177.395 470.674 171.445C469.654 169.875 469.384 168.285 471.184 167.955C473.354 167.555 475.144 173.185 476.274 174.895C476.714 175.565 478.154 175.785 478.714 176.655C480.444 179.305 479.124 181.665 482.944 184.175C488.124 187.575 493.024 185.325 498.394 184.175C499.084 184.025 501.224 181.965 501.654 184.475C502.494 189.265 487.244 188.385 486.654 188.955C485.894 189.685 486.824 196.365 488.194 197.925C489.564 199.485 496.234 201.155 498.154 200.965C501.194 200.665 503.734 194.915 506.374 194.135C509.014 193.355 512.634 195.325 513.694 194.525C515.474 193.175 513.984 188.195 515.914 186.195C517.154 184.915 527.264 180.495 527.664 179.935C528.444 178.815 524.874 176.075 525.674 174.975C525.854 174.725 528.714 174.035 530.504 171.295C532.054 168.905 533.294 162.275 533.684 161.965C535.304 160.685 536.334 163.455 536.464 164.725C536.724 167.235 535.214 169.015 536.164 170.965C545.004 158.685 543.594 141.265 530.164 132.975C529.824 139.765 532.974 146.265 533.664 153.485C533.864 155.585 534.454 157.585 531.674 156.975C527.874 138.005 521.094 119.705 507.694 105.445C503.314 100.775 498.734 96.7649 492.074 96.0549C487.064 95.5249 490.974 100.445 489.664 101.975C489.534 102.125 485.824 102.095 485.664 101.965C485.504 101.825 486.904 99.715 486.534 97.715C485.794 93.745 475.064 85.8649 472.674 87.9849L472.684 88.005ZM120.664 164.015C117.314 161.595 120.424 169.055 120.574 170.615C121.044 175.385 122.274 184.655 119.714 188.285C118.614 189.845 116.644 188.965 116.594 192.485C116.524 197.915 120.964 198.025 122.214 199.965C122.754 200.805 121.324 202.665 121.684 203.005C122.094 203.405 132.224 200.345 132.684 200.005C132.984 199.785 131.274 195.425 131.864 192.735C132.534 189.675 137.494 185.115 137.574 181.545C137.694 175.885 128.274 172.485 124.204 168.995C122.184 167.265 120.914 164.205 120.664 164.025V164.015ZM393.674 175.005C392.034 173.155 384.414 182.815 383.684 183.505C379.684 187.195 370.854 192.735 370.614 198.515C370.474 201.925 373.434 211.235 376.674 212.995C375.464 207.785 374.254 197.085 378.204 193.015C383.274 187.775 380.774 196.115 380.634 198.445C380.064 208.195 382.434 217.505 388.674 224.995C390.534 220.385 384.754 199.255 386.684 196.995C386.814 196.845 390.534 196.865 390.674 196.995C391.304 197.615 389.834 201.195 389.874 202.485C389.964 205.585 391.454 209.335 391.674 212.505C391.994 217.035 390.184 229.745 391.194 231.985C393.274 236.565 395.254 230.955 396.204 228.025C397.394 224.315 399.534 215.145 398.474 211.705C398.094 210.475 396.504 209.595 395.914 208.285C392.404 200.545 398.144 198.945 397.724 194.545C397.464 191.805 393.124 190.055 392.754 188.385C392.384 186.715 395.364 185.655 395.604 184.385C395.794 183.405 394.024 181.995 393.714 180.485C393.424 179.075 393.964 175.335 393.684 175.025L393.674 175.005ZM399.684 229.995C401.714 232.275 407.574 219.505 407.674 217.385C407.784 214.855 405.364 212.635 403.114 212.055C401.174 211.555 400.934 215.385 400.794 216.605C400.284 221.015 400.724 225.605 399.694 229.995H399.684Z" fill="#2D2A8D"/>
<path d="M532.684 217.015C531.124 218.295 538.864 222.885 539.344 223.345C543.004 226.865 543.894 231.445 542.644 236.305C542.424 237.155 540.804 236.925 540.654 237.665C540.044 240.615 542.624 243.165 539.624 246.445C538.674 247.475 536.614 247.315 536.774 249.335C536.864 250.455 547.374 264.525 549.204 267.975C555.204 279.335 559.164 292.695 560.674 305.505C561.104 309.105 562.644 332.025 561.674 332.995C561.434 333.235 559.394 333.085 558.624 332.555C556.704 331.225 557.964 316.115 557.724 312.455C555.874 285.075 545.524 263.945 527.194 243.985C525.204 241.815 514.864 231.475 513.034 231.105C512.024 230.895 510.654 232.695 509.144 232.975C507.634 233.255 503.064 232.685 502.674 233.015C502.194 233.415 505.724 235.845 504.674 237.005C503.884 237.885 485.464 239.795 481.404 241.235C466.234 246.605 445.354 263.015 436.664 276.495C419.434 303.205 397.194 380.675 394.804 412.635C394.544 416.065 395.364 433.195 394.684 434.025C394.594 434.135 391.824 434.115 391.714 434.025C387.854 430.875 394.944 386.145 397.694 379.035C396.174 378.885 395.314 378.835 394.184 380.015C391.734 382.585 385.794 406.935 385.004 411.835C383.814 419.215 382.784 429.165 383.664 436.555C383.874 438.305 386.064 442.615 385.694 443.025C385.594 443.135 383.024 443.845 382.674 443.595C376.044 438.885 381.614 410.785 383.364 403.205C384.234 399.455 391.634 377.075 390.684 376.035C388.884 374.045 382.154 386.145 381.514 387.355C378.244 393.515 377.154 398.425 374.834 404.675C372.954 409.745 370.464 409.025 371.354 404.235C373.334 393.545 379.554 380.805 387.684 373.535C377.984 371.485 374.314 373.335 369.494 381.345C360.074 396.995 357.364 434.265 371.154 448.075C379.734 456.675 396.324 448.135 401.244 439.095C406.734 429.005 410.914 409.095 408.244 397.995C407.304 394.095 404.324 389.795 403.734 386.495C402.914 381.925 405.984 384.475 407.524 386.715C417.734 401.515 410.944 423.845 404.684 439.045C417.414 435.395 426.094 424.655 433.504 414.375C455.184 384.255 468.574 348.515 480.874 313.745C481.084 312.035 484.164 311.535 484.674 312.055C485.304 312.705 481.384 323.655 480.694 325.565C471.644 350.965 461.224 376.135 447.484 399.355C445.384 402.905 434.244 418.095 433.834 419.785C433.424 421.475 435.814 425.465 436.384 427.825C438.154 435.145 439.454 442.615 440.684 450.035L447.684 428.045C449.364 427.755 450.614 428.805 450.664 430.485C450.724 432.795 446.264 443.435 445.354 447.215C439.584 471.095 438.004 494.305 434.544 518.405C423.674 594.125 415.734 642.025 435.954 718.255C441.514 739.225 446.624 752.135 455.854 771.355C460.424 780.865 460.814 795.525 464.654 806.555C469.174 819.535 478.024 831.375 481.934 844.275C487.934 864.045 489.044 885.525 495.954 906.255C496.814 908.845 501.914 919.285 501.664 920.515C501.544 921.135 500.064 922.245 499.174 922.045C495.804 921.275 486.384 884.725 485.124 879.085C484.054 874.295 482.524 858.275 480.734 855.475C479.974 854.275 471.904 848.905 470.174 848.015C469.394 847.615 469.084 846.265 468.144 848.035C465.464 853.045 469.814 870.395 463.714 876.605C457.174 883.265 451.244 871.065 449.154 866.055C445.834 858.105 446.014 859.145 441.834 852.365C431.944 836.305 431.284 817.085 431.694 798.705C402.094 788.245 416.004 754.265 413.714 730.645C403.664 728.315 400.394 720.445 399.154 711.035C397.544 719.475 393.984 727.535 391.944 735.835C382.004 776.125 391.184 816.565 383.194 857.085C380.134 872.585 372.204 901.545 365.734 915.625C364.294 918.755 364.734 917.695 361.654 917.045C368.874 893.785 377.914 870.715 381.504 846.395C386.954 809.505 379.664 773.105 388.324 736.215C390.224 728.125 393.314 720.305 395.364 712.255C402.104 685.855 400.504 658.595 401.604 631.495C403.784 577.635 405.904 523.425 407.694 469.585C407.804 466.205 406.894 446.935 407.654 446.035C407.784 445.885 411.514 445.885 411.644 446.035C412.704 447.275 410.714 456.105 410.604 458.495C407.154 536.055 404.434 616.095 403.694 693.585C403.614 702.025 401.784 707.715 404.334 716.855C407.584 728.525 416.394 724.735 424.374 727.815C429.334 729.725 433.184 736.185 437.644 739.035C432.674 719.605 426.804 700.315 423.784 680.405C413.114 610.185 427.004 547.125 435.794 477.665C436.654 470.905 439.044 464.435 438.654 457.545C438.454 453.915 433.004 425.085 431.654 424.035C431.054 423.565 422.054 433.295 420.584 434.455C414.484 439.265 407.024 442.355 400.334 446.205C397.514 447.825 394.664 450.985 391.564 452.435C375.684 459.865 366.204 452.185 360.884 437.305C360.004 434.835 358.834 426.655 358.504 426.185C358.134 425.655 356.004 425.665 354.924 424.755C348.244 419.085 334.974 399.765 330.484 391.705C329.444 389.835 326.824 382.585 326.434 382.255C325.574 381.545 308.154 377.385 304.894 376.305C284.744 369.635 265.654 360.385 246.674 351.035C249.764 379.805 236.674 405.005 229.954 431.825C228.514 437.555 220.774 475.755 222.674 478.035C224.274 479.955 224.814 476.535 225.134 476.045C232.984 464.215 247.814 437.135 252.134 424.005C257.914 406.435 260.024 385.355 262.674 367.035C266.954 365.655 265.954 370.895 265.664 374.535C262.744 410.835 248.494 444.965 229.844 475.715C227.534 479.515 222.914 482.795 222.174 484.045C221.434 485.295 220.044 495.085 219.174 498.045C213.314 517.825 194.294 537.425 185.544 556.415C179.764 561.165 182.004 555.485 183.854 551.725C193.744 531.595 212.264 513.725 217.384 491.255C221.484 473.255 216.814 462.625 214.794 445.425C211.784 419.755 222.864 397.245 223.714 371.585C223.844 367.685 222.404 360.235 222.834 357.795C223.414 354.525 233.524 344.155 232.674 343.055C232.544 342.885 229.804 342.245 228.634 341.585C207.864 329.715 182.864 308.955 162.874 300.335C161.644 299.805 159.334 299.575 159.674 297.555C160.034 295.375 163.864 297.015 164.874 297.345C177.724 301.575 195.334 317.695 207.754 325.465C234.504 342.215 269.744 360.165 299.424 370.795C315.204 376.445 333.314 383.795 348.974 374.845C369.384 363.185 399.354 331.225 412.894 311.765C424.364 295.285 430.934 272.845 445.654 259.525C452.294 253.515 476.204 237.835 484.394 236.265C489.814 235.225 495.334 237.195 500.664 234.025C500.284 232.205 498.704 232.165 497.204 231.995C492.544 231.475 486.844 231.875 482.394 233.265C480.814 233.755 474.654 237.925 475.664 233.545C476.234 231.085 487.404 228.225 490.124 227.995C497.004 227.415 499.884 229.015 505.394 229.865C508.814 230.395 512.074 228.085 507.234 225.955C497.074 221.485 488.514 220.605 478.284 225.155C476.884 225.775 474.414 228.015 474.164 228.015C472.924 228.035 471.924 225.195 473.664 223.535C478.014 219.385 491.344 218.345 497.084 219.115C500.854 219.625 504.964 222.275 508.944 223.255C510.254 223.575 510.854 225.175 510.664 222.545C503.564 214.625 491.654 211.115 481.444 214.305C478.914 215.095 473.244 219.035 472.164 219.045C469.544 219.075 469.464 217.645 471.184 216.035C480.714 207.095 497.524 208.735 508.014 215.185C508.804 215.675 514.014 219.645 514.204 219.985C514.984 221.325 512.024 224.995 513.584 226.545C519.154 230.135 526.204 239.965 531.114 243.075C532.334 243.845 536.084 244.655 536.664 244.025C538.394 242.155 533.554 233.365 534.674 232.025C534.904 231.745 540.114 236.665 540.654 236.025C541.474 235.045 538.834 223.725 533.354 225.145C530.324 225.925 526.664 238.205 519.674 228.525C526.744 229.005 532.344 222.995 529.154 216.035C527.874 213.255 517.514 206.595 520.674 203.025C522.094 201.425 525.734 207.725 526.624 208.565C529.274 211.055 537.634 216.685 538.704 210.505C539.544 205.615 534.914 201.675 535.674 198.535C535.914 197.545 536.964 196.685 538.144 198.045C541.404 201.805 544.024 210.225 540.684 214.535C536.954 219.345 533.264 216.545 532.664 217.035L532.684 217.015ZM400.484 367.795L415.674 314.995C401.514 332.345 386.874 349.175 369.724 363.595C374.304 373.555 378.754 369.725 387.194 369.005C389.964 368.765 399.124 369.725 400.494 367.795H400.484ZM221.674 458.005C221.844 457.795 221.574 454.835 221.794 453.625C227.274 423.255 242.214 392.515 243.724 362.545C243.864 359.825 244.184 351.655 243.524 349.655C242.964 347.965 234.964 344.545 234.684 344.995C234.514 345.265 234.744 346.825 234.094 347.875C232.314 350.775 227.514 354.865 226.884 357.705C225.764 362.705 227.114 370.125 226.724 375.545C225.104 397.585 216.344 420.035 217.684 441.495C217.954 445.775 218.914 452.185 219.714 456.485C219.944 457.735 220.174 459.865 221.674 457.995V458.005ZM356.694 422.005C359.214 423.825 358.014 416.085 358.034 415.675C358.674 404.985 360.284 390.745 365.494 381.325C366.614 379.305 371.484 373.865 371.584 373.375C371.824 372.225 366.824 366.025 366.174 366.025C365.424 366.025 356.824 373.995 354.584 375.425C350.324 378.155 345.144 381.115 340.094 381.935C338.154 382.245 330.814 381.245 330.694 383.505C330.624 384.745 341.704 402.255 343.454 404.735C347.034 409.805 351.204 414.275 355.224 418.975C356.234 420.155 356.554 421.915 356.694 422.005ZM398.674 372.005C398.074 371.415 392.434 372.385 391.064 372.895C390.054 373.275 388.044 373.485 389.674 374.985C389.914 375.205 395.624 376.985 395.974 376.895C397.654 376.495 399.624 372.935 398.674 371.995V372.005ZM416.694 769.005C422.064 764.355 437.874 753.695 438.534 746.315C438.704 744.375 425.124 731.815 422.404 730.785C414.334 727.695 417.784 730.595 417.764 733.515C417.754 735.885 416.724 738.025 416.644 740.455C416.324 749.945 416.964 759.515 416.694 768.995V769.005ZM430.684 762.505C429.704 765.995 430.684 780.115 430.684 785.005C430.684 785.155 427.684 785.155 427.684 785.005V765.005C424.194 766.005 418.154 771.715 417.104 774.955C415.064 781.265 422.224 789.785 427.434 792.755C432.644 795.725 437.554 795.215 442.744 796.445C445.254 797.045 447.164 798.835 449.684 798.995C445.154 783.025 441.604 766.725 441.684 749.995C440.474 752.155 430.914 761.695 430.694 762.495L430.684 762.505ZM479.674 850.005C481.574 847.735 464.674 816.695 462.664 811.525C457.374 797.975 456.894 783.925 451.514 770.675L446.694 764.005C445.004 781.125 459.984 797.245 448.104 812.915C445.144 816.815 437.734 820.775 436.884 824.725C435.764 829.895 439.814 836.175 440.944 841.255L446.684 852.005L443.724 819.495C446.974 815.745 448.444 823.905 448.684 826.515C449.744 837.945 448.754 857.635 453.514 867.685C454.724 870.245 458.974 877.465 461.594 873.395C465.614 867.135 460.944 845.595 468.674 843.415C471.664 842.575 478.994 850.845 479.694 850.005H479.674ZM435.694 820.005C439.924 815.985 449.804 809.375 447.544 802.665C446.714 800.215 437.684 797.875 435.204 797.995C433.384 798.075 436.354 817.675 435.704 820.005H435.694Z" fill="#2D2A8D"/>
<path d="M168.684 749.005C166.034 757.185 164.644 765.625 163.684 774.505C163.514 776.105 163.984 781.645 163.684 782.005C163.584 782.115 160.784 782.125 160.694 782.005C160.394 781.635 160.554 773.955 160.664 772.465C160.754 771.165 161.834 769.115 161.694 769.005C161.314 768.695 158.834 769.495 157.854 768.835C157.154 768.365 154.854 760.755 154.754 759.345C153.614 742.465 178.014 699.155 185.164 680.955C196.544 651.995 204.654 620.115 206.694 588.975C207.504 589.085 209.554 588.815 209.684 588.975C212.584 592.485 202.534 637.115 200.614 644.405C194.594 667.185 186.154 687.195 176.874 708.665C171.374 721.385 154.444 750.295 158.764 763.415C159.304 765.055 159.774 765.925 161.194 766.975C164.554 738.605 181.724 714.685 193.554 689.335C210.374 653.295 221.464 615.355 224.694 575.475C225.144 569.965 224.284 564.015 224.694 558.485C225.594 546.625 229.214 534.805 230.184 522.975C215.894 548.115 202.984 574.335 195.754 602.555C194.404 607.825 191.884 626.155 190.204 629.005C188.634 631.645 187.544 627.585 187.654 625.515C190.334 574.475 231.134 523.505 248.434 476.235C254.334 460.125 259.584 441.535 261.674 424.475C261.954 422.195 261.404 419.695 261.674 417.485C261.854 416.065 265.904 416.205 265.714 421.435C265.264 433.895 258.254 458.605 254.144 470.945C246.624 493.565 236.474 509.325 231.984 533.785C229.364 548.045 225.474 569.335 228.954 583.195C239.994 627.135 251.804 664.185 255.664 710.485C257.514 732.595 260.454 781.495 253.444 801.255C251.544 806.615 245.724 813.145 244.904 817.715C241.774 835.045 246.074 868.235 248.824 886.325C250.564 897.775 252.774 909.225 255.644 920.435C254.234 922.485 252.844 922.655 251.874 920.275C248.894 912.955 247.124 896.795 245.824 888.325C243.724 874.705 241.364 860.215 240.674 846.475C240.264 838.325 241.844 829.565 240.174 821.985C234.664 828.755 227.954 834.515 222.154 840.965C197.324 868.595 172.704 895.165 147.154 921.955C144.674 924.555 145.584 927.075 140.674 924.965C156.034 906.715 174.064 890.675 190.184 872.995C200.524 861.655 210.044 849.495 220.154 837.965C236.804 818.965 251.834 810.645 253.714 782.525C255.594 754.405 253.764 721.515 250.554 694.595C246.284 658.825 238.054 623.355 227.664 588.985L216.594 638.405C209.004 677.955 180.644 712.085 168.674 748.985L172.574 749.095C176.604 762.025 177.444 774.955 174.384 788.195C170.154 806.515 156.244 811.505 143.204 822.015C111.124 847.865 90.0936 888.915 69.5636 923.925L65.6836 922.985C77.6636 903.475 88.3936 883.115 101.464 864.275C107.344 855.805 121.324 841.275 125.124 833.935C126.744 830.795 127.644 824.115 129.204 820.015C132.914 810.265 140.554 800.445 143.214 791.025C146.314 780.035 147.474 765.555 149.994 753.805C159.514 709.575 172.154 665.845 175.684 620.495C177.484 597.425 179.264 558.575 170.864 537.315C169.534 533.945 165.644 530.485 167.194 526.985C175.044 532.255 177.294 545.675 178.564 554.615C188.434 624.145 165.034 696.545 151.144 763.955C149.234 773.225 148.764 784.095 146.204 793.015C142.884 804.575 132.584 815.025 130.674 827.485L157.164 807.975C175.384 794.025 175.714 769.145 168.684 748.995V749.005Z" fill="#2D2A8D"/>
<path d="M554.634 391.085C552.344 412.805 544.054 433.375 552.494 454.685C563.524 482.515 585.504 507.205 595.144 536.035C601.934 556.355 602.344 588.845 588.684 606.505C585.184 611.025 578.604 614.385 575.844 618.665C572.244 624.245 568.784 636.735 566.664 643.485C556.254 676.655 550.284 710.025 538.434 743.255C535.424 751.705 528.564 762.655 528.604 771.505C528.654 782.845 535.684 810.545 542.694 819.495C549.044 827.595 567.064 837.915 575.704 845.485C596.034 863.285 614.794 892.925 622.244 918.995C622.704 920.605 623.024 922.155 621.184 922.985C619.624 923.685 618.054 918.855 617.524 917.665C612.304 906.025 608.674 894.275 602.224 882.975C588.764 859.395 568.474 843.465 546.714 827.995C550.234 836.615 555.464 844.475 559.174 853.025C565.714 868.095 570.744 885.965 571.744 902.455C571.914 905.235 572.384 923.175 571.694 924.005C571.594 924.125 568.794 924.125 568.704 924.005C568.084 923.255 568.904 907.575 568.704 904.505C566.254 867.495 550.754 848.035 536.844 816.365C519.274 776.345 527.964 760.695 533.544 720.355C537.844 689.285 538.724 659.435 541.704 628.515C542.144 623.935 543.814 605.485 546.204 603.015C547.394 601.785 555.594 598.445 558.034 596.845C581.344 581.565 581.954 552.325 575.424 527.805C574.764 525.335 570.674 516.165 570.734 515.505C570.774 515.045 572.254 513.795 573.194 514.015C575.284 514.505 579.164 527.725 579.834 530.385C586.154 555.455 584.084 584.155 560.624 599.425C557.344 601.565 552.024 603.035 549.404 604.945C547.114 606.615 545.104 628.135 544.704 632.505C543.984 640.325 544.344 648.845 543.704 656.505C541.164 686.485 538.364 716.455 532.714 746.005C534.444 745.735 534.454 744.015 534.984 742.785C550.254 706.965 554.494 665.265 567.954 628.755C569.324 625.045 571.684 617.465 573.844 614.645C578.054 609.165 584.424 607.925 589.224 599.025C614.394 552.365 574.924 507.305 555.184 468.025C541.694 441.175 544.954 428.375 549.864 399.655C550.124 398.145 551.324 390.295 551.724 389.995C552.024 389.775 553.664 391.265 554.664 391.075L554.634 391.085Z" fill="#2D2A8D"/>
<path d="M169.674 232.995C167.634 236.055 146.064 231.745 144.684 233.015C141.644 235.805 152.254 236.005 152.974 236.215C155.054 236.815 156.274 238.905 155.214 240.995C151.814 247.675 134.774 246.315 128.284 247.115C117.774 248.405 106.984 256.985 96.5842 259.645C90.4742 280.465 87.0142 302.695 88.6842 324.505C89.8742 339.985 96.8142 357.125 97.6642 372.525C99.3742 403.395 63.3842 440.185 52.9242 470.765C43.8442 497.325 36.8442 529.795 32.6642 557.445C34.0142 567.595 34.1142 577.885 38.8542 587.345C41.8542 593.345 48.3942 597.865 50.8742 603.325C59.0242 621.215 59.6242 664.695 62.8342 686.365C65.8542 706.785 71.8542 727.555 74.5642 747.635C78.8342 779.225 65.9542 798.745 57.4142 827.255C50.3342 850.865 45.4142 880.855 46.6842 905.515C46.9042 909.735 49.0542 917.825 48.6942 921.505C48.6142 922.355 46.7342 922.205 46.1842 922.025C43.1142 921.055 43.4042 890.225 43.6442 885.465C45.3642 851.075 54.5442 827.395 64.9542 795.775C78.7242 753.975 65.9442 729.285 59.8342 688.345C57.1242 670.215 54.3842 614.875 46.5142 602.665C45.0742 600.435 42.7342 599.035 41.2542 596.925C19.0642 565.285 33.1942 532.055 42.1842 499.015C45.8842 485.425 47.4242 473.395 53.2042 460.035C66.1542 430.125 97.1142 401.635 93.5542 367.625C91.7342 350.215 85.2242 333.705 84.6342 315.555C84.0442 297.405 88.4842 277.835 92.6742 260.015C91.0542 260.955 82.0742 259.365 84.6842 257.015C84.9242 256.805 89.5542 257.125 91.0642 256.895C105.334 254.735 114.834 244.185 128.194 243.025C133.064 242.605 138.334 243.355 143.224 243.055C144.514 242.975 151.344 242.265 151.684 242.005C153.534 240.565 151.214 240.275 150.274 239.915C146.974 238.645 140.384 236.055 137.144 235.975C133.444 235.885 120.694 240.725 118.684 239.005C118.534 238.875 118.534 235.455 118.814 235.125C119.564 234.235 138.634 229.255 141.194 229.015C149.824 228.195 156.944 232.075 164.984 230.805C166.274 230.605 167.964 229.025 168.194 229.035C169.214 229.065 170.254 232.145 169.684 233.005L169.674 232.995Z" fill="#2D2A8D"/>
<path d="M274.675 365.995C274.565 379.165 274.825 392.365 274.725 405.545C274.415 447.735 273.695 492.265 293.155 531.025C311.455 567.475 341.725 575.315 365.705 538.525C380.765 515.405 384.085 485.015 390.895 458.715C391.785 456.175 393.295 457.085 393.745 459.505C389.805 479.015 386.175 499.525 379.425 518.245C372.515 537.415 358.815 561.875 336.715 565.035C337.045 608.915 336.105 652.945 329.525 696.345C326.225 718.125 317.975 740.695 320.795 762.385C323.615 784.075 326.115 790.435 320.605 813.425C315.465 834.855 307.895 855.625 304.795 877.615C302.765 892.025 304.195 906.905 302.735 920.555C302.345 924.175 301.335 924.675 298.645 922.345C298.915 900.835 300.675 879.875 304.995 858.805C306.235 852.755 311.595 836.855 311.545 832.475C311.515 829.655 308.425 822.505 307.805 818.385C302.775 785.065 317.165 744.995 323.385 712.185C332.495 664.065 333.655 614.845 333.695 565.985C299.965 566.615 283.215 523.505 277.175 496.005C269.175 459.565 270.165 421.525 271.735 384.535C271.855 381.765 271.105 366.705 271.695 365.985C271.835 365.825 273.885 366.095 274.685 365.985L274.675 365.995ZM313.675 825.995C315.215 816.705 319.865 806.795 320.675 797.495C321.865 783.855 318.335 771.355 317.675 758.005C315.775 758.355 315.995 760.065 315.635 761.455C311.195 778.815 308.685 805.515 312.165 823.025C312.375 824.095 312.235 826.255 313.675 825.995Z" fill="#2D2A8D"/>
<path d="M506.814 380.125C508.374 377.835 524.024 381.175 527.684 379.995C527.304 378.175 525.724 378.135 524.224 377.965C516.764 377.135 502.924 378.765 496.724 374.465C494.974 373.245 492.334 370.515 493.384 368.285C494.074 366.805 498.464 365.125 496.684 364.025C495.224 363.115 492.734 363.855 490.634 360.565C486.444 353.995 494.904 354.555 495.574 353.905C495.834 353.655 495.794 350.645 496.424 349.255C498.874 343.785 516.154 343.825 521.904 342.725C528.924 341.385 536.014 338.695 542.654 337.445C547.294 336.565 548.504 339.355 543.494 341.315C531.154 346.135 516.444 345.145 504.424 348.245C500.454 349.265 495.004 353.095 502.274 353.925C513.434 355.185 525.074 352.415 536.104 351.055C538.224 352.405 538.294 353.785 536.044 354.875L492.694 358.035C494.184 360.915 498.024 362.695 501.164 363.045C512.504 364.325 527.224 362.695 538.684 362.025C539.034 367.855 535.794 367.165 531.064 367.905C522.734 369.195 512.594 369.385 504.144 369.065C501.564 368.965 491.604 366.355 498.724 371.485C505.724 376.535 534.364 373.285 537.234 377.975C537.874 379.015 538.024 380.035 537.244 381.065C536.344 382.255 523.474 384.095 521.194 384.095C518.914 384.095 511.084 381.635 510.704 382.005C508.704 383.995 517.424 387.295 518.634 387.565C535.654 391.435 565.384 385.005 577.364 371.665C584.034 364.235 584.194 352.575 576.224 345.985C569.704 340.595 549.424 334.365 540.354 329.855C536.874 328.125 529.444 322.705 527.194 322.015C525.724 321.565 525.504 322.135 525.694 323.505C526.524 329.435 536.134 333.055 536.724 336.485C537.404 340.455 530.004 334.625 529.234 333.975C525.964 331.215 522.444 327.085 522.624 322.495C522.974 313.405 538.234 325.315 542.034 327.185C550.654 331.425 575.784 340.045 580.714 345.505C593.234 359.385 582.524 373.715 569.394 381.175C553.414 390.255 532.474 395.925 514.494 389.725C511.144 388.575 503.964 384.365 506.844 380.125H506.814Z" fill="#2D2A8D"/>
<path d="M365.684 483.005C364.494 483.005 356.334 488.455 352.684 489.505C302.144 504.085 289.744 421.225 284.834 387.345C284.334 383.875 282.854 377.165 282.924 374.265C282.954 373.065 284.614 371.035 285.174 371.025C286.724 370.975 286.524 374.595 286.674 375.505C291.204 402.085 297.934 452.985 314.694 473.485C329.984 492.205 353.854 493.115 368.504 473.335C370.174 471.075 373.104 464.595 374.724 463.495C374.974 463.325 380.454 462.795 380.674 463.005C382.214 464.525 372.944 497.435 371.164 501.985C353.814 546.345 320.744 542.555 300.154 503.015C297.854 498.595 285.484 470.345 287.684 467.995C287.794 467.885 290.524 467.575 290.764 468.585C296.354 489.855 314.664 537.365 343.714 529.535C364.414 523.955 372.314 487.405 376.634 469.445C376.884 466.535 375.484 468.685 374.844 469.655C371.884 474.125 368.434 478.705 365.684 482.995C372.004 482.955 364.804 493.545 363.124 495.935C357.284 504.265 347.384 510.805 337.064 511.875C332.824 512.315 318.564 512.685 316.794 508.375C316.294 507.145 316.044 505.745 318.154 505.995C321.174 506.355 324.804 508.505 328.274 508.885C342.884 510.465 356.054 501.035 363.194 489.015C364.294 487.155 364.954 484.135 365.684 482.995V483.005Z" fill="#2D2A8D"/>
<path d="M199.194 83.005C200.154 82.805 201.634 84.055 201.654 84.495C201.714 85.395 195.174 92.265 194.164 94.985C192.004 100.815 193.534 106.935 191.164 112.985C188.414 119.985 180.524 123.945 180.604 131.505C180.664 137.575 182.614 139.585 179.724 146.535C176.564 154.145 172.124 153.015 166.724 156.535C161.324 160.055 161.154 165.025 152.194 166.005C139.164 167.425 132.774 161.415 121.654 156.525C120.134 155.525 121.214 154.405 122.304 154.105C128.784 152.295 134.294 159.465 139.714 161.475C145.134 163.485 153.604 164.255 158.634 160.445C160.684 158.885 161.274 156.825 162.754 155.565C166.794 152.125 172.234 151.925 176.144 145.955C180.694 138.995 176.424 134.735 177.914 127.715C178.944 122.845 184.924 118.035 187.174 112.975C190.264 106.025 188.304 101.655 190.204 96.025C191.004 93.655 197.304 83.405 199.204 83.005H199.194Z" fill="#2D2A8D"/>
<path d="M186.554 583.875C180.854 587.705 186.194 575.895 186.804 574.625C197.754 551.635 213.224 530.715 223.544 507.365C229.214 494.545 232.114 480.905 237.184 468.005C237.664 466.795 238.464 464.695 240.174 465.015C242.434 465.425 240.874 467.495 240.654 468.465C232.174 505.975 210.494 538.105 192.514 571.335C191.414 573.355 187.144 583.495 186.564 583.885L186.554 583.875Z" fill="#2D2A8D"/>
<path d="M317.184 45.025C321.104 45.135 323.044 71.865 320.104 76.925C317.404 81.585 310.184 83.005 305.184 83.015C301.854 83.015 297.174 80.175 294.564 80.495C289.614 81.095 283.004 88.825 276.944 89.785C269.364 90.985 263.204 85.695 258.244 86.035C253.284 86.375 247.654 94.105 241.234 86.975C239.844 85.435 233.844 73.845 239.174 75.025C240.864 75.395 241.284 88.105 250.984 85.825C252.804 85.395 253.954 83.655 255.414 83.255C261.484 81.585 264.254 85.245 269.264 85.935C282.124 87.705 288.714 75.785 297.934 77.245C302.824 78.015 304.354 81.235 310.224 79.075C317.684 76.325 319.204 69.985 318.564 62.645C318.384 60.575 313.414 44.935 317.184 45.045V45.025Z" fill="#2D2A8D"/>
<path d="M420.675 442.995L421.165 565.005C418.905 564.985 418.815 563.275 418.625 561.545C417.645 552.865 418.955 541.565 418.715 532.455C418.655 530.085 417.675 527.915 417.625 525.545C417.065 498.055 418.125 470.475 417.675 442.995H420.665H420.675Z" fill="#2D2A8D"/>
<path d="M190.684 80.015C185.484 84.845 178.884 89.685 178.614 97.495C178.424 103.155 181.024 105.505 177.534 111.365C173.004 118.965 165.544 116.415 161.144 119.975C156.744 123.535 158.424 130.725 149.514 133.335C143.274 135.165 138.994 132.445 133.174 132.565C130.914 132.615 129.054 133.335 126.944 133.795C126.244 133.945 124.134 136.005 123.684 133.495C123.324 131.475 125.674 131.245 126.884 130.715C135.064 127.145 142.054 131.965 149.734 129.565C155.124 127.875 155.654 120.025 160.174 117.005C164.944 113.805 172.494 116.025 175.184 110.025C177.874 104.025 174.664 99.605 175.904 93.735C176.854 89.275 185.084 77.695 190.674 80.025L190.684 80.015Z" fill="#2D2A8D"/>
<path d="M109.675 127.995C107.525 130.095 102.365 123.275 99.8947 122.275C88.3247 117.585 78.9047 135.005 92.4047 137.775C94.7647 138.255 100.855 138.405 103.175 137.985C105.075 137.645 105.385 136.355 106.175 135.985C110.755 133.825 112.815 135.555 109.225 139.035C104.935 143.185 93.8247 142.845 88.6847 140.505C74.8747 134.235 85.6647 115.165 97.9447 117.215C100.805 117.695 112.285 125.455 109.685 127.995H109.675Z" fill="#2D2A8D"/>
<path d="M288.673 142.005C291.733 145.165 277.703 156.945 270.663 149.525C267.043 145.715 267.433 136.935 266.673 136.005C265.553 134.635 254.553 143.935 254.693 139.505C254.753 137.565 270.463 131.185 257.633 126.555C252.363 124.645 246.103 128.455 245.683 128.005C245.553 127.865 245.483 124.635 245.823 124.145C246.123 123.715 252.053 121.985 253.183 121.975C260.233 121.955 266.263 129.515 268.873 135.325C270.893 139.825 271.693 151.575 279.403 148.275C281.403 147.415 286.793 140.065 288.683 142.015L288.673 142.005Z" fill="#2D2A8D"/>
<path d="M414.673 650.005C416.623 658.725 415.083 667.715 415.633 676.545C416.283 687.105 417.763 698.865 419.973 709.205C420.553 711.935 422.553 715.935 422.673 718.395C422.693 718.815 420.333 719.985 420.183 719.985C419.023 719.985 417.323 713.595 416.983 712.205C412.253 693.275 412.713 671.945 411.693 652.495L414.683 649.995L414.673 650.005Z" fill="#2D2A8D"/>
<path d="M168.684 127.005C168.794 127.105 168.824 129.925 168.684 129.995C168.304 130.205 166.524 129.795 165.454 130.225C158.344 133.075 159.754 145.785 149.714 148.525C140.234 151.105 136.764 143.315 130.094 143.045C127.454 142.935 119.774 146.915 118.684 145.995C115.344 143.145 128.484 139.955 130.184 139.925C137.264 139.805 139.834 145.095 145.444 145.815C157.154 147.315 154.524 130.395 163.624 127.445C164.674 127.105 168.264 126.615 168.684 127.005Z" fill="#2D2A8D"/>
<path d="M249.094 77.425C248.414 77.925 247.534 80.415 245.674 79.555C238.554 76.225 253.924 69.775 257.434 69.225C266.134 67.865 269.524 75.865 280.734 70.555C283.074 69.445 288.634 64.275 289.164 64.245C289.864 64.205 292.664 66.025 292.674 66.515C292.694 68.225 279.624 75.315 276.964 75.775C268.464 77.235 264.534 72.215 257.174 72.985C253.464 73.375 251.894 75.365 249.104 77.435L249.094 77.425Z" fill="#2D2A8D"/>
<path d="M428.674 437.995C429.184 456.065 430.634 474.415 429.684 492.515C429.564 494.785 429.204 494.005 427.194 493.985L425.674 438.575L428.684 437.985L428.674 437.995Z" fill="#2D2A8D"/>
<path d="M157.674 79.0049C158.684 79.9949 157.384 81.8949 155.964 82.7849C152.534 84.9449 146.294 86.3149 142.004 88.8249C137.374 91.5349 129.884 97.3449 126.854 101.675C125.284 103.905 122.224 112.205 121.744 112.565C120.364 113.585 117.894 112.715 117.674 111.485C117.544 110.765 120.754 104.525 121.484 103.305C125.654 96.3249 136.024 87.7549 143.304 84.1249C144.864 83.3449 157.124 78.4749 157.674 79.0049Z" fill="#2D2A8D"/>
<path d="M246.684 66.995C244.624 64.785 249.414 60.445 251.674 59.495C260.734 55.705 270.864 60.275 281.364 55.185C283.154 54.315 288.074 50.155 289.194 50.245C289.694 50.285 291.664 52.325 291.664 52.495C291.684 53.095 283.474 58.145 281.924 58.735C273.334 62.015 264.734 59.835 256.454 62.265C254.594 62.815 247.104 67.435 246.684 66.985V66.995Z" fill="#2D2A8D"/>
<path d="M243.683 57.9949C242.253 56.7249 251.213 49.8549 252.343 49.1649C260.033 44.3949 263.493 46.2149 271.073 44.8949C275.923 44.0449 281.043 42.1449 285.633 41.4449C291.063 40.6149 290.283 42.8449 285.953 44.7749C274.443 49.8949 265.343 45.7949 253.163 52.9849C251.143 54.1749 245.803 59.8849 243.693 58.0049L243.683 57.9949Z" fill="#2D2A8D"/>
<path d="M157.674 96.0049C160.314 98.7649 151.144 108.695 148.614 110.435C142.294 114.795 138.294 111.645 132.624 113.445C129.394 114.465 126.294 119.455 123.974 121.755C120.534 125.165 119.824 122.295 121.834 118.645C123.274 116.015 126.524 112.085 129.434 111.245C139.054 108.475 142.064 114.155 150.674 103.475C152.054 101.765 155.474 93.6749 157.694 95.9949L157.674 96.0049Z" fill="#2D2A8D"/>
<path d="M409.263 383.415C408.343 382.215 402.393 376.275 408.753 378.415C415.113 380.555 423.803 399.675 425.023 406.205C425.943 411.135 423.243 411.325 421.183 407.015C416.653 397.585 416.433 392.775 409.273 383.415H409.263Z" fill="#2D2A8D"/>
<path d="M296.684 71.9949C294.494 69.8049 300.754 66.5449 301.684 65.5049C306.204 60.4149 305.834 56.9349 305.724 50.4549C305.694 48.7349 303.104 41.0549 307.164 42.0049C308.754 42.3749 310.674 51.6549 310.714 53.5449C310.794 57.6749 308.644 63.5749 305.724 66.5449C304.684 67.5949 297.864 73.1749 296.684 71.9949Z" fill="#2D2A8D"/>
<path d="M307.675 23.995C299.665 23.945 307.355 13.975 299.665 10.515C293.225 7.62496 282.185 15.225 280.685 12.985C280.595 12.845 280.565 10.105 280.685 10.015C281.235 9.65496 289.965 7.12496 291.175 6.98496C304.515 5.54496 309.155 10.745 307.675 23.985V23.995Z" fill="#2D2A8D"/>
<path d="M178.675 77.005C179.605 77.865 177.365 79.865 176.695 80.515C173.265 83.825 166.535 87.325 165.725 92.545C165.155 96.245 166.805 100.385 163.715 103.535C162.775 104.495 160.525 105.815 159.685 104.995C158.455 103.795 162.075 100.065 162.655 98.475C164.115 94.545 162.885 90.155 164.805 86.625C166.075 84.285 176.135 74.655 178.675 77.005Z" fill="#2D2A8D"/>
<path d="M292.675 102.995C292.345 103.295 286.315 103.075 283.865 103.685C278.265 105.075 274.825 109.565 270.405 111.225C266.075 112.845 263.445 112.345 267.955 108.775C273.075 104.725 282.125 98.1849 288.965 99.1849C290.355 99.3849 293.955 101.835 292.665 102.995H292.675Z" fill="#2D2A8D"/>
<path d="M205.683 142.995C204.323 141.585 206.453 140.395 206.813 139.885C210.753 134.235 217.143 129.185 220.953 123.295C222.293 121.855 227.173 121.275 227.663 123.515C228.153 125.755 222.453 126.825 220.613 128.455C219.193 129.705 208.433 145.875 205.673 143.005L205.683 142.995Z" fill="#2D2A8D"/>
<path d="M311.673 86.005C314.643 88.935 302.203 93.865 300.083 93.965C298.113 94.055 292.073 91.045 290.343 89.835C287.713 87.995 285.733 83.905 290.013 85.165C293.833 86.285 295.973 90.295 301.163 90.075C304.143 89.945 310.583 84.925 311.673 86.005Z" fill="#2D2A8D"/>
<path d="M227.594 216.925C227.254 217.145 224.794 217.105 224.694 217.005C223.034 215.385 232.454 192.085 237.174 193.015C238.764 193.325 238.414 194.465 237.874 195.685C236.774 198.215 233.514 201.645 231.974 204.795C230.894 206.995 228.144 216.585 227.594 216.925Z" fill="#2D2A8D"/>
<path d="M321.683 204.995C321.123 204.465 321.543 201.815 323.313 201.225C325.423 200.525 332.153 201.345 335.103 200.915C337.323 200.595 344.973 196.065 345.683 199.505C346.253 202.285 336.813 204.505 334.893 204.785C333.273 205.015 322.173 205.445 321.693 204.995H321.683Z" fill="#2D2A8D"/>
<path d="M231.684 108.995C230.644 107.835 233.504 100.955 233.724 98.555C233.934 96.285 233.864 92.875 233.584 90.585C233.384 88.915 231.424 85.175 231.664 85.005C231.834 84.885 235.494 83.865 235.654 83.985C236.404 84.535 237.834 97.295 237.594 99.405C237.424 100.885 234.034 111.615 231.674 108.985L231.684 108.995Z" fill="#2D2A8D"/>
<path d="M296.673 107.005C298.883 109.295 289.113 118.785 287.053 119.875C285.323 120.795 277.263 123.185 276.683 120.485C276.033 117.485 282.673 118.155 285.053 116.875C287.693 115.465 294.553 104.805 296.673 107.005Z" fill="#2D2A8D"/>
<path d="M282.685 157.995C279.855 155.255 287.215 153.655 288.225 153.045C290.665 151.555 293.705 144.495 296.665 148.505C293.815 150.365 293.795 154.105 291.215 156.035C289.755 157.125 283.645 158.925 282.695 158.005L282.685 157.995Z" fill="#2D2A8D"/>
<path d="M225.594 87.935C225.284 88.135 222.784 88.115 222.684 88.005C221.064 86.295 226.424 72.995 231.164 74.005C235.004 74.825 228.384 80.675 227.824 81.645C226.984 83.075 225.884 87.755 225.594 87.935Z" fill="#2D2A8D"/>
<path d="M225.675 134.005C229.115 137.545 216.385 148.415 213.685 145.995C212.065 144.545 221.395 138.775 222.235 136.965C222.805 135.715 221.525 134.175 221.675 134.005C221.815 133.855 225.535 133.855 225.675 134.005Z" fill="#2D2A8D"/>
<path d="M292.333 43.165C297.803 41.475 306.543 44.735 298.343 47.165C290.343 49.545 288.373 44.385 292.333 43.165Z" fill="#2D2A8D"/>
<path d="M313.684 32.995C315.764 30.855 313.034 20.145 317.174 21.005C319.524 21.495 320.674 35.965 313.684 32.995Z" fill="#2D2A8D"/>
<path d="M287.684 164.995C285.184 162.625 292.254 159.855 293.244 159.035C294.374 158.105 295.044 153.625 297.194 156.985C299.654 160.845 289.254 166.485 287.684 164.995Z" fill="#2D2A8D"/>
<path d="M299.675 17.995C299.425 18.225 294.135 18.615 292.895 18.735C284.525 19.545 291.425 13.045 298.015 15.165C299.255 15.565 300.315 17.425 299.675 17.995Z" fill="#2D2A8D"/>
<path d="M107.673 168.005C108.623 169.045 105.783 172.795 105.343 174.235C104.953 175.505 105.803 176.935 105.683 176.995C102.043 178.915 101.913 173.895 103.193 171.015C103.613 170.065 106.873 167.125 107.673 168.005Z" fill="#2D2A8D"/>
<path d="M476.383 161.315C478.443 163.085 480.613 168.235 482.693 170.505C489.673 178.105 497.453 170.775 498.683 172.015C499.003 172.335 498.883 175.855 497.733 176.555C493.503 179.125 484.573 177.635 480.763 174.445C478.203 172.295 474.103 163.545 473.553 163.165C472.753 162.605 468.553 163.345 465.953 162.255C459.183 159.415 457.533 151.685 454.903 146.305C454.173 144.815 451.433 142.875 451.693 141.525C452.193 138.925 455.793 141.355 456.733 142.475C460.063 146.455 459.383 153.105 464.733 156.475C467.923 158.485 473.453 158.795 476.393 161.325L476.383 161.315Z" fill="#2D2A8D"/>
<path d="M518.674 157.005C518.144 157.615 516.174 156.575 515.804 155.345C515.144 153.175 516.564 151.015 516.454 148.765C516.214 144.025 512.604 141.445 511.894 138.305C510.344 131.495 512.884 124.975 508.894 117.305C504.714 109.265 492.284 108.815 491.694 108.005C491.104 107.195 492.244 105.405 493.344 105.115C494.324 104.855 504.554 107.525 505.974 108.235C510.414 110.445 513.394 117.135 514.454 121.755C515.564 126.595 514.944 132.935 515.904 137.305C516.454 139.835 519.134 141.425 519.644 144.555C519.924 146.275 519.304 156.295 518.694 157.005H518.674Z" fill="#2D2A8D"/>
<path d="M520.684 172.005C520.564 172.305 515.894 176.255 515.694 176.005C512.804 172.405 523.544 165.165 520.684 172.005C522.714 167.025 523.494 163.975 525.174 158.995C526.734 154.395 528.484 153.195 528.194 158.995C527.884 165.155 526.554 175.315 520.194 177.985L520.684 171.985V172.005Z" fill="#2D2A8D"/>
<path d="M428.674 151.005L424.694 147.005C425.214 151.365 421.444 155.875 420.634 149.535C420.484 148.325 421.104 145.665 420.594 145.095C419.254 143.575 414.884 145.225 414.694 145.005C413.064 143.205 417.044 140.195 419.004 140.215C424.174 140.265 428.814 145.905 428.674 151.005Z" fill="#2D2A8D"/>
<path d="M435.674 141.995C434.784 142.825 427.374 137.645 424.944 137.225C421.864 136.695 419.264 137.925 418.134 137.785C416.724 137.595 416.204 134.485 416.684 134.005C417.084 133.615 426.034 134.015 427.714 134.465C429.394 134.915 437.384 140.395 435.674 141.995Z" fill="#2D2A8D"/>
<path d="M452.673 151.995C453.423 152.885 450.653 158.075 457.163 163.015C457.853 163.535 464.413 165.945 460.153 166.995C456.813 167.825 451.653 163.625 450.433 160.745C449.763 159.165 449.113 152.685 449.683 151.995C449.783 151.875 452.583 151.885 452.673 151.995Z" fill="#2D2A8D"/>
<path d="M464.675 170.005C465.265 170.605 464.575 172.625 463.675 173.495C457.925 179.115 447.025 169.785 449.685 167.005C450.515 166.145 455.945 171.515 458.335 171.745C460.135 171.925 464.025 169.335 464.675 170.005Z" fill="#2D2A8D"/>
<path d="M460.674 816.995C461.624 818.145 459.954 830.675 460.044 833.325C460.164 836.905 464.034 851.355 462.664 853.005C462.554 853.135 459.884 851.965 459.664 851.285C460.214 845.975 456.224 840.165 456.014 835.355C455.934 833.495 457.124 817.735 457.674 816.995C457.764 816.875 460.574 816.885 460.664 816.995H460.674Z" fill="#2D2A8D"/>
</g>
</g>
<defs>
<clipPath id="clip0_19_988">
<rect width="652" height="915" fill="white"/>
</clipPath>
<clipPath id="clip1_19_988">
<rect width="593.17" height="925.57" fill="white" transform="translate(29.4141 0.214966)"/>
</clipPath>
</defs>
</svg>
