<svg width="1080" height="920" viewBox="0 0 1080 920" fill="none" xmlns="http://www.w3.org/2000/svg">
<g clip-path="url(#clip0_19_919)">
<g clip-path="url(#clip1_19_919)">
<path d="M539.654 37.9949C539.534 38.1549 535.824 38.1449 535.684 37.9949C534.604 36.8749 537.384 30.455 537.234 27.975C537.114 25.915 532.764 15.845 531.664 14.995C529.464 13.305 528.864 19.625 526.694 17.985C526.454 17.805 525.644 13.625 524.884 12.285C517.564 -0.625049 504.194 1.75495 493.744 9.55495C492.154 10.745 483.714 19.445 483.704 20.495C483.674 22.935 492.864 21.165 495.154 21.255C502.314 21.555 516.354 22.805 522.054 27.115C522.914 27.765 525.024 30.685 524.684 30.975C523.984 31.575 516.534 27.975 514.714 27.455C502.664 24.045 474.404 22.105 465.684 32.485C460.164 39.055 466.624 34.215 469.434 33.235C482.594 28.675 494.624 29.775 508.024 32.135C509.114 32.355 510.854 35.8249 510.674 35.9749C509.914 36.5949 494.104 34.035 491.214 33.945C485.704 33.765 480.154 34.065 474.864 35.685C472.994 36.255 462.744 40.6549 461.604 41.4949C460.464 42.3349 462.564 45.495 459.044 46.875C455.524 48.255 457.134 44.625 456.664 43.985C455.874 42.905 448.124 48.895 447.124 49.945C445.514 51.635 438.664 62.805 439.674 63.985C440.014 64.375 447.424 58.005 448.164 58.005C448.554 58.005 449.874 59.4949 449.654 60.4749C449.124 62.8849 438.244 69.175 436.424 73.255C434.754 76.995 434.044 85.0749 435.124 89.0249C435.824 91.5749 438.444 94.075 439.534 96.615C442.664 103.875 444.254 111.905 448.824 118.325C463.174 138.435 480.824 160.075 504.294 169.855C512.604 173.315 517.124 173.985 525.644 170.495C537.474 165.635 545.344 151.275 548.594 139.445C549.004 137.965 551.034 129.375 550.644 129.005C550.114 128.505 542.364 130.095 540.574 127.335C536.894 121.655 543.524 120.125 543.654 119.485C544.144 117.065 541.334 118.285 540.714 116.395C540.014 114.235 544.654 105.215 546.204 103.065C548.814 99.4449 562.234 90.625 561.504 86.645C560.974 83.755 556.084 83.4149 553.654 84.5249C553.204 84.7349 546.414 90.5949 546.164 91.0249C545.334 92.4049 545.754 94.485 545.184 96.045C543.554 100.505 535.104 104.545 530.404 103.815C521.764 102.475 521.774 92.465 528.154 91.015C534.654 89.535 526.414 97.1449 527.644 98.9949C527.974 99.4949 532.824 100.145 534.054 99.9949C537.144 99.6149 542.734 93.8849 542.614 91.4949C542.514 89.5949 538.214 91.325 535.904 90.255C526.514 85.915 540.304 87.8949 540.914 87.8149C550.454 86.4649 556.984 67.375 551.384 61.255C546.504 55.935 547.934 64.4949 547.524 67.3849C547.224 69.4649 545.384 79.4749 544.724 80.4149C544.064 81.3549 541.754 81.1149 541.644 80.9949C540.744 80.0249 544.174 68.7449 544.524 66.3849C544.874 64.0249 544.244 61.435 544.574 59.535C544.794 58.265 547.794 59.625 547.634 58.505C546.784 52.855 531.704 38.6949 526.054 38.0149C523.014 37.6549 516.724 40.875 515.654 38.485C514.884 36.775 519.584 35.625 520.584 35.445C531.154 33.535 543.834 44.0949 550.054 52.0849C552.624 55.3749 556.334 64.235 558.364 66.045C562.584 69.825 572.264 69.155 577.994 72.155C580.764 73.605 588.934 78.265 591.144 80.005C598.164 85.525 600.564 97.055 599.654 105.515C599.424 107.595 593.794 128.895 593.094 129.955C592.624 130.665 581.844 138.935 581.094 139.045C571.704 140.445 578.284 128.765 576.634 127.015C576.144 126.495 568.204 130.215 567.734 131.675C567.014 133.965 572.484 148.275 574.104 151.035C577.394 156.625 584.584 162.325 590.654 164.485C592.524 165.145 602.574 167.565 603.514 166.895C604.074 166.495 605.834 160.205 606.774 158.655C608.204 156.305 610.954 154.675 612.604 152.485C623.684 137.895 626.934 103.465 643.104 94.9849C645.654 93.6449 649.014 93.475 650.584 92.465C652.574 91.195 655.424 84.2749 658.864 81.7449C666.024 76.4949 671.144 78.1749 678.324 81.8149C680.214 82.7749 681.674 84.9649 683.574 85.5649C686.874 86.6149 690.364 85.4349 693.684 86.4549C696.034 87.1849 698.584 90.265 700.924 91.215C704.914 92.845 709.354 93.0649 713.864 95.2749C721.334 98.9449 728.814 107.795 733.474 114.665C735.214 117.225 740.274 128.245 740.894 128.745C741.654 129.355 743.674 129.325 744.974 130.145C756.554 137.455 762.184 147.145 758.364 161.205C757.404 164.745 752.374 173.075 752.614 175.455C752.854 177.835 757.754 181.415 758.444 183.695C759.534 187.325 757.754 190.535 757.964 193.365C758.194 196.625 762.944 202.195 755.664 201.985C757.694 198.275 753.714 195.185 753.584 191.485C753.494 188.845 755.264 186.345 754.504 183.715C754.364 183.215 748.094 175.705 747.674 175.995C747.534 176.095 747.234 177.865 746.204 179.035C742.124 183.665 734.654 186.565 732.874 190.705C731.094 194.845 728.714 203.815 730.114 208.055C730.614 209.575 732.254 210.545 732.624 212.535C733.464 216.975 732.964 219.945 729.124 216.035C725.394 212.235 725.544 201.985 726.654 197.005C720.284 195.835 721.874 198.805 719.704 201.545C718.904 202.545 715.684 203.805 715.684 204.505C715.684 205.455 722.284 208.285 723.194 209.975C724.024 211.505 722.794 213.005 722.164 212.985C721.734 212.975 716.794 208.625 715.364 207.805C711.154 205.415 703.114 201.545 698.434 202.195C689.514 203.425 679.924 214.075 672.594 219.415C662.234 226.955 650.894 233.615 641.204 242.025C608.994 269.945 581.564 305.485 542.984 325.805C535.714 329.635 531.454 326.115 524.324 322.865C500.954 312.225 461.264 286.955 443.144 269.075C432.594 258.655 424.294 245.855 412.014 237.175C410.044 235.785 403.804 232.945 403.114 232.025C402.864 231.695 403.574 229.115 403.684 229.005C407.704 225.325 441.424 260.015 444.294 264.895L453.684 272.995C447.294 257.115 443.404 239.505 436.224 223.965C435.154 221.645 432.654 219.395 431.914 217.275C431.494 216.055 430.824 213.505 433.174 214.015C440.244 221.005 443.284 232.145 446.704 241.485C449.744 249.785 452.484 258.435 454.694 266.995L456.684 258.495C456.824 256.925 456.414 251.325 456.684 250.995C456.784 250.885 459.584 250.875 459.674 250.995C461.214 252.855 457.154 274.575 458.894 278.795C475.154 289.345 491.114 300.605 508.004 310.175C512.334 312.625 535.004 325.135 538.024 324.805C538.954 324.705 548.064 319.875 546.284 317.965C539.714 309.425 534.434 299.755 528.074 291.115C526.004 288.315 517.464 276.985 515.164 276.015C512.424 274.865 513.884 282.115 514.144 283.045C515.004 286.135 521.364 294.655 523.704 297.485C524.294 298.205 533.414 304.915 528.164 306.005C526.594 306.335 523.114 301.655 521.614 300.575C515.054 295.855 501.284 290.355 493.214 289.975C492.054 289.915 485.504 289.415 487.674 292.005C488.554 293.055 508.434 299.075 513.004 302.185C514.144 302.965 520.904 308.875 519.664 310.015C517.914 311.625 510.184 304.575 507.884 303.305C503.794 301.045 482.014 294.345 481.874 291.545C481.624 286.715 493.874 286.665 497.184 287.015C500.224 287.335 514.014 292.645 514.664 292.015C515.674 291.045 506.124 281.165 511.094 274.945C511.904 273.935 514.744 271.915 516.024 272.165C521.104 273.155 544.854 309.175 549.414 315.755C549.914 316.475 549.144 317.495 551.044 316.915C566.094 306.215 581.064 295.025 594.684 282.535C607.844 270.455 619.544 256.645 632.654 244.505C634.844 242.475 646.724 233.995 646.244 231.985C645.874 230.435 641.884 219.945 641.154 219.025C638.104 215.225 628.934 217.025 624.674 214.015C626.594 218.975 619.864 233.305 615.044 233.755C613.754 233.875 611.464 232.535 610.734 233.055C610.344 233.325 610.234 237.195 608.024 237.905C601.424 240.045 602.914 228.175 601.574 227.095C600.864 226.525 598.084 227.385 597.664 227.005C597.204 226.585 597.264 218.145 593.694 215.455C591.404 213.735 591.074 219.965 586.254 213.915C582.484 209.175 578.914 200.105 581.424 194.255C584.264 187.645 599.334 177.305 604.654 171.505C599.274 168.775 593.364 169.025 587.414 166.765C577.594 163.035 572.824 156.795 568.814 147.365C567.804 144.995 564.864 133.035 564.104 132.965C563.524 132.915 553.134 134.645 552.744 135.065C552.434 135.395 552.764 138.025 552.434 139.235C548.134 155.205 537.444 174.095 519.164 175.995C517.364 176.185 510.014 175.675 509.674 176.005C509.104 176.555 511.574 183.665 512.154 185.015C512.944 186.825 517.434 191.215 515.664 192.995C515.524 193.135 512.104 193.155 511.784 192.885C511.544 192.685 511.444 190.365 510.894 189.315C507.944 183.785 507.924 180.805 505.914 176.265C504.684 173.485 484.924 161.985 480.754 159.425C479.154 158.445 474.634 154.325 473.684 155.005C473.514 155.125 473.134 157.635 472.134 158.955C470.164 161.545 462.684 167.515 462.944 170.325C463.204 173.135 465.214 174.445 464.494 178.255C463.424 183.925 453.394 191.645 447.954 192.785C443.494 193.715 433.594 191.585 430.584 195.415C429.554 196.725 427.404 208.135 426.394 211.225C425.384 214.315 420.034 229.605 418.694 230.575C417.824 231.195 416.934 229.655 415.674 230.005L428.164 193.005C438.444 188.855 452.314 191.655 459.124 180.965C462.144 176.225 459.614 174.865 459.584 170.505C459.514 161.065 480.404 155.715 464.684 146.005C466.974 150.515 460.644 154.135 460.594 154.645C460.364 157.005 462.984 158.845 460.574 162.405C459.444 164.075 452.284 168.935 450.684 165.495C449.854 163.705 454.524 163.495 456.204 162.045C457.664 160.785 459.244 157.255 457.614 156.075C455.784 154.765 451.484 158.505 449.704 155.515C454.064 149.785 463.864 154.675 462.254 143.965C461.244 137.275 446.734 123.335 442.864 116.335C440.884 112.755 432.224 86.0149 430.194 86.0249C429.164 86.0249 423.274 98.6549 422.924 100.745C421.784 107.575 425.564 110.285 421.564 118.375C418.194 125.195 410.444 126.125 407.904 132.715C404.744 140.895 409.744 147.315 403.904 155.715C402.184 158.185 387.844 166.045 386.694 165.005C386.584 164.905 385.874 162.325 386.124 161.985C387.604 159.985 396.244 157.935 399.424 155.335C405.394 150.455 401.364 141.675 403.154 134.965C405.774 125.185 418.664 120.795 419.714 111.525C420.864 101.355 417.704 96.505 425.214 87.015C426.684 85.155 429.364 85.2949 428.674 83.5249C428.484 83.0249 422.104 75.815 421.644 75.545C418.674 73.825 414.374 74.585 411.424 73.765C408.904 73.065 406.494 69.545 402.954 69.215C393.994 68.355 372.944 71.075 363.924 73.755C347.944 78.485 330.264 95.3449 328.764 112.635C328.234 118.745 330.504 126.615 329.734 133.555C329.614 134.665 329.424 136.745 328.174 137.005C323.354 138.015 326.654 124.545 326.734 122.465C326.814 120.385 326.054 118.855 326.044 117.335C326.044 115.725 327.364 111.975 326.564 111.115C326.304 110.835 324.284 111.115 323.184 110.035C322.304 109.175 322.124 107.215 321.124 106.065C314.714 98.7149 299.194 101.425 294.684 109.995C298.874 108.775 320.424 108.005 320.664 113.505C320.834 117.325 311.234 112.475 309.954 112.245C292.894 109.225 285.164 120.295 290.164 136.025C292.874 144.555 306.254 146.735 314.144 147.045C318.014 147.195 324.524 145.385 327.084 146.105C332.194 147.535 323.544 150.165 323.694 150.505C324.054 151.295 329.504 156.495 330.674 157.525C338.444 164.325 348.394 172.395 358.474 174.725C362.854 175.735 373.764 177.435 377.934 176.805C383.464 175.965 395.144 165.205 399.174 166.015C400.364 166.255 400.824 167.295 399.714 168.535C397.724 170.765 388.554 173.545 388.794 176.345C389.034 179.145 396.194 184.305 398.964 183.865C400.584 183.605 401.774 181.815 404.184 182.015C406.734 182.225 403.484 188.965 394.654 186.555C388.704 184.925 386.704 177.995 386.084 177.955C383.384 177.755 378.604 180.245 374.174 180.105C370.934 179.995 355.404 176.355 354.694 177.045C354.524 177.215 355.494 179.655 355.264 181.075C354.444 186.145 350.094 193.695 348.694 199.035C358.824 195.325 366.984 197.435 376.384 201.855C379.734 203.425 395.704 212.175 395.454 215.555C395.154 219.455 388.044 218.745 387.704 219.045C386.274 220.315 392.354 222.865 390.214 227.025C388.074 231.185 384.224 226.345 381.194 225.045C379.864 225.425 381.924 227.765 381.704 228.035C379.474 230.815 363.364 221.305 359.094 222.125L334.704 225.035C333.984 219.495 338.704 221.625 341.974 220.815C354.014 217.825 362.424 216.255 374.934 220.315C376.884 220.945 385.834 225.915 386.704 225.035C387.704 224.015 386.284 222.095 385.074 221.165C383.524 219.975 374.734 215.835 372.384 214.855C366.784 212.515 363.374 211.775 357.204 212.045C354.734 212.155 343.804 214.275 342.694 213.575C341.914 213.085 341.264 211.675 341.704 211.045C342.294 210.195 360.224 207.875 362.174 207.985C367.554 208.285 388.734 218.505 391.704 216.035C391.844 215.915 390.604 213.365 390.024 212.975C388.884 212.195 386.544 212.105 385.014 211.225C367.924 201.455 363.344 197.615 343.164 204.005C325.724 209.535 295.494 223.705 289.424 242.265C282.634 262.995 281.174 301.275 289.844 321.405C292.314 327.125 298.854 335.285 300.254 340.005C300.674 341.425 300.704 344.075 299.204 344.025C297.254 343.955 286.404 322.385 285.214 319.035C278.324 299.655 279.974 263.965 285.194 244.035C290.774 222.705 313.924 212.985 331.704 204.495C332.784 203.975 334.254 204.545 333.714 202.555C333.594 202.125 329.834 200.055 329.204 200.045C327.624 200.025 326.294 202.095 324.764 202.605C317.004 205.215 316.634 198.265 315.224 198.155C313.814 198.045 308.594 202.715 303.744 198.515C297.624 193.215 306.164 187.655 305.744 183.585C305.564 181.825 301.324 177.725 300.214 175.045C297.764 169.165 298.304 165.345 300.834 159.675C302.204 156.605 309.904 146.725 309.744 153.555C309.704 155.485 301.884 161.825 301.654 168.575C301.384 176.795 309.484 178.665 309.724 183.635C309.854 186.355 303.324 193.365 306.654 195.595C309.744 197.665 314.884 193.595 315.484 190.325C315.584 189.785 315.394 183.415 315.234 183.095C312.444 177.315 305.454 178.535 309.994 166.855C310.504 165.555 315.664 157.325 316.694 161.575C317.444 164.655 309.904 169.095 313.644 175.615C314.704 177.455 320.404 180.835 320.474 181.525C320.524 182.045 318.774 186.155 318.644 188.535C318.564 190.015 319.344 198.675 319.724 199.035C320.184 199.475 323.694 198.955 324.744 198.605C329.734 196.935 326.474 194.575 326.864 191.765C327.214 189.205 331.344 186.215 331.704 183.495C332.114 180.435 329.844 177.255 329.774 174.465C329.714 172.255 330.924 170.165 330.774 167.575C330.424 161.535 325.754 159.875 323.274 155.985C322.464 154.725 322.024 151.515 321.544 151.205C319.574 149.895 304.394 149.965 299.674 148.585C293.994 146.925 287.484 142.325 285.934 136.325C283.194 125.745 286.784 113.895 293.724 105.585C302.134 95.515 317.334 97.0349 326.684 105.065C332.944 84.9049 352.134 71.6749 372.484 68.3549C378.254 67.4149 399.214 65.285 403.984 66.295C406.834 66.895 410.854 69.9749 414.164 71.1049C417.474 72.2349 422.824 72.5349 425.454 73.8149C428.544 75.3149 428.334 79.7949 431.694 81.0649C430.694 76.4749 433.384 73.155 434.424 69.285C436.634 61.0149 436.184 57.275 442.194 50.055C446.064 45.405 451.074 42.975 455.234 39.095C463.794 31.095 461.194 27.045 474.914 22.7649C476.614 22.2349 479.924 22.295 480.534 21.895C480.894 21.655 483.254 15.715 484.294 14.155C491.234 3.62495 505.444 -2.57505 517.684 1.59495C522.314 3.17495 535.434 14.175 537.914 18.365C539.954 21.815 540.904 25.5849 540.774 29.5949C540.734 30.7649 539.934 37.7149 539.684 38.0649L539.654 37.9949ZM578.684 135.995L586.724 130.545C592.034 125.065 590.274 123.475 591.924 117.745C593.284 113.025 595.784 108.075 596.114 103.145C596.554 96.535 594.144 84.815 587.624 81.535C586.674 81.055 585.414 81.7549 584.164 81.0649C581.244 79.4649 578.404 76.7249 575.704 75.4849C570.594 73.1349 563.114 72.5249 557.694 69.9949C557.934 71.9349 554.744 80.3349 555.674 80.9949C555.994 81.2249 558.044 80.765 559.094 81.045C560.624 81.455 563.424 83.845 564.644 82.975C564.934 82.765 566.034 77.6149 567.664 76.4249C568.144 76.0749 570.794 77.0749 570.664 77.4849C569.584 80.9249 563.544 90.9149 561.094 93.9149C557.824 97.9349 552.914 100.415 550.234 104.055C549.264 105.385 543.954 115.275 544.674 115.985C547.264 118.545 564.504 102.205 566.664 99.4849C568.204 97.5549 568.854 94.395 569.934 93.255C572.344 90.725 574.454 91.3049 573.464 95.2749C571.334 103.845 552.724 116.125 545.654 122.465C544.594 123.415 543.194 124.645 542.674 125.975C551.494 127.475 555.084 121.515 560.754 117.565C566.554 113.525 571.614 110.755 577.074 105.885C577.854 105.185 580.624 99.875 582.664 101.975C584.964 104.365 574.684 113.935 572.604 115.415C565.844 120.215 557.554 120.625 554.674 130.485C561.294 132.275 571.414 125.495 576.584 121.395C578.524 119.855 585.184 110.765 586.664 111.985C589.214 114.085 582.204 120.995 581.174 123.985C579.854 127.815 580.254 132.205 578.674 135.975L578.684 135.995ZM686.684 88.005C685.244 89.275 708.014 115.825 708.704 119.475C721.234 137.655 720.204 161.235 723.934 182.245C724.404 184.885 726.644 188.165 726.664 188.505C726.804 191.405 723.574 188.995 722.704 186.475C717.774 172.165 717.594 151.945 713.394 136.785C709.594 123.065 699.614 113.675 691.284 102.895C684.174 93.695 676.914 75.435 661.974 83.795C659.884 84.965 652.984 92.6249 654.674 93.9949C655.294 94.4949 663.174 94.7749 664.944 95.2349C672.194 97.1049 674.284 104.355 679.154 109.025C682.904 112.625 688.684 115.355 692.224 118.955C700.204 127.075 702.854 139.455 707.964 149.215C709.254 151.685 717.944 162.715 716.674 163.995C714.214 166.465 707.774 155.995 706.844 154.325C701.434 144.575 698.684 133.585 691.654 124.515C686.754 118.205 681.534 116.045 676.154 111.015C667.724 103.125 669.494 97.7849 655.224 96.9549C650.004 96.6549 643.394 96.6149 640.684 101.985C644.644 101.195 646.054 104.715 649.614 105.565C654.314 106.685 657.944 105.415 662.644 108.535C667.344 111.655 667.024 117.075 670.764 119.405C675.004 122.035 676.994 119.605 680.924 120.175C689.814 121.455 695.104 130.715 694.194 138.985C689.354 135.975 690.614 129.135 686.214 125.965C681.124 122.315 674.984 125.355 669.954 123.225C664.804 121.045 664.574 112.925 658.964 110.215C653.944 107.795 648.544 110.475 643.764 106.415C640.844 103.945 640.764 98.655 637.154 105.935C632.914 114.495 642.314 113.005 647.754 114.415C659.724 117.515 654.914 125.745 661.324 129.845C667.334 133.695 674.724 130.095 680.044 134.125C683.804 136.975 683.884 142.155 687.174 144.995C692.254 149.395 697.914 146.515 703.204 152.965C704.544 154.595 707.964 160.745 707.684 162.465C707.504 163.585 706.394 164.135 705.164 163.005C702.384 160.435 700.114 154.275 697.664 152.495C694.294 150.045 687.874 150.485 684.154 147.005C682.134 145.115 681.684 142.215 680.114 140.045C675.184 133.225 670.304 135.785 663.414 134.745C652.764 133.145 655.994 122.175 651.084 119.075C648.244 117.285 642.714 117.585 639.434 116.725C637.834 116.305 633.514 113.365 632.694 113.975C631.874 114.585 626.164 130.435 625.214 133.005C623.624 137.325 623.054 142.935 621.194 146.985C618.474 152.925 610.434 157.975 608.454 163.245C604.864 172.815 609.104 168.895 613.164 168.945C613.934 168.945 619.394 169.795 619.684 169.965C619.814 170.045 619.794 172.855 619.684 172.955C618.504 173.985 611.164 171.485 610.684 171.965C610.254 172.405 611.234 180.395 611.774 180.855C612.674 181.635 620.944 180.355 621.684 180.955C621.804 181.055 621.814 183.865 621.684 183.945C621.444 184.105 617.584 184.115 615.864 184.635C607.074 187.295 611.184 189.105 616.674 192.455C613.074 193.225 616.334 194.485 615.564 197.245C614.944 199.465 610.604 200.695 613.174 205.965C615.764 211.275 636.624 211.915 642.204 215.925C646.904 219.295 647.914 230.225 648.684 230.955C650.734 232.895 689.194 200.095 695.194 198.975C697.404 195.315 694.224 187.205 690.674 185.395C688.164 184.115 686.014 189.685 682.114 189.935C679.664 190.095 673.724 187.745 672.784 185.315C671.974 183.215 674.084 181.925 675.184 182.005C676.384 182.095 676.524 188.235 683.414 185.195C691.784 181.495 688.524 177.395 684.674 171.445C683.654 169.875 683.384 168.285 685.184 167.955C687.354 167.555 689.144 173.185 690.274 174.895C690.714 175.565 692.154 175.785 692.714 176.655C694.444 179.305 693.124 181.665 696.944 184.175C702.124 187.575 707.024 185.325 712.394 184.175C713.084 184.025 715.224 181.965 715.654 184.475C716.494 189.265 701.244 188.385 700.654 188.955C699.894 189.685 700.824 196.365 702.194 197.925C703.564 199.485 710.234 201.155 712.154 200.965C715.194 200.665 717.734 194.915 720.374 194.135C723.014 193.355 726.634 195.325 727.694 194.525C729.474 193.175 727.984 188.195 729.914 186.195C731.154 184.915 741.264 180.495 741.664 179.935C742.444 178.815 738.874 176.075 739.674 174.975C739.854 174.725 742.714 174.035 744.504 171.295C746.054 168.905 747.294 162.275 747.684 161.965C749.304 160.685 750.334 163.455 750.464 164.725C750.724 167.235 749.214 169.015 750.164 170.965C759.004 158.685 757.594 141.265 744.164 132.975C743.824 139.765 746.974 146.265 747.664 153.485C747.864 155.585 748.454 157.585 745.674 156.975C741.874 138.005 735.094 119.705 721.694 105.445C717.314 100.775 712.734 96.7649 706.074 96.0549C701.064 95.5249 704.974 100.445 703.664 101.975C703.534 102.125 699.824 102.095 699.664 101.965C699.504 101.825 700.904 99.715 700.534 97.715C699.794 93.745 689.064 85.8649 686.674 87.9849L686.684 88.005ZM334.664 164.015C331.314 161.595 334.424 169.055 334.574 170.615C335.044 175.385 336.274 184.655 333.714 188.285C332.614 189.845 330.644 188.965 330.594 192.485C330.524 197.915 334.964 198.025 336.214 199.965C336.754 200.805 335.324 202.665 335.684 203.005C336.094 203.405 346.224 200.345 346.684 200.005C346.984 199.785 345.274 195.425 345.864 192.735C346.534 189.675 351.494 185.115 351.574 181.545C351.694 175.885 342.274 172.485 338.204 168.995C336.184 167.265 334.914 164.205 334.664 164.025V164.015ZM607.674 175.005C606.034 173.155 598.414 182.815 597.684 183.505C593.684 187.195 584.854 192.735 584.614 198.515C584.474 201.925 587.434 211.235 590.674 212.995C589.464 207.785 588.254 197.085 592.204 193.015C597.274 187.775 594.774 196.115 594.634 198.445C594.064 208.195 596.434 217.505 602.674 224.995C604.534 220.385 598.754 199.255 600.684 196.995C600.814 196.845 604.534 196.865 604.674 196.995C605.304 197.615 603.834 201.195 603.874 202.485C603.964 205.585 605.454 209.335 605.674 212.505C605.994 217.035 604.184 229.745 605.194 231.985C607.274 236.565 609.254 230.955 610.204 228.025C611.394 224.315 613.534 215.145 612.474 211.705C612.094 210.475 610.504 209.595 609.914 208.285C606.404 200.545 612.144 198.945 611.724 194.545C611.464 191.805 607.124 190.055 606.754 188.385C606.384 186.715 609.364 185.655 609.604 184.385C609.794 183.405 608.024 181.995 607.714 180.485C607.424 179.075 607.964 175.335 607.684 175.025L607.674 175.005ZM613.684 229.995C615.714 232.275 621.574 219.505 621.674 217.385C621.784 214.855 619.364 212.635 617.114 212.055C615.174 211.555 614.934 215.385 614.794 216.605C614.284 221.015 614.724 225.605 613.694 229.995H613.684Z" fill="#2D2A8D"/>
<path d="M746.684 217.015C745.124 218.295 752.864 222.885 753.344 223.345C757.004 226.865 757.894 231.445 756.644 236.305C756.424 237.155 754.804 236.925 754.654 237.665C754.044 240.615 756.624 243.165 753.624 246.445C752.674 247.475 750.614 247.315 750.774 249.335C750.864 250.455 761.374 264.525 763.204 267.975C769.204 279.335 773.164 292.695 774.674 305.505C775.104 309.105 776.644 332.025 775.674 332.995C775.434 333.235 773.394 333.085 772.624 332.555C770.704 331.225 771.964 316.115 771.724 312.455C769.874 285.075 759.524 263.945 741.194 243.985C739.204 241.815 728.864 231.475 727.034 231.105C726.024 230.895 724.654 232.695 723.144 232.975C721.634 233.255 717.064 232.685 716.674 233.015C716.194 233.415 719.724 235.845 718.674 237.005C717.884 237.885 699.464 239.795 695.404 241.235C680.234 246.605 659.354 263.015 650.664 276.495C633.434 303.205 611.194 380.675 608.804 412.635C608.544 416.065 609.364 433.195 608.684 434.025C608.594 434.135 605.824 434.115 605.714 434.025C601.854 430.875 608.944 386.145 611.694 379.035C610.174 378.885 609.314 378.835 608.184 380.015C605.734 382.585 599.794 406.935 599.004 411.835C597.814 419.215 596.784 429.165 597.664 436.555C597.874 438.305 600.064 442.615 599.694 443.025C599.594 443.135 597.024 443.845 596.674 443.595C590.044 438.885 595.614 410.785 597.364 403.205C598.234 399.455 605.634 377.075 604.684 376.035C602.884 374.045 596.154 386.145 595.514 387.355C592.244 393.515 591.154 398.425 588.834 404.675C586.954 409.745 584.464 409.025 585.354 404.235C587.334 393.545 593.554 380.805 601.684 373.535C591.984 371.485 588.314 373.335 583.494 381.345C574.074 396.995 571.364 434.265 585.154 448.075C593.734 456.675 610.324 448.135 615.244 439.095C620.734 429.005 624.914 409.095 622.244 397.995C621.304 394.095 618.324 389.795 617.734 386.495C616.914 381.925 619.984 384.475 621.524 386.715C631.734 401.515 624.944 423.845 618.684 439.045C631.414 435.395 640.094 424.655 647.504 414.375C669.184 384.255 682.574 348.515 694.874 313.745C695.084 312.035 698.164 311.535 698.674 312.055C699.304 312.705 695.384 323.655 694.694 325.565C685.644 350.965 675.224 376.135 661.484 399.355C659.384 402.905 648.244 418.095 647.834 419.785C647.424 421.475 649.814 425.465 650.384 427.825C652.154 435.145 653.454 442.615 654.684 450.035L661.684 428.045C663.364 427.755 664.614 428.805 664.664 430.485C664.724 432.795 660.264 443.435 659.354 447.215C653.584 471.095 652.004 494.305 648.544 518.405C637.674 594.125 629.734 642.025 649.954 718.255C655.514 739.225 660.624 752.135 669.854 771.355C674.424 780.865 674.814 795.525 678.654 806.555C683.174 819.535 692.024 831.375 695.934 844.275C701.934 864.045 703.044 885.525 709.954 906.255C710.814 908.845 715.914 919.285 715.664 920.515C715.544 921.135 714.064 922.245 713.174 922.045C709.804 921.275 700.384 884.725 699.124 879.085C698.054 874.295 696.524 858.275 694.734 855.475C693.974 854.275 685.904 848.905 684.174 848.015C683.394 847.615 683.084 846.265 682.144 848.035C679.464 853.045 683.814 870.395 677.714 876.605C671.174 883.265 665.244 871.065 663.154 866.055C659.834 858.105 660.014 859.145 655.834 852.365C645.944 836.305 645.284 817.085 645.694 798.705C616.094 788.245 630.004 754.265 627.714 730.645C617.664 728.315 614.394 720.445 613.154 711.035C611.544 719.475 607.984 727.535 605.944 735.835C596.004 776.125 605.184 816.565 597.194 857.085C594.134 872.585 586.204 901.545 579.734 915.625C578.294 918.755 578.734 917.695 575.654 917.045C582.874 893.785 591.914 870.715 595.504 846.395C600.954 809.505 593.664 773.105 602.324 736.215C604.224 728.125 607.314 720.305 609.364 712.255C616.104 685.855 614.504 658.595 615.604 631.495C617.784 577.635 619.904 523.425 621.694 469.585C621.804 466.205 620.894 446.935 621.654 446.035C621.784 445.885 625.514 445.885 625.644 446.035C626.704 447.275 624.714 456.105 624.604 458.495C621.154 536.055 618.434 616.095 617.694 693.585C617.614 702.025 615.784 707.715 618.334 716.855C621.584 728.525 630.394 724.735 638.374 727.815C643.334 729.725 647.184 736.185 651.644 739.035C646.674 719.605 640.804 700.315 637.784 680.405C627.114 610.185 641.004 547.125 649.794 477.665C650.654 470.905 653.044 464.435 652.654 457.545C652.454 453.915 647.004 425.085 645.654 424.035C645.054 423.565 636.054 433.295 634.584 434.455C628.484 439.265 621.024 442.355 614.334 446.205C611.514 447.825 608.664 450.985 605.564 452.435C589.684 459.865 580.204 452.185 574.884 437.305C574.004 434.835 572.834 426.655 572.504 426.185C572.134 425.655 570.004 425.665 568.924 424.755C562.244 419.085 548.974 399.765 544.484 391.705C543.444 389.835 540.824 382.585 540.434 382.255C539.574 381.545 522.154 377.385 518.894 376.305C498.744 369.635 479.654 360.385 460.674 351.035C463.764 379.805 450.674 405.005 443.954 431.825C442.514 437.555 434.774 475.755 436.674 478.035C438.274 479.955 438.814 476.535 439.134 476.045C446.984 464.215 461.814 437.135 466.134 424.005C471.914 406.435 474.024 385.355 476.674 367.035C480.954 365.655 479.954 370.895 479.664 374.535C476.744 410.835 462.494 444.965 443.844 475.715C441.534 479.515 436.914 482.795 436.174 484.045C435.434 485.295 434.044 495.085 433.174 498.045C427.314 517.825 408.294 537.425 399.544 556.415C393.764 561.165 396.004 555.485 397.854 551.725C407.744 531.595 426.264 513.725 431.384 491.255C435.484 473.255 430.814 462.625 428.794 445.425C425.784 419.755 436.864 397.245 437.714 371.585C437.844 367.685 436.404 360.235 436.834 357.795C437.414 354.525 447.524 344.155 446.674 343.055C446.544 342.885 443.804 342.245 442.634 341.585C421.864 329.715 396.864 308.955 376.874 300.335C375.644 299.805 373.334 299.575 373.674 297.555C374.034 295.375 377.864 297.015 378.874 297.345C391.724 301.575 409.334 317.695 421.754 325.465C448.504 342.215 483.744 360.165 513.424 370.795C529.204 376.445 547.314 383.795 562.974 374.845C583.384 363.185 613.354 331.225 626.894 311.765C638.364 295.285 644.934 272.845 659.654 259.525C666.294 253.515 690.204 237.835 698.394 236.265C703.814 235.225 709.334 237.195 714.664 234.025C714.284 232.205 712.704 232.165 711.204 231.995C706.544 231.475 700.844 231.875 696.394 233.265C694.814 233.755 688.654 237.925 689.664 233.545C690.234 231.085 701.404 228.225 704.124 227.995C711.004 227.415 713.884 229.015 719.394 229.865C722.814 230.395 726.074 228.085 721.234 225.955C711.074 221.485 702.514 220.605 692.284 225.155C690.884 225.775 688.414 228.015 688.164 228.015C686.924 228.035 685.924 225.195 687.664 223.535C692.014 219.385 705.344 218.345 711.084 219.115C714.854 219.625 718.964 222.275 722.944 223.255C724.254 223.575 724.854 225.175 724.664 222.545C717.564 214.625 705.654 211.115 695.444 214.305C692.914 215.095 687.244 219.035 686.164 219.045C683.544 219.075 683.464 217.645 685.184 216.035C694.714 207.095 711.524 208.735 722.014 215.185C722.804 215.675 728.014 219.645 728.204 219.985C728.984 221.325 726.024 224.995 727.584 226.545C733.154 230.135 740.204 239.965 745.114 243.075C746.334 243.845 750.084 244.655 750.664 244.025C752.394 242.155 747.554 233.365 748.674 232.025C748.904 231.745 754.114 236.665 754.654 236.025C755.474 235.045 752.834 223.725 747.354 225.145C744.324 225.925 740.664 238.205 733.674 228.525C740.744 229.005 746.344 222.995 743.154 216.035C741.874 213.255 731.514 206.595 734.674 203.025C736.094 201.425 739.734 207.725 740.624 208.565C743.274 211.055 751.634 216.685 752.704 210.505C753.544 205.615 748.914 201.675 749.674 198.535C749.914 197.545 750.964 196.685 752.144 198.045C755.404 201.805 758.024 210.225 754.684 214.535C750.954 219.345 747.264 216.545 746.664 217.035L746.684 217.015ZM614.484 367.795L629.674 314.995C615.514 332.345 600.874 349.175 583.724 363.595C588.304 373.555 592.754 369.725 601.194 369.005C603.964 368.765 613.124 369.725 614.494 367.795H614.484ZM435.674 458.005C435.844 457.795 435.574 454.835 435.794 453.625C441.274 423.255 456.214 392.515 457.724 362.545C457.864 359.825 458.184 351.655 457.524 349.655C456.964 347.965 448.964 344.545 448.684 344.995C448.514 345.265 448.744 346.825 448.094 347.875C446.314 350.775 441.514 354.865 440.884 357.705C439.764 362.705 441.114 370.125 440.724 375.545C439.104 397.585 430.344 420.035 431.684 441.495C431.954 445.775 432.914 452.185 433.714 456.485C433.944 457.735 434.174 459.865 435.674 457.995V458.005ZM570.694 422.005C573.214 423.825 572.014 416.085 572.034 415.675C572.674 404.985 574.284 390.745 579.494 381.325C580.614 379.305 585.484 373.865 585.584 373.375C585.824 372.225 580.824 366.025 580.174 366.025C579.424 366.025 570.824 373.995 568.584 375.425C564.324 378.155 559.144 381.115 554.094 381.935C552.154 382.245 544.814 381.245 544.694 383.505C544.624 384.745 555.704 402.255 557.454 404.735C561.034 409.805 565.204 414.275 569.224 418.975C570.234 420.155 570.554 421.915 570.694 422.005ZM612.674 372.005C612.074 371.415 606.434 372.385 605.064 372.895C604.054 373.275 602.044 373.485 603.674 374.985C603.914 375.205 609.624 376.985 609.974 376.895C611.654 376.495 613.624 372.935 612.674 371.995V372.005ZM630.694 769.005C636.064 764.355 651.874 753.695 652.534 746.315C652.704 744.375 639.124 731.815 636.404 730.785C628.334 727.695 631.784 730.595 631.764 733.515C631.754 735.885 630.724 738.025 630.644 740.455C630.324 749.945 630.964 759.515 630.694 768.995V769.005ZM644.684 762.505C643.704 765.995 644.684 780.115 644.684 785.005C644.684 785.155 641.684 785.155 641.684 785.005V765.005C638.194 766.005 632.154 771.715 631.104 774.955C629.064 781.265 636.224 789.785 641.434 792.755C646.644 795.725 651.554 795.215 656.744 796.445C659.254 797.045 661.164 798.835 663.684 798.995C659.154 783.025 655.604 766.725 655.684 749.995C654.474 752.155 644.914 761.695 644.694 762.495L644.684 762.505ZM693.674 850.005C695.574 847.735 678.674 816.695 676.664 811.525C671.374 797.975 670.894 783.925 665.514 770.675L660.694 764.005C659.004 781.125 673.984 797.245 662.104 812.915C659.144 816.815 651.734 820.775 650.884 824.725C649.764 829.895 653.814 836.175 654.944 841.255L660.684 852.005L657.724 819.495C660.974 815.745 662.444 823.905 662.684 826.515C663.744 837.945 662.754 857.635 667.514 867.685C668.724 870.245 672.974 877.465 675.594 873.395C679.614 867.135 674.944 845.595 682.674 843.415C685.664 842.575 692.994 850.845 693.694 850.005H693.674ZM649.694 820.005C653.924 815.985 663.804 809.375 661.544 802.665C660.714 800.215 651.684 797.875 649.204 797.995C647.384 798.075 650.354 817.675 649.704 820.005H649.694Z" fill="#2D2A8D"/>
<path d="M382.684 749.005C380.034 757.185 378.644 765.625 377.684 774.505C377.514 776.105 377.984 781.645 377.684 782.005C377.584 782.115 374.784 782.125 374.694 782.005C374.394 781.635 374.554 773.955 374.664 772.465C374.754 771.165 375.834 769.115 375.694 769.005C375.314 768.695 372.834 769.495 371.854 768.835C371.154 768.365 368.854 760.755 368.754 759.345C367.614 742.465 392.014 699.155 399.164 680.955C410.544 651.995 418.654 620.115 420.694 588.975C421.504 589.085 423.554 588.815 423.684 588.975C426.584 592.485 416.534 637.115 414.614 644.405C408.594 667.185 400.154 687.195 390.874 708.665C385.374 721.385 368.444 750.295 372.764 763.415C373.304 765.055 373.774 765.925 375.194 766.975C378.554 738.605 395.724 714.685 407.554 689.335C424.374 653.295 435.464 615.355 438.694 575.475C439.144 569.965 438.284 564.015 438.694 558.485C439.594 546.625 443.214 534.805 444.184 522.975C429.894 548.115 416.984 574.335 409.754 602.555C408.404 607.825 405.884 626.155 404.204 629.005C402.634 631.645 401.544 627.585 401.654 625.515C404.334 574.475 445.134 523.505 462.434 476.235C468.334 460.125 473.584 441.535 475.674 424.475C475.954 422.195 475.404 419.695 475.674 417.485C475.854 416.065 479.904 416.205 479.714 421.435C479.264 433.895 472.254 458.605 468.144 470.945C460.624 493.565 450.474 509.325 445.984 533.785C443.364 548.045 439.474 569.335 442.954 583.195C453.994 627.135 465.804 664.185 469.664 710.485C471.514 732.595 474.454 781.495 467.444 801.255C465.544 806.615 459.724 813.145 458.904 817.715C455.774 835.045 460.074 868.235 462.824 886.325C464.564 897.775 466.774 909.225 469.644 920.435C468.234 922.485 466.844 922.655 465.874 920.275C462.894 912.955 461.124 896.795 459.824 888.325C457.724 874.705 455.364 860.215 454.674 846.475C454.264 838.325 455.844 829.565 454.174 821.985C448.664 828.755 441.954 834.515 436.154 840.965C411.324 868.595 386.704 895.165 361.154 921.955C358.674 924.555 359.584 927.075 354.674 924.965C370.034 906.715 388.064 890.675 404.184 872.995C414.524 861.655 424.044 849.495 434.154 837.965C450.804 818.965 465.834 810.645 467.714 782.525C469.594 754.405 467.764 721.515 464.554 694.595C460.284 658.825 452.054 623.355 441.664 588.985L430.594 638.405C423.004 677.955 394.644 712.085 382.674 748.985L386.574 749.095C390.604 762.025 391.444 774.955 388.384 788.195C384.154 806.515 370.244 811.505 357.204 822.015C325.124 847.865 304.094 888.915 283.564 923.925L279.684 922.985C291.664 903.475 302.394 883.115 315.464 864.275C321.344 855.805 335.324 841.275 339.124 833.935C340.744 830.795 341.644 824.115 343.204 820.015C346.914 810.265 354.554 800.445 357.214 791.025C360.314 780.035 361.474 765.555 363.994 753.805C373.514 709.575 386.154 665.845 389.684 620.495C391.484 597.425 393.264 558.575 384.864 537.315C383.534 533.945 379.644 530.485 381.194 526.985C389.044 532.255 391.294 545.675 392.564 554.615C402.434 624.145 379.034 696.545 365.144 763.955C363.234 773.225 362.764 784.095 360.204 793.015C356.884 804.575 346.584 815.025 344.674 827.485L371.164 807.975C389.384 794.025 389.714 769.145 382.684 748.995V749.005Z" fill="#2D2A8D"/>
<path d="M768.634 391.085C766.344 412.805 758.054 433.375 766.494 454.685C777.524 482.515 799.504 507.205 809.144 536.035C815.934 556.355 816.344 588.845 802.684 606.505C799.184 611.025 792.604 614.385 789.844 618.665C786.244 624.245 782.784 636.735 780.664 643.485C770.254 676.655 764.284 710.025 752.434 743.255C749.424 751.705 742.564 762.655 742.604 771.505C742.654 782.845 749.684 810.545 756.694 819.495C763.044 827.595 781.064 837.915 789.704 845.485C810.034 863.285 828.794 892.925 836.244 918.995C836.704 920.605 837.024 922.155 835.184 922.985C833.624 923.685 832.054 918.855 831.524 917.665C826.304 906.025 822.674 894.275 816.224 882.975C802.764 859.395 782.474 843.465 760.714 827.995C764.234 836.615 769.464 844.475 773.174 853.025C779.714 868.095 784.744 885.965 785.744 902.455C785.914 905.235 786.384 923.175 785.694 924.005C785.594 924.125 782.794 924.125 782.704 924.005C782.084 923.255 782.904 907.575 782.704 904.505C780.254 867.495 764.754 848.035 750.844 816.365C733.274 776.345 741.964 760.695 747.544 720.355C751.844 689.285 752.724 659.435 755.704 628.515C756.144 623.935 757.814 605.485 760.204 603.015C761.394 601.785 769.594 598.445 772.034 596.845C795.344 581.565 795.954 552.325 789.424 527.805C788.764 525.335 784.674 516.165 784.734 515.505C784.774 515.045 786.254 513.795 787.194 514.015C789.284 514.505 793.164 527.725 793.834 530.385C800.154 555.455 798.084 584.155 774.624 599.425C771.344 601.565 766.024 603.035 763.404 604.945C761.114 606.615 759.104 628.135 758.704 632.505C757.984 640.325 758.344 648.845 757.704 656.505C755.164 686.485 752.364 716.455 746.714 746.005C748.444 745.735 748.454 744.015 748.984 742.785C764.254 706.965 768.494 665.265 781.954 628.755C783.324 625.045 785.684 617.465 787.844 614.645C792.054 609.165 798.424 607.925 803.224 599.025C828.394 552.365 788.924 507.305 769.184 468.025C755.694 441.175 758.954 428.375 763.864 399.655C764.124 398.145 765.324 390.295 765.724 389.995C766.024 389.775 767.664 391.265 768.664 391.075L768.634 391.085Z" fill="#2D2A8D"/>
<path d="M383.674 232.995C381.634 236.055 360.064 231.745 358.684 233.015C355.644 235.805 366.254 236.005 366.974 236.215C369.054 236.815 370.274 238.905 369.214 240.995C365.814 247.675 348.774 246.315 342.284 247.115C331.774 248.405 320.984 256.985 310.584 259.645C304.474 280.465 301.014 302.695 302.684 324.505C303.874 339.985 310.814 357.125 311.664 372.525C313.374 403.395 277.384 440.185 266.924 470.765C257.844 497.325 250.844 529.795 246.664 557.445C248.014 567.595 248.114 577.885 252.854 587.345C255.854 593.345 262.394 597.865 264.874 603.325C273.024 621.215 273.624 664.695 276.834 686.365C279.854 706.785 285.854 727.555 288.564 747.635C292.834 779.225 279.954 798.745 271.414 827.255C264.334 850.865 259.414 880.855 260.684 905.515C260.904 909.735 263.054 917.825 262.694 921.505C262.614 922.355 260.734 922.205 260.184 922.025C257.114 921.055 257.404 890.225 257.644 885.465C259.364 851.075 268.544 827.395 278.954 795.775C292.724 753.975 279.944 729.285 273.834 688.345C271.124 670.215 268.384 614.875 260.514 602.665C259.074 600.435 256.734 599.035 255.254 596.925C233.064 565.285 247.194 532.055 256.184 499.015C259.884 485.425 261.424 473.395 267.204 460.035C280.154 430.125 311.114 401.635 307.554 367.625C305.734 350.215 299.224 333.705 298.634 315.555C298.044 297.405 302.484 277.835 306.674 260.015C305.054 260.955 296.074 259.365 298.684 257.015C298.924 256.805 303.554 257.125 305.064 256.895C319.334 254.735 328.834 244.185 342.194 243.025C347.064 242.605 352.334 243.355 357.224 243.055C358.514 242.975 365.344 242.265 365.684 242.005C367.534 240.565 365.214 240.275 364.274 239.915C360.974 238.645 354.384 236.055 351.144 235.975C347.444 235.885 334.694 240.725 332.684 239.005C332.534 238.875 332.534 235.455 332.814 235.125C333.564 234.235 352.634 229.255 355.194 229.015C363.824 228.195 370.944 232.075 378.984 230.805C380.274 230.605 381.964 229.025 382.194 229.035C383.214 229.065 384.254 232.145 383.684 233.005L383.674 232.995Z" fill="#2D2A8D"/>
<path d="M488.675 365.995C488.565 379.165 488.825 392.365 488.725 405.545C488.415 447.735 487.695 492.265 507.155 531.025C525.455 567.475 555.725 575.315 579.705 538.525C594.765 515.405 598.085 485.015 604.895 458.715C605.785 456.175 607.295 457.085 607.745 459.505C603.805 479.015 600.175 499.525 593.425 518.245C586.515 537.415 572.815 561.875 550.715 565.035C551.045 608.915 550.105 652.945 543.525 696.345C540.225 718.125 531.975 740.695 534.795 762.385C537.615 784.075 540.115 790.435 534.605 813.425C529.465 834.855 521.895 855.625 518.795 877.615C516.765 892.025 518.195 906.905 516.735 920.555C516.345 924.175 515.335 924.675 512.645 922.345C512.915 900.835 514.675 879.875 518.995 858.805C520.235 852.755 525.595 836.855 525.545 832.475C525.515 829.655 522.425 822.505 521.805 818.385C516.775 785.065 531.165 744.995 537.385 712.185C546.495 664.065 547.655 614.845 547.695 565.985C513.965 566.615 497.215 523.505 491.175 496.005C483.175 459.565 484.165 421.525 485.735 384.535C485.855 381.765 485.105 366.705 485.695 365.985C485.835 365.825 487.885 366.095 488.685 365.985L488.675 365.995ZM527.675 825.995C529.215 816.705 533.865 806.795 534.675 797.495C535.865 783.855 532.335 771.355 531.675 758.005C529.775 758.355 529.995 760.065 529.635 761.455C525.195 778.815 522.685 805.515 526.165 823.025C526.375 824.095 526.235 826.255 527.675 825.995Z" fill="#2D2A8D"/>
<path d="M720.814 380.125C722.374 377.835 738.024 381.175 741.684 379.995C741.304 378.175 739.724 378.135 738.224 377.965C730.764 377.135 716.924 378.765 710.724 374.465C708.974 373.245 706.334 370.515 707.384 368.285C708.074 366.805 712.464 365.125 710.684 364.025C709.224 363.115 706.734 363.855 704.634 360.565C700.444 353.995 708.904 354.555 709.574 353.905C709.834 353.655 709.794 350.645 710.424 349.255C712.874 343.785 730.154 343.825 735.904 342.725C742.924 341.385 750.014 338.695 756.654 337.445C761.294 336.565 762.504 339.355 757.494 341.315C745.154 346.135 730.444 345.145 718.424 348.245C714.454 349.265 709.004 353.095 716.274 353.925C727.434 355.185 739.074 352.415 750.104 351.055C752.224 352.405 752.294 353.785 750.044 354.875L706.694 358.035C708.184 360.915 712.024 362.695 715.164 363.045C726.504 364.325 741.224 362.695 752.684 362.025C753.034 367.855 749.794 367.165 745.064 367.905C736.734 369.195 726.594 369.385 718.144 369.065C715.564 368.965 705.604 366.355 712.724 371.485C719.724 376.535 748.364 373.285 751.234 377.975C751.874 379.015 752.024 380.035 751.244 381.065C750.344 382.255 737.474 384.095 735.194 384.095C732.914 384.095 725.084 381.635 724.704 382.005C722.704 383.995 731.424 387.295 732.634 387.565C749.654 391.435 779.384 385.005 791.364 371.665C798.034 364.235 798.194 352.575 790.224 345.985C783.704 340.595 763.424 334.365 754.354 329.855C750.874 328.125 743.444 322.705 741.194 322.015C739.724 321.565 739.504 322.135 739.694 323.505C740.524 329.435 750.134 333.055 750.724 336.485C751.404 340.455 744.004 334.625 743.234 333.975C739.964 331.215 736.444 327.085 736.624 322.495C736.974 313.405 752.234 325.315 756.034 327.185C764.654 331.425 789.784 340.045 794.714 345.505C807.234 359.385 796.524 373.715 783.394 381.175C767.414 390.255 746.474 395.925 728.494 389.725C725.144 388.575 717.964 384.365 720.844 380.125H720.814Z" fill="#2D2A8D"/>
<path d="M579.684 483.005C578.494 483.005 570.334 488.455 566.684 489.505C516.144 504.085 503.744 421.225 498.834 387.345C498.334 383.875 496.854 377.165 496.924 374.265C496.954 373.065 498.614 371.035 499.174 371.025C500.724 370.975 500.524 374.595 500.674 375.505C505.204 402.085 511.934 452.985 528.694 473.485C543.984 492.205 567.854 493.115 582.504 473.335C584.174 471.075 587.104 464.595 588.724 463.495C588.974 463.325 594.454 462.795 594.674 463.005C596.214 464.525 586.944 497.435 585.164 501.985C567.814 546.345 534.744 542.555 514.154 503.015C511.854 498.595 499.484 470.345 501.684 467.995C501.794 467.885 504.524 467.575 504.764 468.585C510.354 489.855 528.664 537.365 557.714 529.535C578.414 523.955 586.314 487.405 590.634 469.445C590.884 466.535 589.484 468.685 588.844 469.655C585.884 474.125 582.434 478.705 579.684 482.995C586.004 482.955 578.804 493.545 577.124 495.935C571.284 504.265 561.384 510.805 551.064 511.875C546.824 512.315 532.564 512.685 530.794 508.375C530.294 507.145 530.044 505.745 532.154 505.995C535.174 506.355 538.804 508.505 542.274 508.885C556.884 510.465 570.054 501.035 577.194 489.015C578.294 487.155 578.954 484.135 579.684 482.995V483.005Z" fill="#2D2A8D"/>
<path d="M413.194 83.005C414.154 82.805 415.634 84.055 415.654 84.495C415.714 85.395 409.174 92.265 408.164 94.985C406.004 100.815 407.534 106.935 405.164 112.985C402.414 119.985 394.524 123.945 394.604 131.505C394.664 137.575 396.614 139.585 393.724 146.535C390.564 154.145 386.124 153.015 380.724 156.535C375.324 160.055 375.154 165.025 366.194 166.005C353.164 167.425 346.774 161.415 335.654 156.525C334.134 155.525 335.214 154.405 336.304 154.105C342.784 152.295 348.294 159.465 353.714 161.475C359.134 163.485 367.604 164.255 372.634 160.445C374.684 158.885 375.274 156.825 376.754 155.565C380.794 152.125 386.234 151.925 390.144 145.955C394.694 138.995 390.424 134.735 391.914 127.715C392.944 122.845 398.924 118.035 401.174 112.975C404.264 106.025 402.304 101.655 404.204 96.025C405.004 93.655 411.304 83.405 413.204 83.005H413.194Z" fill="#2D2A8D"/>
<path d="M400.554 583.875C394.854 587.705 400.194 575.895 400.804 574.625C411.754 551.635 427.224 530.715 437.544 507.365C443.214 494.545 446.114 480.905 451.184 468.005C451.664 466.795 452.464 464.695 454.174 465.015C456.434 465.425 454.874 467.495 454.654 468.465C446.174 505.975 424.494 538.105 406.514 571.335C405.414 573.355 401.144 583.495 400.564 583.885L400.554 583.875Z" fill="#2D2A8D"/>
<path d="M531.184 45.025C535.104 45.135 537.044 71.865 534.104 76.925C531.404 81.585 524.184 83.005 519.184 83.015C515.854 83.015 511.174 80.175 508.564 80.495C503.614 81.095 497.004 88.825 490.944 89.785C483.364 90.985 477.204 85.695 472.244 86.035C467.284 86.375 461.654 94.105 455.234 86.975C453.844 85.435 447.844 73.845 453.174 75.025C454.864 75.395 455.284 88.105 464.984 85.825C466.804 85.395 467.954 83.655 469.414 83.255C475.484 81.585 478.254 85.245 483.264 85.935C496.124 87.705 502.714 75.785 511.934 77.245C516.824 78.015 518.354 81.235 524.224 79.075C531.684 76.325 533.204 69.985 532.564 62.645C532.384 60.575 527.414 44.935 531.184 45.045V45.025Z" fill="#2D2A8D"/>
<path d="M634.675 442.995L635.165 565.005C632.905 564.985 632.815 563.275 632.625 561.545C631.645 552.865 632.955 541.565 632.715 532.455C632.655 530.085 631.675 527.915 631.625 525.545C631.065 498.055 632.125 470.475 631.675 442.995H634.665H634.675Z" fill="#2D2A8D"/>
<path d="M404.684 80.015C399.484 84.845 392.884 89.685 392.614 97.495C392.424 103.155 395.024 105.505 391.534 111.365C387.004 118.965 379.544 116.415 375.144 119.975C370.744 123.535 372.424 130.725 363.514 133.335C357.274 135.165 352.994 132.445 347.174 132.565C344.914 132.615 343.054 133.335 340.944 133.795C340.244 133.945 338.134 136.005 337.684 133.495C337.324 131.475 339.674 131.245 340.884 130.715C349.064 127.145 356.054 131.965 363.734 129.565C369.124 127.875 369.654 120.025 374.174 117.005C378.944 113.805 386.494 116.025 389.184 110.025C391.874 104.025 388.664 99.605 389.904 93.735C390.854 89.275 399.084 77.695 404.674 80.025L404.684 80.015Z" fill="#2D2A8D"/>
<path d="M323.675 127.995C321.525 130.095 316.365 123.275 313.895 122.275C302.325 117.585 292.905 135.005 306.405 137.775C308.765 138.255 314.855 138.405 317.175 137.985C319.075 137.645 319.385 136.355 320.175 135.985C324.755 133.825 326.815 135.555 323.225 139.035C318.935 143.185 307.825 142.845 302.685 140.505C288.875 134.235 299.665 115.165 311.945 117.215C314.805 117.695 326.285 125.455 323.685 127.995H323.675Z" fill="#2D2A8D"/>
<path d="M502.673 142.005C505.733 145.165 491.703 156.945 484.663 149.525C481.043 145.715 481.433 136.935 480.673 136.005C479.553 134.635 468.553 143.935 468.693 139.505C468.753 137.565 484.463 131.185 471.633 126.555C466.363 124.645 460.103 128.455 459.683 128.005C459.553 127.865 459.483 124.635 459.823 124.145C460.123 123.715 466.053 121.985 467.183 121.975C474.233 121.955 480.263 129.515 482.873 135.325C484.893 139.825 485.693 151.575 493.403 148.275C495.403 147.415 500.793 140.065 502.683 142.015L502.673 142.005Z" fill="#2D2A8D"/>
<path d="M628.673 650.005C630.623 658.725 629.083 667.715 629.633 676.545C630.283 687.105 631.763 698.865 633.973 709.205C634.553 711.935 636.553 715.935 636.673 718.395C636.693 718.815 634.333 719.985 634.183 719.985C633.023 719.985 631.323 713.595 630.983 712.205C626.253 693.275 626.713 671.945 625.693 652.495L628.683 649.995L628.673 650.005Z" fill="#2D2A8D"/>
<path d="M382.684 127.005C382.794 127.105 382.824 129.925 382.684 129.995C382.304 130.205 380.524 129.795 379.454 130.225C372.344 133.075 373.754 145.785 363.714 148.525C354.234 151.105 350.764 143.315 344.094 143.045C341.454 142.935 333.774 146.915 332.684 145.995C329.344 143.145 342.484 139.955 344.184 139.925C351.264 139.805 353.834 145.095 359.444 145.815C371.154 147.315 368.524 130.395 377.624 127.445C378.674 127.105 382.264 126.615 382.684 127.005Z" fill="#2D2A8D"/>
<path d="M463.094 77.425C462.414 77.925 461.534 80.415 459.674 79.555C452.554 76.225 467.924 69.775 471.434 69.225C480.134 67.865 483.524 75.865 494.734 70.555C497.074 69.445 502.634 64.275 503.164 64.245C503.864 64.205 506.664 66.025 506.674 66.515C506.694 68.225 493.624 75.315 490.964 75.775C482.464 77.235 478.534 72.215 471.174 72.985C467.464 73.375 465.894 75.365 463.104 77.435L463.094 77.425Z" fill="#2D2A8D"/>
<path d="M642.674 437.995C643.184 456.065 644.634 474.415 643.684 492.515C643.564 494.785 643.204 494.005 641.194 493.985L639.674 438.575L642.684 437.985L642.674 437.995Z" fill="#2D2A8D"/>
<path d="M371.674 79.0049C372.684 79.9949 371.384 81.8949 369.964 82.7849C366.534 84.9449 360.294 86.3149 356.004 88.8249C351.374 91.5349 343.884 97.3449 340.854 101.675C339.284 103.905 336.224 112.205 335.744 112.565C334.364 113.585 331.894 112.715 331.674 111.485C331.544 110.765 334.754 104.525 335.484 103.305C339.654 96.3249 350.024 87.7549 357.304 84.1249C358.864 83.3449 371.124 78.4749 371.674 79.0049Z" fill="#2D2A8D"/>
<path d="M460.684 66.995C458.624 64.785 463.414 60.445 465.674 59.495C474.734 55.705 484.864 60.275 495.364 55.185C497.154 54.315 502.074 50.155 503.194 50.245C503.694 50.285 505.664 52.325 505.664 52.495C505.684 53.095 497.474 58.145 495.924 58.735C487.334 62.015 478.734 59.835 470.454 62.265C468.594 62.815 461.104 67.435 460.684 66.985V66.995Z" fill="#2D2A8D"/>
<path d="M457.683 57.9949C456.253 56.7249 465.213 49.8549 466.343 49.1649C474.033 44.3949 477.493 46.2149 485.073 44.8949C489.923 44.0449 495.043 42.1449 499.633 41.4449C505.063 40.6149 504.283 42.8449 499.953 44.7749C488.443 49.8949 479.343 45.7949 467.163 52.9849C465.143 54.1749 459.803 59.8849 457.693 58.0049L457.683 57.9949Z" fill="#2D2A8D"/>
<path d="M371.674 96.0049C374.314 98.7649 365.144 108.695 362.614 110.435C356.294 114.795 352.294 111.645 346.624 113.445C343.394 114.465 340.294 119.455 337.974 121.755C334.534 125.165 333.824 122.295 335.834 118.645C337.274 116.015 340.524 112.085 343.434 111.245C353.054 108.475 356.064 114.155 364.674 103.475C366.054 101.765 369.474 93.6749 371.694 95.9949L371.674 96.0049Z" fill="#2D2A8D"/>
<path d="M623.263 383.415C622.343 382.215 616.393 376.275 622.753 378.415C629.113 380.555 637.803 399.675 639.023 406.205C639.943 411.135 637.243 411.325 635.183 407.015C630.653 397.585 630.433 392.775 623.273 383.415H623.263Z" fill="#2D2A8D"/>
<path d="M510.684 71.9949C508.494 69.8049 514.754 66.5449 515.684 65.5049C520.204 60.4149 519.834 56.9349 519.724 50.4549C519.694 48.7349 517.104 41.0549 521.164 42.0049C522.754 42.3749 524.674 51.6549 524.714 53.5449C524.794 57.6749 522.644 63.5749 519.724 66.5449C518.684 67.5949 511.864 73.1749 510.684 71.9949Z" fill="#2D2A8D"/>
<path d="M521.675 23.995C513.665 23.945 521.355 13.975 513.665 10.515C507.225 7.62496 496.185 15.225 494.685 12.985C494.595 12.845 494.565 10.105 494.685 10.015C495.235 9.65496 503.965 7.12496 505.175 6.98496C518.515 5.54496 523.155 10.745 521.675 23.985V23.995Z" fill="#2D2A8D"/>
<path d="M392.675 77.005C393.605 77.865 391.365 79.865 390.695 80.515C387.265 83.825 380.535 87.325 379.725 92.545C379.155 96.245 380.805 100.385 377.715 103.535C376.775 104.495 374.525 105.815 373.685 104.995C372.455 103.795 376.075 100.065 376.655 98.475C378.115 94.545 376.885 90.155 378.805 86.625C380.075 84.285 390.135 74.655 392.675 77.005Z" fill="#2D2A8D"/>
<path d="M506.675 102.995C506.345 103.295 500.315 103.075 497.865 103.685C492.265 105.075 488.825 109.565 484.405 111.225C480.075 112.845 477.445 112.345 481.955 108.775C487.075 104.725 496.125 98.1849 502.965 99.1849C504.355 99.3849 507.955 101.835 506.665 102.995H506.675Z" fill="#2D2A8D"/>
<path d="M419.683 142.995C418.323 141.585 420.453 140.395 420.813 139.885C424.753 134.235 431.143 129.185 434.953 123.295C436.293 121.855 441.173 121.275 441.663 123.515C442.153 125.755 436.453 126.825 434.613 128.455C433.193 129.705 422.433 145.875 419.673 143.005L419.683 142.995Z" fill="#2D2A8D"/>
<path d="M525.673 86.005C528.643 88.935 516.203 93.865 514.083 93.965C512.113 94.055 506.073 91.045 504.343 89.835C501.713 87.995 499.733 83.905 504.013 85.165C507.833 86.285 509.973 90.295 515.163 90.075C518.143 89.945 524.583 84.925 525.673 86.005Z" fill="#2D2A8D"/>
<path d="M441.594 216.925C441.254 217.145 438.794 217.105 438.694 217.005C437.034 215.385 446.454 192.085 451.174 193.015C452.764 193.325 452.414 194.465 451.874 195.685C450.774 198.215 447.514 201.645 445.974 204.795C444.894 206.995 442.144 216.585 441.594 216.925Z" fill="#2D2A8D"/>
<path d="M535.683 204.995C535.123 204.465 535.543 201.815 537.313 201.225C539.423 200.525 546.153 201.345 549.103 200.915C551.323 200.595 558.973 196.065 559.683 199.505C560.253 202.285 550.813 204.505 548.893 204.785C547.273 205.015 536.173 205.445 535.693 204.995H535.683Z" fill="#2D2A8D"/>
<path d="M445.684 108.995C444.644 107.835 447.504 100.955 447.724 98.555C447.934 96.285 447.864 92.875 447.584 90.585C447.384 88.915 445.424 85.175 445.664 85.005C445.834 84.885 449.494 83.865 449.654 83.985C450.404 84.535 451.834 97.295 451.594 99.405C451.424 100.885 448.034 111.615 445.674 108.985L445.684 108.995Z" fill="#2D2A8D"/>
<path d="M510.673 107.005C512.883 109.295 503.113 118.785 501.053 119.875C499.323 120.795 491.263 123.185 490.683 120.485C490.033 117.485 496.673 118.155 499.053 116.875C501.693 115.465 508.553 104.805 510.673 107.005Z" fill="#2D2A8D"/>
<path d="M496.685 157.995C493.855 155.255 501.215 153.655 502.225 153.045C504.665 151.555 507.705 144.495 510.665 148.505C507.815 150.365 507.795 154.105 505.215 156.035C503.755 157.125 497.645 158.925 496.695 158.005L496.685 157.995Z" fill="#2D2A8D"/>
<path d="M439.594 87.935C439.284 88.135 436.784 88.115 436.684 88.005C435.064 86.295 440.424 72.995 445.164 74.005C449.004 74.825 442.384 80.675 441.824 81.645C440.984 83.075 439.884 87.755 439.594 87.935Z" fill="#2D2A8D"/>
<path d="M439.675 134.005C443.115 137.545 430.385 148.415 427.685 145.995C426.065 144.545 435.395 138.775 436.235 136.965C436.805 135.715 435.525 134.175 435.675 134.005C435.815 133.855 439.535 133.855 439.675 134.005Z" fill="#2D2A8D"/>
<path d="M506.333 43.165C511.803 41.475 520.543 44.735 512.343 47.165C504.343 49.545 502.373 44.385 506.333 43.165Z" fill="#2D2A8D"/>
<path d="M527.684 32.995C529.764 30.855 527.034 20.145 531.174 21.005C533.524 21.495 534.674 35.965 527.684 32.995Z" fill="#2D2A8D"/>
<path d="M501.684 164.995C499.184 162.625 506.254 159.855 507.244 159.035C508.374 158.105 509.044 153.625 511.194 156.985C513.654 160.845 503.254 166.485 501.684 164.995Z" fill="#2D2A8D"/>
<path d="M513.675 17.995C513.425 18.225 508.135 18.615 506.895 18.735C498.525 19.545 505.425 13.045 512.015 15.165C513.255 15.565 514.315 17.425 513.675 17.995Z" fill="#2D2A8D"/>
<path d="M321.673 168.005C322.623 169.045 319.783 172.795 319.343 174.235C318.953 175.505 319.803 176.935 319.683 176.995C316.043 178.915 315.913 173.895 317.193 171.015C317.613 170.065 320.873 167.125 321.673 168.005Z" fill="#2D2A8D"/>
<path d="M690.383 161.315C692.443 163.085 694.613 168.235 696.693 170.505C703.673 178.105 711.453 170.775 712.683 172.015C713.003 172.335 712.883 175.855 711.733 176.555C707.503 179.125 698.573 177.635 694.763 174.445C692.203 172.295 688.103 163.545 687.553 163.165C686.753 162.605 682.553 163.345 679.953 162.255C673.183 159.415 671.533 151.685 668.903 146.305C668.173 144.815 665.433 142.875 665.693 141.525C666.193 138.925 669.793 141.355 670.733 142.475C674.063 146.455 673.383 153.105 678.733 156.475C681.923 158.485 687.453 158.795 690.393 161.325L690.383 161.315Z" fill="#2D2A8D"/>
<path d="M732.674 157.005C732.144 157.615 730.174 156.575 729.804 155.345C729.144 153.175 730.564 151.015 730.454 148.765C730.214 144.025 726.604 141.445 725.894 138.305C724.344 131.495 726.884 124.975 722.894 117.305C718.714 109.265 706.284 108.815 705.694 108.005C705.104 107.195 706.244 105.405 707.344 105.115C708.324 104.855 718.554 107.525 719.974 108.235C724.414 110.445 727.394 117.135 728.454 121.755C729.564 126.595 728.944 132.935 729.904 137.305C730.454 139.835 733.134 141.425 733.644 144.555C733.924 146.275 733.304 156.295 732.694 157.005H732.674Z" fill="#2D2A8D"/>
<path d="M734.684 172.005C734.564 172.305 729.894 176.255 729.694 176.005C726.804 172.405 737.544 165.165 734.684 172.005C736.714 167.025 737.494 163.975 739.174 158.995C740.734 154.395 742.484 153.195 742.194 158.995C741.884 165.155 740.554 175.315 734.194 177.985L734.684 171.985V172.005Z" fill="#2D2A8D"/>
<path d="M642.674 151.005L638.694 147.005C639.214 151.365 635.444 155.875 634.634 149.535C634.484 148.325 635.104 145.665 634.594 145.095C633.254 143.575 628.884 145.225 628.694 145.005C627.064 143.205 631.044 140.195 633.004 140.215C638.174 140.265 642.814 145.905 642.674 151.005Z" fill="#2D2A8D"/>
<path d="M649.674 141.995C648.784 142.825 641.374 137.645 638.944 137.225C635.864 136.695 633.264 137.925 632.134 137.785C630.724 137.595 630.204 134.485 630.684 134.005C631.084 133.615 640.034 134.015 641.714 134.465C643.394 134.915 651.384 140.395 649.674 141.995Z" fill="#2D2A8D"/>
<path d="M666.673 151.995C667.423 152.885 664.653 158.075 671.163 163.015C671.853 163.535 678.413 165.945 674.153 166.995C670.813 167.825 665.653 163.625 664.433 160.745C663.763 159.165 663.113 152.685 663.683 151.995C663.783 151.875 666.583 151.885 666.673 151.995Z" fill="#2D2A8D"/>
<path d="M678.675 170.005C679.265 170.605 678.575 172.625 677.675 173.495C671.925 179.115 661.025 169.785 663.685 167.005C664.515 166.145 669.945 171.515 672.335 171.745C674.135 171.925 678.025 169.335 678.675 170.005Z" fill="#2D2A8D"/>
<path d="M674.674 816.995C675.624 818.145 673.954 830.675 674.044 833.325C674.164 836.905 678.034 851.355 676.664 853.005C676.554 853.135 673.884 851.965 673.664 851.285C674.214 845.975 670.224 840.165 670.014 835.355C669.934 833.495 671.124 817.735 671.674 816.995C671.764 816.875 674.574 816.885 674.664 816.995H674.674Z" fill="#2D2A8D"/>
</g>
<path d="M834.04 514.75C821.34 514.75 810.99 512.05 802.99 506.65C794.99 501.05 790.99 494.05 790.99 485.65C790.99 479.35 793.09 474.1 797.29 469.9C801.49 465.7 806.54 463.6 812.44 463.6C816.04 463.6 819.24 464.4 822.04 466C824.94 467.5 826.39 468.95 826.39 470.35C826.39 470.85 826.14 471.1 825.64 471.1C825.44 471.1 824.14 470.8 821.74 470.2C819.64 469.5 817.39 469.15 814.99 469.15C809.99 469.15 805.89 470.65 802.69 473.65C799.59 476.55 798.04 480.3 798.04 484.9C798.04 491.6 801.44 497.05 808.24 501.25C815.04 505.35 823.64 507.4 834.04 507.4C845.14 507.4 853.99 505 860.59 500.2C867.29 495.4 870.64 489.55 870.64 482.65C870.64 478.35 869.24 474.65 866.44 471.55C863.64 468.45 859.99 466 855.49 464.2C850.99 462.3 846.04 460.6 840.64 459.1C835.24 457.6 829.79 456.05 824.29 454.45C818.89 452.85 813.94 451.05 809.44 449.05C804.94 446.95 801.29 444.15 798.49 440.65C795.69 437.05 794.29 432.85 794.29 428.05C794.29 420.15 797.74 413.85 804.64 409.15C811.64 404.55 820.59 402.25 831.49 402.25C841.29 402.25 849.49 403.95 856.09 407.35C863.29 410.65 867.14 412.3 867.64 412.3C868.54 412.3 869.29 411.85 869.89 410.95H870.49V425.05H869.89C866.49 420.75 861.24 417.1 854.14 414.1C847.04 411.1 839.49 409.6 831.49 409.6C823.09 409.6 816.09 411.2 810.49 414.4C804.89 417.6 802.09 422 802.09 427.6C802.09 432.7 804.69 436.9 809.89 440.2C815.39 443.5 821.74 446.1 828.94 448C836.44 450 843.94 452.1 851.44 454.3C858.74 456.5 865.09 460 870.49 464.8C875.79 469.5 878.44 475.35 878.44 482.35C878.44 491.75 874.39 499.5 866.29 505.6C858.29 511.7 847.54 514.75 834.04 514.75Z" fill="#FFF6EF"/>
<path d="M765.514 500.8H766.264L764.764 511H685.414V510.4C687.414 509 688.414 507.3 688.414 505.3V411.7C688.414 409.7 687.414 408 685.414 406.6V406H760.564L762.064 416.2H761.164C760.264 414.3 758.564 413.35 756.064 413.35H696.214V445.6H748.714C750.714 445.6 752.414 444.7 753.814 442.9H754.414V455.65H753.814C752.414 453.85 750.714 452.95 748.714 452.95H696.214V503.65H760.414C762.914 503.65 764.614 502.7 765.514 500.8Z" fill="#FFF6EF"/>
<path d="M613.83 514.75C598.03 514.75 584.83 509.45 574.23 498.85C563.63 488.25 558.33 474.85 558.33 458.65C558.33 442.75 563.53 429.35 573.93 418.45C584.33 407.65 597.48 402.25 613.38 402.25C618.58 402.15 624.03 402.95 629.73 404.65C635.43 406.35 640.03 408.05 643.53 409.75C647.13 411.45 649.03 412.3 649.23 412.3C650.13 412.3 650.88 411.85 651.48 410.95H652.08V425.05H651.48C640.88 414.75 628.18 409.6 613.38 409.6C599.48 409.6 588.08 414.2 579.18 423.4C570.48 432.5 566.13 444.3 566.13 458.8C566.13 473 570.53 484.65 579.33 493.75C588.13 502.85 599.78 507.4 614.28 507.4C620.08 507.4 625.78 506.55 631.38 504.85C637.08 503.05 641.73 500.95 645.33 498.55C653.83 492.55 658.28 489.55 658.68 489.55C659.18 489.55 659.43 489.8 659.43 490.3C659.43 492.5 656.83 495.9 651.63 500.5C647.43 504.4 642.03 507.8 635.43 510.7C628.93 513.5 621.73 514.85 613.83 514.75Z" fill="#FFF6EF"/>
<path d="M500.922 411.4L535.572 505.6C536.272 507.7 537.772 509.3 540.072 510.4V511H526.422V510.4C528.322 509.5 528.822 507.9 527.922 505.6L515.022 470.5H465.972L459.972 486.85C459.072 489.15 459.572 490.75 461.472 491.65V492.25H447.822V491.65C450.122 490.55 451.622 488.95 452.322 486.85L480.072 411.4C480.972 409.1 480.472 407.5 478.572 406.6V406H502.422V406.6C500.622 407.6 500.122 409.2 500.922 411.4ZM486.972 413.35L468.672 463.15H512.322L494.022 413.35H486.972Z" fill="#FFF6EF"/>
<path d="M453.22 501.4C454.02 501.4 454.42 501.85 454.42 502.75C454.42 504.65 452.77 506.9 449.47 509.5C446.37 512 442.42 513.25 437.62 513.25C432.92 513.25 428.37 511.8 423.97 508.9C419.57 506 415.57 502.5 411.97 498.4C408.47 494.3 404.92 490.2 401.32 486.1C397.72 481.9 393.57 478.35 388.87 475.45C384.27 472.55 379.47 471.1 374.47 471.1H343.72V505.3C343.72 507.3 344.72 509 346.72 510.4V511H332.92V510.4C334.92 509 335.92 507.3 335.92 505.3V411.7C335.92 409.7 334.92 408 332.92 406.6V406H380.77C392.27 406 401.87 409.1 409.57 415.3C417.27 421.5 421.12 429.3 421.12 438.7C421.12 446 418.47 452.55 413.17 458.35C407.87 464.15 401.12 468 392.92 469.9C398.82 473 405.17 478.75 411.97 487.15C415.37 491.25 418.22 494.55 420.52 497.05C422.82 499.45 425.72 501.75 429.22 503.95C432.72 506.05 436.07 507.1 439.27 507.1C442.27 507.1 445.32 506.15 448.42 504.25C451.52 502.35 453.12 501.4 453.22 501.4ZM343.72 413.35V463.75H380.77C390.17 463.75 397.97 461.4 404.17 456.7C410.37 452 413.47 446 413.47 438.7C413.47 431.4 410.32 425.35 404.02 420.55C397.72 415.75 389.82 413.35 380.32 413.35H343.72Z" fill="#FFF6EF"/>
<path d="M302.642 460.45V461.05C300.642 462.45 299.642 464.15 299.642 466.15V495.25C299.642 496.95 300.342 498.2 301.742 499V499.6C297.842 504.3 292.492 508 285.692 510.7C278.892 513.4 271.242 514.75 262.742 514.75C245.342 514.75 231.142 509.6 220.142 499.3C209.042 488.9 203.492 475.4 203.492 458.8C203.492 442.4 208.792 428.9 219.392 418.3C230.092 407.6 243.392 402.25 259.292 402.25C264.492 402.15 269.892 402.95 275.492 404.65C281.192 406.35 285.742 408.05 289.142 409.75C292.642 411.45 294.542 412.3 294.842 412.3C295.742 412.3 296.492 411.85 297.092 410.95H297.692V425.05H297.092C292.692 420.35 287.142 416.6 280.442 413.8C273.842 411 266.792 409.6 259.292 409.6C245.392 409.6 233.892 414.15 224.792 423.25C215.792 432.35 211.292 444.1 211.292 458.5C211.292 473.1 215.942 484.9 225.242 493.9C234.742 502.9 247.242 507.4 262.742 507.4C275.142 507.4 284.892 504.45 291.992 498.55V466.15C291.992 464.15 290.992 462.45 288.992 461.05V460.45H302.642Z" fill="#FFF6EF"/>
<path d="M673.515 311.698L666.464 284.381L659.334 298.122C658.413 299.897 658.017 301.269 658.146 302.237C658.274 303.205 658.533 303.835 658.922 304.127L650.721 299.871C651.184 300.021 651.856 299.897 652.739 299.499C653.64 299.065 654.56 297.943 655.5 296.132L669.4 269.344C670.339 267.533 670.735 266.161 670.588 265.229C670.441 264.296 670.156 263.63 669.733 263.23L677.934 267.486C677.471 267.336 676.807 267.487 675.942 267.939C675.095 268.355 674.192 269.487 673.234 271.333L666.547 284.222L685.69 278.202C688.764 277.228 690.495 276.369 690.882 275.623C691.213 274.984 691.158 274.482 690.716 274.118L699.078 278.456C698.473 278.232 697.365 278.153 695.754 278.219C694.196 278.267 691.962 278.752 689.05 279.675L670.985 285.308L676.86 306.945C677.517 309.674 678.123 311.633 678.677 312.822C679.286 313.994 679.749 314.753 680.066 315.097L673.515 311.698Z" fill="white"/>
<path d="M634.173 271.258C635.908 271.87 637.557 272.006 639.119 271.667C640.694 271.289 642.029 270.572 643.123 269.516C644.267 268.436 645.093 267.179 645.598 265.745C646.118 264.274 646.283 262.784 646.094 261.275C645.956 259.742 645.393 258.334 644.403 257.052C643.413 255.77 641.994 254.802 640.146 254.15L635.337 252.453L624.236 283.912C623.704 285.421 623.486 286.638 623.584 287.563C623.695 288.451 623.93 289.106 624.29 289.53C624.663 289.916 624.862 290.071 624.889 289.996L615.892 286.822C615.866 286.897 616.125 286.883 616.671 286.778C617.217 286.674 617.793 286.304 618.399 285.67C619.042 285.049 619.63 283.983 620.162 282.475L630.145 254.184C630.69 252.638 630.914 251.402 630.817 250.476C630.77 249.527 630.567 248.84 630.208 248.416C629.861 247.955 629.668 247.781 629.628 247.894L640.831 251.847C643.774 252.885 646.015 254.227 647.555 255.874C649.146 257.495 650.083 259.226 650.367 261.065C650.703 262.88 650.551 264.693 649.912 266.504C649.379 268.013 648.495 269.376 647.26 270.594C646.037 271.775 644.554 272.672 642.81 273.287C641.117 273.877 639.311 274.067 637.392 273.857L636.427 273.707L641.913 289.895C642.714 291.832 643.408 293.349 643.996 294.448C644.584 295.546 645.02 296.294 645.305 296.691C645.626 297.101 645.818 297.339 645.88 297.403L639.26 295.067L630.778 270.06L634.173 271.258Z" fill="white"/>
<path d="M570.189 257.262C570.942 253.089 572.498 249.529 574.859 246.581C577.259 243.641 580.237 241.556 583.791 240.328C587.385 239.106 591.308 238.879 595.559 239.646C599.102 240.285 602.267 241.669 605.053 243.798C607.886 245.894 609.947 248.664 611.236 252.107C612.565 255.558 612.835 259.468 612.046 263.837C611.294 268.01 609.717 271.567 607.317 274.507C604.956 277.455 601.979 279.539 598.385 280.761C594.83 281.989 590.927 282.22 586.676 281.453C583.133 280.814 579.945 279.446 577.112 277.35C574.326 275.222 572.269 272.432 570.94 268.981C569.651 265.538 569.401 261.631 570.189 257.262ZM607.163 263.871C607.809 260.289 607.643 256.926 606.666 253.782C605.735 250.607 604.116 247.978 601.809 245.895C599.549 243.78 596.805 242.431 593.577 241.849C590.624 241.316 587.852 241.589 585.26 242.666C582.707 243.749 580.532 245.552 578.736 248.073C576.947 250.555 575.726 253.607 575.072 257.228C574.426 260.81 574.569 264.189 575.5 267.365C576.477 270.509 578.096 273.138 580.356 275.253C582.663 277.335 585.431 278.668 588.659 279.25C591.611 279.783 594.364 279.507 596.917 278.423C599.509 277.346 601.7 275.567 603.489 273.085C605.285 270.564 606.51 267.492 607.163 263.871Z" fill="white"/>
<path d="M565.104 235.18C564.702 235.251 564.052 235.677 563.155 236.457C562.258 237.238 561.166 238.694 559.879 240.827L549.11 258.415L548.845 270.532C548.8 272.571 549.049 273.997 549.591 274.809C550.134 275.621 550.644 276.073 551.122 276.163L542.004 275.963C542.486 275.894 543.015 275.485 543.591 274.738C544.169 273.95 544.48 272.517 544.526 270.437L544.793 258.26L534.926 240.22C533.772 238.114 532.763 236.671 531.9 235.892C531.038 235.073 530.348 234.578 529.832 234.407L539.91 234.627C538.905 234.805 538.392 235.434 538.368 236.514C538.36 236.874 538.47 237.317 538.699 237.842C538.928 238.327 539.293 239.035 539.793 239.966L548.155 255.453L557.183 240.587C557.888 239.483 558.252 238.35 558.278 237.191C558.295 236.431 558.066 235.906 557.592 235.615C557.159 235.286 556.724 235.076 556.286 234.986L565.104 235.18Z" fill="white"/>
<path d="M499.711 243.677C499.887 242.169 499.892 241.024 499.729 240.24C499.394 238.635 498.509 237.921 497.075 238.098L506.178 236.196C505.615 236.436 504.946 237.046 504.17 238.026C503.433 238.997 502.91 240.7 502.601 243.134L497.412 281.67L479.279 251.5L474.389 286.479L455.285 252.835C453.58 249.759 451.691 248.151 449.619 248.012L459.369 245.975C458.313 246.4 457.9 247.16 458.129 248.257C458.244 248.805 458.683 249.735 459.447 251.046L460.523 252.967L473.039 275.912L478.165 240.884L496.248 270.818L499.711 243.677Z" fill="white"/>
<path d="M432.948 298.156C432.991 298.268 433.186 298.106 433.531 297.671C433.862 297.198 434.035 296.487 434.051 295.536C434.089 294.534 433.795 293.231 433.17 291.629L422.46 264.185C421.863 262.657 421.226 261.575 420.548 260.937C419.893 260.249 419.284 259.842 418.72 259.719C418.157 259.595 417.897 259.589 417.94 259.701L438.174 251.805L440.355 257.394C438.812 255.42 436.364 255.087 433.01 256.396L425.241 259.428L431.436 275.302L441.049 271.55C441.795 271.259 442.385 270.9 442.819 270.473C443.239 270.009 443.528 269.595 443.687 269.233C443.846 268.87 443.93 268.644 443.938 268.555L446.054 273.977C445.988 273.917 445.773 273.807 445.411 273.648C445.048 273.489 444.562 273.4 443.953 273.38C443.382 273.345 442.723 273.473 441.978 273.764L432.308 277.538L438.503 293.412L447.223 290.009C448.9 289.355 450.203 288.459 451.134 287.323C452.087 286.135 452.614 284.899 452.714 283.615L454.02 289.933L432.948 298.156Z" fill="white"/>
<path d="M404.203 266.159C403.775 266.539 403.515 267.215 403.422 268.187C403.344 269.105 403.788 270.416 404.754 272.122L423.238 304.75L378.853 288.726L393.02 313.732C393.966 315.402 394.932 316.418 395.918 316.779C396.885 317.105 397.676 317.163 398.292 316.951L390.931 321.122C391.359 320.741 391.629 320.082 391.742 319.145C391.87 318.153 391.45 316.805 390.484 315.099L375.697 288.997C375.027 287.814 374.015 286.961 372.663 286.44C371.31 285.919 369.956 285.882 368.6 286.329L375.073 282.661L415.734 297.347L402.248 273.541C400.73 270.861 398.928 269.791 396.842 270.329L404.203 266.159Z" fill="white"/>
<path d="M644.621 632.7C647.57 631.263 650.178 630.34 652.444 629.932C655.46 629.406 658.139 629.708 660.481 630.837C662.823 631.967 664.61 633.721 665.842 636.101C667.259 638.836 667.747 641.692 667.306 644.668C666.847 647.608 665.599 650.372 663.56 652.96C661.522 655.547 658.922 657.659 655.761 659.297L655.175 659.6L653.112 657.966L653.645 657.69C658.227 655.317 661.38 652.49 663.104 649.209C664.829 645.928 664.789 642.548 662.986 639.067C661.533 636.261 659.362 634.548 656.473 633.927C653.6 633.252 650.016 634.028 645.718 636.254L643.267 637.523L639.246 620.889L648.463 616.115C651.376 614.606 652.977 613.394 653.268 612.477L654.438 617.345L642.344 623.609L644.621 632.7Z" fill="white"/>
<path d="M623.062 665.933C624.795 660.853 626.023 657.189 626.745 654.941C627.49 652.641 628.016 650.553 628.324 648.678C628.664 646.662 628.752 644.828 628.589 643.177C628.449 641.474 628.077 639.838 627.475 638.27C626.829 636.59 625.941 635.281 624.81 634.345C623.664 633.371 622.41 632.781 621.046 632.577C619.719 632.358 618.421 632.493 617.151 632.98C614.799 633.884 613.225 635.475 612.428 637.752C611.669 640.014 611.792 642.453 612.796 645.066C611.765 644.391 610.956 643.288 610.367 641.757C609.822 640.338 609.646 638.82 609.839 637.203C610.07 635.572 610.755 634.066 611.896 632.685C613.022 631.267 614.612 630.164 616.666 629.375C618.57 628.643 620.479 628.424 622.391 628.718C624.341 628.997 626.098 629.779 627.663 631.063C629.265 632.333 630.482 634.051 631.314 636.217C632.662 639.727 632.661 643.905 631.309 648.752C630.072 653.341 628.306 658.669 626.009 664.736L625.06 667.286L636.43 662.918C638.372 662.172 639.72 661.333 640.476 660.4C641.217 659.429 641.648 658.599 641.769 657.91L642.986 664.256L620.694 672.82L623.062 665.933Z" fill="white"/>
<path d="M581.961 662.195C580.923 657.837 580.536 653.879 580.799 650.321C581.052 646.725 581.88 643.813 583.283 641.588C584.725 639.353 586.613 637.958 588.947 637.402C591.243 636.855 593.491 637.142 595.69 638.263C597.89 639.384 599.867 641.298 601.622 644.006C603.377 646.713 604.741 650.109 605.714 654.195C606.751 658.553 607.143 662.53 606.89 666.127C606.627 669.685 605.774 672.581 604.333 674.816C602.93 677.041 601.062 678.432 598.727 678.988C596.431 679.534 594.183 679.247 591.984 678.126C589.784 677.005 587.807 675.091 586.052 672.384C584.298 669.677 582.934 666.281 581.961 662.195ZM602.192 658.056C601.173 653.775 599.928 650.186 598.456 647.288C596.985 644.39 595.422 642.316 593.767 641.065C592.103 639.776 590.469 639.301 588.864 639.642C587.424 639.985 586.307 640.991 585.512 642.661C584.717 644.33 584.314 646.523 584.303 649.24C584.283 651.917 584.676 654.949 585.482 658.334C586.501 662.614 587.747 666.204 589.218 669.102C590.689 672 592.257 674.093 593.921 675.383C595.585 676.673 597.215 677.127 598.81 676.748C600.25 676.405 601.367 675.399 602.162 673.729C602.957 672.059 603.365 669.886 603.385 667.208C603.396 664.492 602.998 661.441 602.192 658.056Z" fill="white"/>
<path d="M554.582 679.118C557.598 674.677 559.751 671.469 561.041 669.491C562.368 667.47 563.427 665.596 564.22 663.869C565.081 662.015 565.651 660.27 565.931 658.634C566.246 656.954 566.321 655.279 566.154 653.607C565.976 651.816 565.466 650.319 564.622 649.117C563.775 647.874 562.721 646.974 561.46 646.416C560.238 645.855 558.951 645.641 557.597 645.776C555.09 646.025 553.151 647.142 551.78 649.128C550.45 651.109 549.923 653.493 550.2 656.279C549.385 655.355 548.896 654.077 548.734 652.445C548.583 650.933 548.815 649.423 549.429 647.914C550.082 646.402 551.142 645.131 552.607 644.101C554.068 643.031 555.894 642.387 558.083 642.17C560.113 641.968 562.011 642.261 563.778 643.05C565.585 643.836 567.072 645.054 568.242 646.707C569.451 648.355 570.17 650.334 570.4 652.642C570.772 656.384 569.665 660.413 567.08 664.73C564.673 668.828 561.56 673.499 557.741 678.743L556.151 680.951L568.272 679.746C570.341 679.54 571.864 679.087 572.84 678.387C573.811 677.647 574.446 676.961 574.745 676.328L574.24 682.77L550.477 685.133L554.582 679.118Z" fill="white"/>
<path d="M514.035 684.562C513.238 684.493 512.543 684.172 511.95 683.599C511.4 682.99 511.166 682.207 511.248 681.251C511.331 680.294 511.693 679.583 512.336 679.116C512.978 678.649 513.717 678.452 514.554 678.524C515.391 678.596 516.086 678.917 516.64 679.486C517.193 680.056 517.428 680.819 517.346 681.775C517.264 682.732 516.88 683.462 516.194 683.965C515.552 684.431 514.832 684.63 514.035 684.562Z" fill="white"/>
<path d="M487.751 640.046C486.023 639.709 484.525 639.763 483.257 640.208C481.988 640.653 480.999 641.336 480.289 642.258L482.263 636.53L510.176 641.977L509.851 648.027C509.54 646.907 508.88 645.902 507.872 645.012C506.864 644.122 505.496 643.509 503.769 643.172L497.88 642.023L491.501 674.706C491.195 676.276 491.157 677.512 491.389 678.413C491.621 679.314 491.945 679.948 492.363 680.315C492.78 680.682 493.001 680.806 493.024 680.688L483.66 678.861C483.637 678.979 483.888 678.946 484.413 678.763C484.938 678.581 485.453 678.131 485.96 677.415C486.513 676.667 486.947 675.488 487.261 673.879L493.64 641.195L487.751 640.046Z" fill="white"/>
<path d="M451.311 670.34C449.342 669.667 447.54 668.756 445.904 667.605C444.281 666.417 442.919 665.085 441.816 663.609L444.163 656.739C444.281 659.611 445.117 662.053 446.67 664.063C448.275 666.048 450.175 667.416 452.37 668.166C454.566 668.915 456.647 668.823 458.615 667.889C460.595 666.917 461.954 665.353 462.691 663.195C463.182 661.757 463.3 660.423 463.043 659.194C462.825 657.978 462.221 656.715 461.231 655.405C460.254 654.057 458.78 652.433 456.808 650.534C454.032 647.895 452.165 645.503 451.207 643.358C450.3 641.188 450.247 638.93 451.049 636.583C451.734 634.577 452.815 632.959 454.291 631.73C455.818 630.477 457.538 629.712 459.45 629.435C461.413 629.133 463.379 629.318 465.347 629.991C467.05 630.573 468.632 631.388 470.091 632.436C471.564 633.446 472.852 634.626 473.955 635.975L471.86 642.107C471.663 639.714 470.831 637.634 469.364 635.865C467.948 634.071 466.293 632.85 464.401 632.204C462.243 631.467 460.263 631.572 458.46 632.52C456.656 633.468 455.425 634.907 454.766 636.838C454.287 638.239 454.271 639.586 454.717 640.879C455.175 642.135 455.856 643.297 456.759 644.367C457.7 645.449 459.043 646.837 460.789 648.533C462.559 650.279 463.977 651.82 465.042 653.156C466.108 654.492 466.855 656.016 467.285 657.727C467.715 659.437 467.588 661.296 466.903 663.302C466.127 665.573 464.906 667.354 463.239 668.645C461.61 669.948 459.732 670.744 457.605 671.032C455.528 671.294 453.43 671.064 451.311 670.34Z" fill="white"/>
<path d="M407.283 649.856C407.229 649.963 407.479 649.999 408.034 649.964C408.606 649.894 409.251 649.546 409.968 648.922C410.738 648.279 411.51 647.19 412.282 645.653L425.51 619.33C426.246 617.864 426.624 616.667 426.644 615.736C426.718 614.788 426.612 614.064 426.327 613.562C426.041 613.061 425.872 612.864 425.818 612.971L445.225 622.724L442.531 628.085C442.966 625.617 441.574 623.575 438.358 621.958L430.906 618.214L423.254 633.439L432.476 638.073C433.19 638.432 433.852 638.63 434.46 638.667C435.086 638.669 435.587 638.607 435.963 638.483C436.339 638.358 436.563 638.269 436.634 638.216L434.021 643.416C434.021 643.327 433.959 643.094 433.835 642.718C433.71 642.342 433.452 641.921 433.059 641.455C432.702 641.007 432.166 640.604 431.452 640.245L422.177 635.584L414.525 650.809L422.889 655.012C424.497 655.82 426.035 656.19 427.502 656.122C429.023 656.035 430.294 655.6 431.315 654.814L427.494 660.012L407.283 649.856Z" fill="white"/>
</g>
<defs>
<clipPath id="clip0_19_919">
<rect width="1080" height="920" fill="white"/>
</clipPath>
<clipPath id="clip1_19_919">
<rect width="593.17" height="925.57" fill="white" transform="translate(243.414 0.214966)"/>
</clipPath>
</defs>
</svg>
