<svg width="1080" height="1080" viewBox="0 0 1080 1080" fill="none" xmlns="http://www.w3.org/2000/svg">
<g clip-path="url(#clip0_19_919)">
<path d="M539.654 114.995C539.534 115.155 535.824 115.145 535.684 114.995C534.604 113.875 537.384 107.455 537.234 104.975C537.114 102.915 532.764 92.845 531.664 91.995C529.464 90.305 528.864 96.625 526.694 94.985C526.454 94.805 525.644 90.625 524.884 89.285C517.564 76.375 504.194 78.755 493.744 86.555C492.154 87.745 483.714 96.445 483.704 97.495C483.674 99.935 492.864 98.165 495.154 98.255C502.314 98.555 516.354 99.805 522.054 104.115C522.914 104.765 525.024 107.685 524.684 107.975C523.984 108.575 516.534 104.975 514.714 104.455C502.664 101.045 474.404 99.105 465.684 109.485C460.164 116.055 466.624 111.215 469.434 110.235C482.594 105.675 494.624 106.775 508.024 109.135C509.114 109.355 510.854 112.825 510.674 112.975C509.914 113.595 494.104 111.035 491.214 110.945C485.704 110.765 480.154 111.065 474.864 112.685C472.994 113.255 462.744 117.655 461.604 118.495C460.464 119.335 462.564 122.495 459.044 123.875C455.524 125.255 457.134 121.625 456.664 120.985C455.874 119.905 448.124 125.895 447.124 126.945C445.514 128.635 438.664 139.805 439.674 140.985C440.014 141.375 447.424 135.005 448.164 135.005C448.554 135.005 449.874 136.495 449.654 137.475C449.124 139.885 438.244 146.175 436.424 150.255C434.754 153.995 434.044 162.075 435.124 166.025C435.824 168.575 438.444 171.075 439.534 173.615C442.664 180.875 444.254 188.905 448.824 195.325C463.174 215.435 480.824 237.075 504.294 246.855C512.604 250.315 517.124 250.985 525.644 247.495C537.474 242.635 545.344 228.275 548.594 216.445C549.004 214.965 551.034 206.375 550.644 206.005C550.114 205.505 542.364 207.095 540.574 204.335C536.894 198.655 543.524 197.125 543.654 196.485C544.144 194.065 541.334 195.285 540.714 193.395C540.014 191.235 544.654 182.215 546.204 180.065C548.814 176.445 562.234 167.625 561.504 163.645C560.974 160.755 556.084 160.415 553.654 161.525C553.204 161.735 546.414 167.595 546.164 168.025C545.334 169.405 545.754 171.485 545.184 173.045C543.554 177.505 535.104 181.545 530.404 180.815C521.764 179.475 521.774 169.465 528.154 168.015C534.654 166.535 526.414 174.145 527.644 175.995C527.974 176.495 532.824 177.145 534.054 176.995C537.144 176.615 542.734 170.885 542.614 168.495C542.514 166.595 538.214 168.325 535.904 167.255C526.514 162.915 540.304 164.895 540.914 164.815C550.454 163.465 556.984 144.375 551.384 138.255C546.504 132.935 547.934 141.495 547.524 144.385C547.224 146.465 545.384 156.475 544.724 157.415C544.064 158.355 541.754 158.115 541.644 157.995C540.744 157.025 544.174 145.745 544.524 143.385C544.874 141.025 544.244 138.435 544.574 136.535C544.794 135.265 547.794 136.625 547.634 135.505C546.784 129.855 531.704 115.695 526.054 115.015C523.014 114.655 516.724 117.875 515.654 115.485C514.884 113.775 519.584 112.625 520.584 112.445C531.154 110.535 543.834 121.095 550.054 129.085C552.624 132.375 556.334 141.235 558.364 143.045C562.584 146.825 572.264 146.155 577.994 149.155C580.764 150.605 588.934 155.265 591.144 157.005C598.164 162.525 600.564 174.055 599.654 182.515C599.424 184.595 593.794 205.895 593.094 206.955C592.624 207.665 581.844 215.935 581.094 216.045C571.704 217.445 578.284 205.765 576.634 204.015C576.144 203.495 568.204 207.215 567.734 208.675C567.014 210.965 572.484 225.275 574.104 228.035C577.394 233.625 584.584 239.325 590.654 241.485C592.524 242.145 602.574 244.565 603.514 243.895C604.074 243.495 605.834 237.205 606.774 235.655C608.204 233.305 610.954 231.675 612.604 229.485C623.684 214.895 626.934 180.465 643.104 171.985C645.654 170.645 649.014 170.475 650.584 169.465C652.574 168.195 655.424 161.275 658.864 158.745C666.024 153.495 671.144 155.175 678.324 158.815C680.214 159.775 681.674 161.965 683.574 162.565C686.874 163.615 690.364 162.435 693.684 163.455C696.034 164.185 698.584 167.265 700.924 168.215C704.914 169.845 709.354 170.065 713.864 172.275C721.334 175.945 728.814 184.795 733.474 191.665C735.214 194.225 740.274 205.245 740.894 205.745C741.654 206.355 743.674 206.325 744.974 207.145C756.554 214.455 762.184 224.145 758.364 238.205C757.404 241.745 752.374 250.075 752.614 252.455C752.854 254.835 757.754 258.415 758.444 260.695C759.534 264.325 757.754 267.535 757.964 270.365C758.194 273.625 762.944 279.195 755.664 278.985C757.694 275.275 753.714 272.185 753.584 268.485C753.494 265.845 755.264 263.345 754.504 260.715C754.364 260.215 748.094 252.705 747.674 252.995C747.534 253.095 747.234 254.865 746.204 256.035C742.124 260.665 734.654 263.565 732.874 267.705C731.094 271.845 728.714 280.815 730.114 285.055C730.614 286.575 732.254 287.545 732.624 289.535C733.464 293.975 732.964 296.945 729.124 293.035C725.394 289.235 725.544 278.985 726.654 274.005C720.284 272.835 721.874 275.805 719.704 278.545C718.904 279.545 715.684 280.805 715.684 281.505C715.684 282.455 722.284 285.285 723.194 286.975C724.024 288.505 722.794 290.005 722.164 289.985C721.734 289.975 716.794 285.625 715.364 284.805C711.154 282.415 703.114 278.545 698.434 279.195C689.514 280.425 679.924 291.075 672.594 296.415C662.234 303.955 650.894 310.615 641.204 319.025C608.994 346.945 581.564 382.485 542.984 402.805C535.714 406.635 531.454 403.115 524.324 399.865C500.954 389.225 461.264 363.955 443.144 346.075C432.594 335.655 424.294 322.855 412.014 314.175C410.044 312.785 403.804 309.945 403.114 309.025C402.864 308.695 403.574 306.115 403.684 306.005C407.704 302.325 441.424 337.015 444.294 341.895L453.684 349.995C447.294 334.115 443.404 316.505 436.224 300.965C435.154 298.645 432.654 296.395 431.914 294.275C431.494 293.055 430.824 290.505 433.174 291.015C440.244 298.005 443.284 309.145 446.704 318.485C449.744 326.785 452.484 335.435 454.694 343.995L456.684 335.495C456.824 333.925 456.414 328.325 456.684 327.995C456.784 327.885 459.584 327.875 459.674 327.995C461.214 329.855 457.154 351.575 458.894 355.795C475.154 366.345 491.114 377.605 508.004 387.175C512.334 389.625 535.004 402.135 538.024 401.805C538.954 401.705 548.064 396.875 546.284 394.965C539.714 386.425 534.434 376.755 528.074 368.115C526.004 365.315 517.464 353.985 515.164 353.015C512.424 351.865 513.884 359.115 514.144 360.045C515.004 363.135 521.364 371.655 523.704 374.485C524.294 375.205 533.414 381.915 528.164 383.005C526.594 383.335 523.114 378.655 521.614 377.575C515.054 372.855 501.284 367.355 493.214 366.975C492.054 366.915 485.504 366.415 487.674 369.005C488.554 370.055 508.434 376.075 513.004 379.185C514.144 379.965 520.904 385.875 519.664 387.015C517.914 388.625 510.184 381.575 507.884 380.305C503.794 378.045 482.014 371.345 481.874 368.545C481.624 363.715 493.874 363.665 497.184 364.015C500.224 364.335 514.014 369.645 514.664 369.015C515.674 368.045 506.124 358.165 511.094 351.945C511.904 350.935 514.744 348.915 516.024 349.165C521.104 350.155 544.854 386.175 549.414 392.755C549.914 393.475 549.144 394.495 551.044 393.915C566.094 383.215 581.064 372.025 594.684 359.535C607.844 347.455 619.544 333.645 632.654 321.505C634.844 319.475 646.724 310.995 646.244 308.985C645.874 307.435 641.884 296.945 641.154 296.025C638.104 292.225 628.934 294.025 624.674 291.015C626.594 295.975 619.864 310.305 615.044 310.755C613.754 310.875 611.464 309.535 610.734 310.055C610.344 310.325 610.234 314.195 608.024 314.905C601.424 317.045 602.914 305.175 601.574 304.095C600.864 303.525 598.084 304.385 597.664 304.005C597.204 303.585 597.264 295.145 593.694 292.455C591.404 290.735 591.074 296.965 586.254 290.915C582.484 286.175 578.914 277.105 581.424 271.255C584.264 264.645 599.334 254.305 604.654 248.505C599.274 245.775 593.364 246.025 587.414 243.765C577.594 240.035 572.824 233.795 568.814 224.365C567.804 221.995 564.864 210.035 564.104 209.965C563.524 209.915 553.134 211.645 552.744 212.065C552.434 212.395 552.764 215.025 552.434 216.235C548.134 232.205 537.444 251.095 519.164 252.995C517.364 253.185 510.014 252.675 509.674 253.005C509.104 253.555 511.574 260.665 512.154 262.015C512.944 263.825 517.434 268.215 515.664 269.995C515.524 270.135 512.104 270.155 511.784 269.885C511.544 269.685 511.444 267.365 510.894 266.315C507.944 260.785 507.924 257.805 505.914 253.265C504.684 250.485 484.924 238.985 480.754 236.425C479.154 235.445 474.634 231.325 473.684 232.005C473.514 232.125 473.134 234.635 472.134 235.955C470.164 238.545 462.684 244.515 462.944 247.325C463.204 250.135 465.214 251.445 464.494 255.255C463.424 260.925 453.394 268.645 447.954 269.785C443.494 270.715 433.594 268.585 430.584 272.415C429.554 273.725 427.404 285.135 426.394 288.225C425.384 291.315 420.034 306.605 418.694 307.575C417.824 308.195 416.934 306.655 415.674 307.005L428.164 270.005C438.444 265.855 452.314 268.655 459.124 257.965C462.144 253.225 459.614 251.865 459.584 247.505C459.514 238.065 480.404 232.715 464.684 223.005C466.974 227.515 460.644 231.135 460.594 231.645C460.364 234.005 462.984 235.845 460.574 239.405C459.444 241.075 452.284 245.935 450.684 242.495C449.854 240.705 454.524 240.495 456.204 239.045C457.664 237.785 459.244 234.255 457.614 233.075C455.784 231.765 451.484 235.505 449.704 232.515C454.064 226.785 463.864 231.675 462.254 220.965C461.244 214.275 446.734 200.335 442.864 193.335C440.884 189.755 432.224 163.015 430.194 163.025C429.164 163.025 423.274 175.655 422.924 177.745C421.784 184.575 425.564 187.285 421.564 195.375C418.194 202.195 410.444 203.125 407.904 209.715C404.744 217.895 409.744 224.315 403.904 232.715C402.184 235.185 387.844 243.045 386.694 242.005C386.584 241.905 385.874 239.325 386.124 238.985C387.604 236.985 396.244 234.935 399.424 232.335C405.394 227.455 401.364 218.675 403.154 211.965C405.774 202.185 418.664 197.795 419.714 188.525C420.864 178.355 417.704 173.505 425.214 164.015C426.684 162.155 429.364 162.295 428.674 160.525C428.484 160.025 422.104 152.815 421.644 152.545C418.674 150.825 414.374 151.585 411.424 150.765C408.904 150.065 406.494 146.545 402.954 146.215C393.994 145.355 372.944 148.075 363.924 150.755C347.944 155.485 330.264 172.345 328.764 189.635C328.234 195.745 330.504 203.615 329.734 210.555C329.614 211.665 329.424 213.745 328.174 214.005C323.354 215.015 326.654 201.545 326.734 199.465C326.814 197.385 326.054 195.855 326.044 194.335C326.044 192.725 327.364 188.975 326.564 188.115C326.304 187.835 324.284 188.115 323.184 187.035C322.304 186.175 322.124 184.215 321.124 183.065C314.714 175.715 299.194 178.425 294.684 186.995C298.874 185.775 320.424 185.005 320.664 190.505C320.834 194.325 311.234 189.475 309.954 189.245C292.894 186.225 285.164 197.295 290.164 213.025C292.874 221.555 306.254 223.735 314.144 224.045C318.014 224.195 324.524 222.385 327.084 223.105C332.194 224.535 323.544 227.165 323.694 227.505C324.054 228.295 329.504 233.495 330.674 234.525C338.444 241.325 348.394 249.395 358.474 251.725C362.854 252.735 373.764 254.435 377.934 253.805C383.464 252.965 395.144 242.205 399.174 243.015C400.364 243.255 400.824 244.295 399.714 245.535C397.724 247.765 388.554 250.545 388.794 253.345C389.034 256.145 396.194 261.305 398.964 260.865C400.584 260.605 401.774 258.815 404.184 259.015C406.734 259.225 403.484 265.965 394.654 263.555C388.704 261.925 386.704 254.995 386.084 254.955C383.384 254.755 378.604 257.245 374.174 257.105C370.934 256.995 355.404 253.355 354.694 254.045C354.524 254.215 355.494 256.655 355.264 258.075C354.444 263.145 350.094 270.695 348.694 276.035C358.824 272.325 366.984 274.435 376.384 278.855C379.734 280.425 395.704 289.175 395.454 292.555C395.154 296.455 388.044 295.745 387.704 296.045C386.274 297.315 392.354 299.865 390.214 304.025C388.074 308.185 384.224 303.345 381.194 302.045C379.864 302.425 381.924 304.765 381.704 305.035C379.474 307.815 363.364 298.305 359.094 299.125L334.704 302.035C333.984 296.495 338.704 298.625 341.974 297.815C354.014 294.825 362.424 293.255 374.934 297.315C376.884 297.945 385.834 302.915 386.704 302.035C387.704 301.015 386.284 299.095 385.074 298.165C383.524 296.975 374.734 292.835 372.384 291.855C366.784 289.515 363.374 288.775 357.204 289.045C354.734 289.155 343.804 291.275 342.694 290.575C341.914 290.085 341.264 288.675 341.704 288.045C342.294 287.195 360.224 284.875 362.174 284.985C367.554 285.285 388.734 295.505 391.704 293.035C391.844 292.915 390.604 290.365 390.024 289.975C388.884 289.195 386.544 289.105 385.014 288.225C367.924 278.455 363.344 274.615 343.164 281.005C325.724 286.535 295.494 300.705 289.424 319.265C282.634 339.995 281.174 378.275 289.844 398.405C292.314 404.125 298.854 412.285 300.254 417.005C300.674 418.425 300.704 421.075 299.204 421.025C297.254 420.955 286.404 399.385 285.214 396.035C278.324 376.655 279.974 340.965 285.194 321.035C290.774 299.705 313.924 289.985 331.704 281.495C332.784 280.975 334.254 281.545 333.714 279.555C333.594 279.125 329.834 277.055 329.204 277.045C327.624 277.025 326.294 279.095 324.764 279.605C317.004 282.215 316.634 275.265 315.224 275.155C313.814 275.045 308.594 279.715 303.744 275.515C297.624 270.215 306.164 264.655 305.744 260.585C305.564 258.825 301.324 254.725 300.214 252.045C297.764 246.165 298.304 242.345 300.834 236.675C302.204 233.605 309.904 223.725 309.744 230.555C309.704 232.485 301.884 238.825 301.654 245.575C301.384 253.795 309.484 255.665 309.724 260.635C309.854 263.355 303.324 270.365 306.654 272.595C309.744 274.665 314.884 270.595 315.484 267.325C315.584 266.785 315.394 260.415 315.234 260.095C312.444 254.315 305.454 255.535 309.994 243.855C310.504 242.555 315.664 234.325 316.694 238.575C317.444 241.655 309.904 246.095 313.644 252.615C314.704 254.455 320.404 257.835 320.474 258.525C320.524 259.045 318.774 263.155 318.644 265.535C318.564 267.015 319.344 275.675 319.724 276.035C320.184 276.475 323.694 275.955 324.744 275.605C329.734 273.935 326.474 271.575 326.864 268.765C327.214 266.205 331.344 263.215 331.704 260.495C332.114 257.435 329.844 254.255 329.774 251.465C329.714 249.255 330.924 247.165 330.774 244.575C330.424 238.535 325.754 236.875 323.274 232.985C322.464 231.725 322.024 228.515 321.544 228.205C319.574 226.895 304.394 226.965 299.674 225.585C293.994 223.925 287.484 219.325 285.934 213.325C283.194 202.745 286.784 190.895 293.724 182.585C302.134 172.515 317.334 174.035 326.684 182.065C332.944 161.905 352.134 148.675 372.484 145.355C378.254 144.415 399.214 142.285 403.984 143.295C406.834 143.895 410.854 146.975 414.164 148.105C417.474 149.235 422.824 149.535 425.454 150.815C428.544 152.315 428.334 156.795 431.694 158.065C430.694 153.475 433.384 150.155 434.424 146.285C436.634 138.015 436.184 134.275 442.194 127.055C446.064 122.405 451.074 119.975 455.234 116.095C463.794 108.095 461.194 104.045 474.914 99.7649C476.614 99.2349 479.924 99.295 480.534 98.895C480.894 98.655 483.254 92.715 484.294 91.155C491.234 80.625 505.444 74.425 517.684 78.595C522.314 80.175 535.434 91.175 537.914 95.365C539.954 98.815 540.904 102.585 540.774 106.595C540.734 107.765 539.934 114.715 539.684 115.065L539.654 114.995ZM578.684 212.995L586.724 207.545C592.034 202.065 590.274 200.475 591.924 194.745C593.284 190.025 595.784 185.075 596.114 180.145C596.554 173.535 594.144 161.815 587.624 158.535C586.674 158.055 585.414 158.755 584.164 158.065C581.244 156.465 578.404 153.725 575.704 152.485C570.594 150.135 563.114 149.525 557.694 146.995C557.934 148.935 554.744 157.335 555.674 157.995C555.994 158.225 558.044 157.765 559.094 158.045C560.624 158.455 563.424 160.845 564.644 159.975C564.934 159.765 566.034 154.615 567.664 153.425C568.144 153.075 570.794 154.075 570.664 154.485C569.584 157.925 563.544 167.915 561.094 170.915C557.824 174.935 552.914 177.415 550.234 181.055C549.264 182.385 543.954 192.275 544.674 192.985C547.264 195.545 564.504 179.205 566.664 176.485C568.204 174.555 568.854 171.395 569.934 170.255C572.344 167.725 574.454 168.305 573.464 172.275C571.334 180.845 552.724 193.125 545.654 199.465C544.594 200.415 543.194 201.645 542.674 202.975C551.494 204.475 555.084 198.515 560.754 194.565C566.554 190.525 571.614 187.755 577.074 182.885C577.854 182.185 580.624 176.875 582.664 178.975C584.964 181.365 574.684 190.935 572.604 192.415C565.844 197.215 557.554 197.625 554.674 207.485C561.294 209.275 571.414 202.495 576.584 198.395C578.524 196.855 585.184 187.765 586.664 188.985C589.214 191.085 582.204 197.995 581.174 200.985C579.854 204.815 580.254 209.205 578.674 212.975L578.684 212.995ZM686.684 165.005C685.244 166.275 708.014 192.825 708.704 196.475C721.234 214.655 720.204 238.235 723.934 259.245C724.404 261.885 726.644 265.165 726.664 265.505C726.804 268.405 723.574 265.995 722.704 263.475C717.774 249.165 717.594 228.945 713.394 213.785C709.594 200.065 699.614 190.675 691.284 179.895C684.174 170.695 676.914 152.435 661.974 160.795C659.884 161.965 652.984 169.625 654.674 170.995C655.294 171.495 663.174 171.775 664.944 172.235C672.194 174.105 674.284 181.355 679.154 186.025C682.904 189.625 688.684 192.355 692.224 195.955C700.204 204.075 702.854 216.455 707.964 226.215C709.254 228.685 717.944 239.715 716.674 240.995C714.214 243.465 707.774 232.995 706.844 231.325C701.434 221.575 698.684 210.585 691.654 201.515C686.754 195.205 681.534 193.045 676.154 188.015C667.724 180.125 669.494 174.785 655.224 173.955C650.004 173.655 643.394 173.615 640.684 178.985C644.644 178.195 646.054 181.715 649.614 182.565C654.314 183.685 657.944 182.415 662.644 185.535C667.344 188.655 667.024 194.075 670.764 196.405C675.004 199.035 676.994 196.605 680.924 197.175C689.814 198.455 695.104 207.715 694.194 215.985C689.354 212.975 690.614 206.135 686.214 202.965C681.124 199.315 674.984 202.355 669.954 200.225C664.804 198.045 664.574 189.925 658.964 187.215C653.944 184.795 648.544 187.475 643.764 183.415C640.844 180.945 640.764 175.655 637.154 182.935C632.914 191.495 642.314 190.005 647.754 191.415C659.724 194.515 654.914 202.745 661.324 206.845C667.334 210.695 674.724 207.095 680.044 211.125C683.804 213.975 683.884 219.155 687.174 221.995C692.254 226.395 697.914 223.515 703.204 229.965C704.544 231.595 707.964 237.745 707.684 239.465C707.504 240.585 706.394 241.135 705.164 240.005C702.384 237.435 700.114 231.275 697.664 229.495C694.294 227.045 687.874 227.485 684.154 224.005C682.134 222.115 681.684 219.215 680.114 217.045C675.184 210.225 670.304 212.785 663.414 211.745C652.764 210.145 655.994 199.175 651.084 196.075C648.244 194.285 642.714 194.585 639.434 193.725C637.834 193.305 633.514 190.365 632.694 190.975C631.874 191.585 626.164 207.435 625.214 210.005C623.624 214.325 623.054 219.935 621.194 223.985C618.474 229.925 610.434 234.975 608.454 240.245C604.864 249.815 609.104 245.895 613.164 245.945C613.934 245.945 619.394 246.795 619.684 246.965C619.814 247.045 619.794 249.855 619.684 249.955C618.504 250.985 611.164 248.485 610.684 248.965C610.254 249.405 611.234 257.395 611.774 257.855C612.674 258.635 620.944 257.355 621.684 257.955C621.804 258.055 621.814 260.865 621.684 260.945C621.444 261.105 617.584 261.115 615.864 261.635C607.074 264.295 611.184 266.105 616.674 269.455C613.074 270.225 616.334 271.485 615.564 274.245C614.944 276.465 610.604 277.695 613.174 282.965C615.764 288.275 636.624 288.915 642.204 292.925C646.904 296.295 647.914 307.225 648.684 307.955C650.734 309.895 689.194 277.095 695.194 275.975C697.404 272.315 694.224 264.205 690.674 262.395C688.164 261.115 686.014 266.685 682.114 266.935C679.664 267.095 673.724 264.745 672.784 262.315C671.974 260.215 674.084 258.925 675.184 259.005C676.384 259.095 676.524 265.235 683.414 262.195C691.784 258.495 688.524 254.395 684.674 248.445C683.654 246.875 683.384 245.285 685.184 244.955C687.354 244.555 689.144 250.185 690.274 251.895C690.714 252.565 692.154 252.785 692.714 253.655C694.444 256.305 693.124 258.665 696.944 261.175C702.124 264.575 707.024 262.325 712.394 261.175C713.084 261.025 715.224 258.965 715.654 261.475C716.494 266.265 701.244 265.385 700.654 265.955C699.894 266.685 700.824 273.365 702.194 274.925C703.564 276.485 710.234 278.155 712.154 277.965C715.194 277.665 717.734 271.915 720.374 271.135C723.014 270.355 726.634 272.325 727.694 271.525C729.474 270.175 727.984 265.195 729.914 263.195C731.154 261.915 741.264 257.495 741.664 256.935C742.444 255.815 738.874 253.075 739.674 251.975C739.854 251.725 742.714 251.035 744.504 248.295C746.054 245.905 747.294 239.275 747.684 238.965C749.304 237.685 750.334 240.455 750.464 241.725C750.724 244.235 749.214 246.015 750.164 247.965C759.004 235.685 757.594 218.265 744.164 209.975C743.824 216.765 746.974 223.265 747.664 230.485C747.864 232.585 748.454 234.585 745.674 233.975C741.874 215.005 735.094 196.705 721.694 182.445C717.314 177.775 712.734 173.765 706.074 173.055C701.064 172.525 704.974 177.445 703.664 178.975C703.534 179.125 699.824 179.095 699.664 178.965C699.504 178.825 700.904 176.715 700.534 174.715C699.794 170.745 689.064 162.865 686.674 164.985L686.684 165.005ZM334.664 241.015C331.314 238.595 334.424 246.055 334.574 247.615C335.044 252.385 336.274 261.655 333.714 265.285C332.614 266.845 330.644 265.965 330.594 269.485C330.524 274.915 334.964 275.025 336.214 276.965C336.754 277.805 335.324 279.665 335.684 280.005C336.094 280.405 346.224 277.345 346.684 277.005C346.984 276.785 345.274 272.425 345.864 269.735C346.534 266.675 351.494 262.115 351.574 258.545C351.694 252.885 342.274 249.485 338.204 245.995C336.184 244.265 334.914 241.205 334.664 241.025V241.015ZM607.674 252.005C606.034 250.155 598.414 259.815 597.684 260.505C593.684 264.195 584.854 269.735 584.614 275.515C584.474 278.925 587.434 288.235 590.674 289.995C589.464 284.785 588.254 274.085 592.204 270.015C597.274 264.775 594.774 273.115 594.634 275.445C594.064 285.195 596.434 294.505 602.674 301.995C604.534 297.385 598.754 276.255 600.684 273.995C600.814 273.845 604.534 273.865 604.674 273.995C605.304 274.615 603.834 278.195 603.874 279.485C603.964 282.585 605.454 286.335 605.674 289.505C605.994 294.035 604.184 306.745 605.194 308.985C607.274 313.565 609.254 307.955 610.204 305.025C611.394 301.315 613.534 292.145 612.474 288.705C612.094 287.475 610.504 286.595 609.914 285.285C606.404 277.545 612.144 275.945 611.724 271.545C611.464 268.805 607.124 267.055 606.754 265.385C606.384 263.715 609.364 262.655 609.604 261.385C609.794 260.405 608.024 258.995 607.714 257.485C607.424 256.075 607.964 252.335 607.684 252.025L607.674 252.005ZM613.684 306.995C615.714 309.275 621.574 296.505 621.674 294.385C621.784 291.855 619.364 289.635 617.114 289.055C615.174 288.555 614.934 292.385 614.794 293.605C614.284 298.015 614.724 302.605 613.694 306.995H613.684Z" fill="#2D2A8D"/>
<path d="M746.684 294.015C745.124 295.295 752.864 299.885 753.344 300.345C757.004 303.865 757.894 308.445 756.644 313.305C756.424 314.155 754.804 313.925 754.654 314.665C754.044 317.615 756.624 320.165 753.624 323.445C752.674 324.475 750.614 324.315 750.774 326.335C750.864 327.455 761.374 341.525 763.204 344.975C769.204 356.335 773.164 369.695 774.674 382.505C775.104 386.105 776.644 409.025 775.674 409.995C775.434 410.235 773.394 410.085 772.624 409.555C770.704 408.225 771.964 393.115 771.724 389.455C769.874 362.075 759.524 340.945 741.194 320.985C739.204 318.815 728.864 308.475 727.034 308.105C726.024 307.895 724.654 309.695 723.144 309.975C721.634 310.255 717.064 309.685 716.674 310.015C716.194 310.415 719.724 312.845 718.674 314.005C717.884 314.885 699.464 316.795 695.404 318.235C680.234 323.605 659.354 340.015 650.664 353.495C633.434 380.205 611.194 457.675 608.804 489.635C608.544 493.065 609.364 510.195 608.684 511.025C608.594 511.135 605.824 511.115 605.714 511.025C601.854 507.875 608.944 463.145 611.694 456.035C610.174 455.885 609.314 455.835 608.184 457.015C605.734 459.585 599.794 483.935 599.004 488.835C597.814 496.215 596.784 506.165 597.664 513.555C597.874 515.305 600.064 519.615 599.694 520.025C599.594 520.135 597.024 520.845 596.674 520.595C590.044 515.885 595.614 487.785 597.364 480.205C598.234 476.455 605.634 454.075 604.684 453.035C602.884 451.045 596.154 463.145 595.514 464.355C592.244 470.515 591.154 475.425 588.834 481.675C586.954 486.745 584.464 486.025 585.354 481.235C587.334 470.545 593.554 457.805 601.684 450.535C591.984 448.485 588.314 450.335 583.494 458.345C574.074 473.995 571.364 511.265 585.154 525.075C593.734 533.675 610.324 525.135 615.244 516.095C620.734 506.005 624.914 486.095 622.244 474.995C621.304 471.095 618.324 466.795 617.734 463.495C616.914 458.925 619.984 461.475 621.524 463.715C631.734 478.515 624.944 500.845 618.684 516.045C631.414 512.395 640.094 501.655 647.504 491.375C669.184 461.255 682.574 425.515 694.874 390.745C695.084 389.035 698.164 388.535 698.674 389.055C699.304 389.705 695.384 400.655 694.694 402.565C685.644 427.965 675.224 453.135 661.484 476.355C659.384 479.905 648.244 495.095 647.834 496.785C647.424 498.475 649.814 502.465 650.384 504.825C652.154 512.145 653.454 519.615 654.684 527.035L661.684 505.045C663.364 504.755 664.614 505.805 664.664 507.485C664.724 509.795 660.264 520.435 659.354 524.215C653.584 548.095 652.004 571.305 648.544 595.405C637.674 671.125 629.734 719.025 649.954 795.255C655.514 816.225 660.624 829.135 669.854 848.355C674.424 857.865 674.814 872.525 678.654 883.555C683.174 896.535 692.024 908.375 695.934 921.275C701.934 941.045 703.044 962.525 709.954 983.255C710.814 985.845 715.914 996.285 715.664 997.515C715.544 998.135 714.064 999.245 713.174 999.045C709.804 998.275 700.384 961.725 699.124 956.085C698.054 951.295 696.524 935.275 694.734 932.475C693.974 931.275 685.904 925.905 684.174 925.015C683.394 924.615 683.084 923.265 682.144 925.035C679.464 930.045 683.814 947.395 677.714 953.605C671.174 960.265 665.244 948.065 663.154 943.055C659.834 935.105 660.014 936.145 655.834 929.365C645.944 913.305 645.284 894.085 645.694 875.705C616.094 865.245 630.004 831.265 627.714 807.645C617.664 805.315 614.394 797.445 613.154 788.035C611.544 796.475 607.984 804.535 605.944 812.835C596.004 853.125 605.184 893.565 597.194 934.085C594.134 949.585 586.204 978.545 579.734 992.625C578.294 995.755 578.734 994.695 575.654 994.045C582.874 970.785 591.914 947.715 595.504 923.395C600.954 886.505 593.664 850.105 602.324 813.215C604.224 805.125 607.314 797.305 609.364 789.255C616.104 762.855 614.504 735.595 615.604 708.495C617.784 654.635 619.904 600.425 621.694 546.585C621.804 543.205 620.894 523.935 621.654 523.035C621.784 522.885 625.514 522.885 625.644 523.035C626.704 524.275 624.714 533.105 624.604 535.495C621.154 613.055 618.434 693.095 617.694 770.585C617.614 779.025 615.784 784.715 618.334 793.855C621.584 805.525 630.394 801.735 638.374 804.815C643.334 806.725 647.184 813.185 651.644 816.035C646.674 796.605 640.804 777.315 637.784 757.405C627.114 687.185 641.004 624.125 649.794 554.665C650.654 547.905 653.044 541.435 652.654 534.545C652.454 530.915 647.004 502.085 645.654 501.035C645.054 500.565 636.054 510.295 634.584 511.455C628.484 516.265 621.024 519.355 614.334 523.205C611.514 524.825 608.664 527.985 605.564 529.435C589.684 536.865 580.204 529.185 574.884 514.305C574.004 511.835 572.834 503.655 572.504 503.185C572.134 502.655 570.004 502.665 568.924 501.755C562.244 496.085 548.974 476.765 544.484 468.705C543.444 466.835 540.824 459.585 540.434 459.255C539.574 458.545 522.154 454.385 518.894 453.305C498.744 446.635 479.654 437.385 460.674 428.035C463.764 456.805 450.674 482.005 443.954 508.825C442.514 514.555 434.774 552.755 436.674 555.035C438.274 556.955 438.814 553.535 439.134 553.045C446.984 541.215 461.814 514.135 466.134 501.005C471.914 483.435 474.024 462.355 476.674 444.035C480.954 442.655 479.954 447.895 479.664 451.535C476.744 487.835 462.494 521.965 443.844 552.715C441.534 556.515 436.914 559.795 436.174 561.045C435.434 562.295 434.044 572.085 433.174 575.045C427.314 594.825 408.294 614.425 399.544 633.415C393.764 638.165 396.004 632.485 397.854 628.725C407.744 608.595 426.264 590.725 431.384 568.255C435.484 550.255 430.814 539.625 428.794 522.425C425.784 496.755 436.864 474.245 437.714 448.585C437.844 444.685 436.404 437.235 436.834 434.795C437.414 431.525 447.524 421.155 446.674 420.055C446.544 419.885 443.804 419.245 442.634 418.585C421.864 406.715 396.864 385.955 376.874 377.335C375.644 376.805 373.334 376.575 373.674 374.555C374.034 372.375 377.864 374.015 378.874 374.345C391.724 378.575 409.334 394.695 421.754 402.465C448.504 419.215 483.744 437.165 513.424 447.795C529.204 453.445 547.314 460.795 562.974 451.845C583.384 440.185 613.354 408.225 626.894 388.765C638.364 372.285 644.934 349.845 659.654 336.525C666.294 330.515 690.204 314.835 698.394 313.265C703.814 312.225 709.334 314.195 714.664 311.025C714.284 309.205 712.704 309.165 711.204 308.995C706.544 308.475 700.844 308.875 696.394 310.265C694.814 310.755 688.654 314.925 689.664 310.545C690.234 308.085 701.404 305.225 704.124 304.995C711.004 304.415 713.884 306.015 719.394 306.865C722.814 307.395 726.074 305.085 721.234 302.955C711.074 298.485 702.514 297.605 692.284 302.155C690.884 302.775 688.414 305.015 688.164 305.015C686.924 305.035 685.924 302.195 687.664 300.535C692.014 296.385 705.344 295.345 711.084 296.115C714.854 296.625 718.964 299.275 722.944 300.255C724.254 300.575 724.854 302.175 724.664 299.545C717.564 291.625 705.654 288.115 695.444 291.305C692.914 292.095 687.244 296.035 686.164 296.045C683.544 296.075 683.464 294.645 685.184 293.035C694.714 284.095 711.524 285.735 722.014 292.185C722.804 292.675 728.014 296.645 728.204 296.985C728.984 298.325 726.024 301.995 727.584 303.545C733.154 307.135 740.204 316.965 745.114 320.075C746.334 320.845 750.084 321.655 750.664 321.025C752.394 319.155 747.554 310.365 748.674 309.025C748.904 308.745 754.114 313.665 754.654 313.025C755.474 312.045 752.834 300.725 747.354 302.145C744.324 302.925 740.664 315.205 733.674 305.525C740.744 306.005 746.344 299.995 743.154 293.035C741.874 290.255 731.514 283.595 734.674 280.025C736.094 278.425 739.734 284.725 740.624 285.565C743.274 288.055 751.634 293.685 752.704 287.505C753.544 282.615 748.914 278.675 749.674 275.535C749.914 274.545 750.964 273.685 752.144 275.045C755.404 278.805 758.024 287.225 754.684 291.535C750.954 296.345 747.264 293.545 746.664 294.035L746.684 294.015ZM614.484 444.795L629.674 391.995C615.514 409.345 600.874 426.175 583.724 440.595C588.304 450.555 592.754 446.725 601.194 446.005C603.964 445.765 613.124 446.725 614.494 444.795H614.484ZM435.674 535.005C435.844 534.795 435.574 531.835 435.794 530.625C441.274 500.255 456.214 469.515 457.724 439.545C457.864 436.825 458.184 428.655 457.524 426.655C456.964 424.965 448.964 421.545 448.684 421.995C448.514 422.265 448.744 423.825 448.094 424.875C446.314 427.775 441.514 431.865 440.884 434.705C439.764 439.705 441.114 447.125 440.724 452.545C439.104 474.585 430.344 497.035 431.684 518.495C431.954 522.775 432.914 529.185 433.714 533.485C433.944 534.735 434.174 536.865 435.674 534.995V535.005ZM570.694 499.005C573.214 500.825 572.014 493.085 572.034 492.675C572.674 481.985 574.284 467.745 579.494 458.325C580.614 456.305 585.484 450.865 585.584 450.375C585.824 449.225 580.824 443.025 580.174 443.025C579.424 443.025 570.824 450.995 568.584 452.425C564.324 455.155 559.144 458.115 554.094 458.935C552.154 459.245 544.814 458.245 544.694 460.505C544.624 461.745 555.704 479.255 557.454 481.735C561.034 486.805 565.204 491.275 569.224 495.975C570.234 497.155 570.554 498.915 570.694 499.005ZM612.674 449.005C612.074 448.415 606.434 449.385 605.064 449.895C604.054 450.275 602.044 450.485 603.674 451.985C603.914 452.205 609.624 453.985 609.974 453.895C611.654 453.495 613.624 449.935 612.674 448.995V449.005ZM630.694 846.005C636.064 841.355 651.874 830.695 652.534 823.315C652.704 821.375 639.124 808.815 636.404 807.785C628.334 804.695 631.784 807.595 631.764 810.515C631.754 812.885 630.724 815.025 630.644 817.455C630.324 826.945 630.964 836.515 630.694 845.995V846.005ZM644.684 839.505C643.704 842.995 644.684 857.115 644.684 862.005C644.684 862.155 641.684 862.155 641.684 862.005V842.005C638.194 843.005 632.154 848.715 631.104 851.955C629.064 858.265 636.224 866.785 641.434 869.755C646.644 872.725 651.554 872.215 656.744 873.445C659.254 874.045 661.164 875.835 663.684 875.995C659.154 860.025 655.604 843.725 655.684 826.995C654.474 829.155 644.914 838.695 644.694 839.495L644.684 839.505ZM693.674 927.005C695.574 924.735 678.674 893.695 676.664 888.525C671.374 874.975 670.894 860.925 665.514 847.675L660.694 841.005C659.004 858.125 673.984 874.245 662.104 889.915C659.144 893.815 651.734 897.775 650.884 901.725C649.764 906.895 653.814 913.175 654.944 918.255L660.684 929.005L657.724 896.495C660.974 892.745 662.444 900.905 662.684 903.515C663.744 914.945 662.754 934.635 667.514 944.685C668.724 947.245 672.974 954.465 675.594 950.395C679.614 944.135 674.944 922.595 682.674 920.415C685.664 919.575 692.994 927.845 693.694 927.005H693.674ZM649.694 897.005C653.924 892.985 663.804 886.375 661.544 879.665C660.714 877.215 651.684 874.875 649.204 874.995C647.384 875.075 650.354 894.675 649.704 897.005H649.694Z" fill="#2D2A8D"/>
<path d="M382.684 826.005C380.034 834.185 378.644 842.625 377.684 851.505C377.514 853.105 377.984 858.645 377.684 859.005C377.584 859.115 374.784 859.125 374.694 859.005C374.394 858.635 374.554 850.955 374.664 849.465C374.754 848.165 375.834 846.115 375.694 846.005C375.314 845.695 372.834 846.495 371.854 845.835C371.154 845.365 368.854 837.755 368.754 836.345C367.614 819.465 392.014 776.155 399.164 757.955C410.544 728.995 418.654 697.115 420.694 665.975C421.504 666.085 423.554 665.815 423.684 665.975C426.584 669.485 416.534 714.115 414.614 721.405C408.594 744.185 400.154 764.195 390.874 785.665C385.374 798.385 368.444 827.295 372.764 840.415C373.304 842.055 373.774 842.925 375.194 843.975C378.554 815.605 395.724 791.685 407.554 766.335C424.374 730.295 435.464 692.355 438.694 652.475C439.144 646.965 438.284 641.015 438.694 635.485C439.594 623.625 443.214 611.805 444.184 599.975C429.894 625.115 416.984 651.335 409.754 679.555C408.404 684.825 405.884 703.155 404.204 706.005C402.634 708.645 401.544 704.585 401.654 702.515C404.334 651.475 445.134 600.505 462.434 553.235C468.334 537.125 473.584 518.535 475.674 501.475C475.954 499.195 475.404 496.695 475.674 494.485C475.854 493.065 479.904 493.205 479.714 498.435C479.264 510.895 472.254 535.605 468.144 547.945C460.624 570.565 450.474 586.325 445.984 610.785C443.364 625.045 439.474 646.335 442.954 660.195C453.994 704.135 465.804 741.185 469.664 787.485C471.514 809.595 474.454 858.495 467.444 878.255C465.544 883.615 459.724 890.145 458.904 894.715C455.774 912.045 460.074 945.235 462.824 963.325C464.564 974.775 466.774 986.225 469.644 997.435C468.234 999.485 466.844 999.655 465.874 997.275C462.894 989.955 461.124 973.795 459.824 965.325C457.724 951.705 455.364 937.215 454.674 923.475C454.264 915.325 455.844 906.565 454.174 898.985C448.664 905.755 441.954 911.515 436.154 917.965C411.324 945.595 386.704 972.165 361.154 998.955C358.674 1001.55 359.584 1004.07 354.674 1001.96C370.034 983.715 388.064 967.675 404.184 949.995C414.524 938.655 424.044 926.495 434.154 914.965C450.804 895.965 465.834 887.645 467.714 859.525C469.594 831.405 467.764 798.515 464.554 771.595C460.284 735.825 452.054 700.355 441.664 665.985L430.594 715.405C423.004 754.955 394.644 789.085 382.674 825.985L386.574 826.095C390.604 839.025 391.444 851.955 388.384 865.195C384.154 883.515 370.244 888.505 357.204 899.015C325.124 924.865 304.094 965.915 283.564 1000.92L279.684 999.985C291.664 980.475 302.394 960.115 315.464 941.275C321.344 932.805 335.324 918.275 339.124 910.935C340.744 907.795 341.644 901.115 343.204 897.015C346.914 887.265 354.554 877.445 357.214 868.025C360.314 857.035 361.474 842.555 363.994 830.805C373.514 786.575 386.154 742.845 389.684 697.495C391.484 674.425 393.264 635.575 384.864 614.315C383.534 610.945 379.644 607.485 381.194 603.985C389.044 609.255 391.294 622.675 392.564 631.615C402.434 701.145 379.034 773.545 365.144 840.955C363.234 850.225 362.764 861.095 360.204 870.015C356.884 881.575 346.584 892.025 344.674 904.485L371.164 884.975C389.384 871.025 389.714 846.145 382.684 825.995V826.005Z" fill="#2D2A8D"/>
<path d="M768.634 468.085C766.344 489.805 758.054 510.375 766.494 531.685C777.524 559.515 799.504 584.205 809.144 613.035C815.934 633.355 816.344 665.845 802.684 683.505C799.184 688.025 792.604 691.385 789.844 695.665C786.244 701.245 782.784 713.735 780.664 720.485C770.254 753.655 764.284 787.025 752.434 820.255C749.424 828.705 742.564 839.655 742.604 848.505C742.654 859.845 749.684 887.545 756.694 896.495C763.044 904.595 781.064 914.915 789.704 922.485C810.034 940.285 828.794 969.925 836.244 995.995C836.704 997.605 837.024 999.155 835.184 999.985C833.624 1000.69 832.054 995.855 831.524 994.665C826.304 983.025 822.674 971.275 816.224 959.975C802.764 936.395 782.474 920.465 760.714 904.995C764.234 913.615 769.464 921.475 773.174 930.025C779.714 945.095 784.744 962.965 785.744 979.455C785.914 982.235 786.384 1000.17 785.694 1001C785.594 1001.12 782.794 1001.12 782.704 1001C782.084 1000.25 782.904 984.575 782.704 981.505C780.254 944.495 764.754 925.035 750.844 893.365C733.274 853.345 741.964 837.695 747.544 797.355C751.844 766.285 752.724 736.435 755.704 705.515C756.144 700.935 757.814 682.485 760.204 680.015C761.394 678.785 769.594 675.445 772.034 673.845C795.344 658.565 795.954 629.325 789.424 604.805C788.764 602.335 784.674 593.165 784.734 592.505C784.774 592.045 786.254 590.795 787.194 591.015C789.284 591.505 793.164 604.725 793.834 607.385C800.154 632.455 798.084 661.155 774.624 676.425C771.344 678.565 766.024 680.035 763.404 681.945C761.114 683.615 759.104 705.135 758.704 709.505C757.984 717.325 758.344 725.845 757.704 733.505C755.164 763.485 752.364 793.455 746.714 823.005C748.444 822.735 748.454 821.015 748.984 819.785C764.254 783.965 768.494 742.265 781.954 705.755C783.324 702.045 785.684 694.465 787.844 691.645C792.054 686.165 798.424 684.925 803.224 676.025C828.394 629.365 788.924 584.305 769.184 545.025C755.694 518.175 758.954 505.375 763.864 476.655C764.124 475.145 765.324 467.295 765.724 466.995C766.024 466.775 767.664 468.265 768.664 468.075L768.634 468.085Z" fill="#2D2A8D"/>
<path d="M383.674 309.995C381.634 313.055 360.064 308.745 358.684 310.015C355.644 312.805 366.254 313.005 366.974 313.215C369.054 313.815 370.274 315.905 369.214 317.995C365.814 324.675 348.774 323.315 342.284 324.115C331.774 325.405 320.984 333.985 310.584 336.645C304.474 357.465 301.014 379.695 302.684 401.505C303.874 416.985 310.814 434.125 311.664 449.525C313.374 480.395 277.384 517.185 266.924 547.765C257.844 574.325 250.844 606.795 246.664 634.445C248.014 644.595 248.114 654.885 252.854 664.345C255.854 670.345 262.394 674.865 264.874 680.325C273.024 698.215 273.624 741.695 276.834 763.365C279.854 783.785 285.854 804.555 288.564 824.635C292.834 856.225 279.954 875.745 271.414 904.255C264.334 927.865 259.414 957.855 260.684 982.515C260.904 986.735 263.054 994.825 262.694 998.505C262.614 999.355 260.734 999.205 260.184 999.025C257.114 998.055 257.404 967.225 257.644 962.465C259.364 928.075 268.544 904.395 278.954 872.775C292.724 830.975 279.944 806.285 273.834 765.345C271.124 747.215 268.384 691.875 260.514 679.665C259.074 677.435 256.734 676.035 255.254 673.925C233.064 642.285 247.194 609.055 256.184 576.015C259.884 562.425 261.424 550.395 267.204 537.035C280.154 507.125 311.114 478.635 307.554 444.625C305.734 427.215 299.224 410.705 298.634 392.555C298.044 374.405 302.484 354.835 306.674 337.015C305.054 337.955 296.074 336.365 298.684 334.015C298.924 333.805 303.554 334.125 305.064 333.895C319.334 331.735 328.834 321.185 342.194 320.025C347.064 319.605 352.334 320.355 357.224 320.055C358.514 319.975 365.344 319.265 365.684 319.005C367.534 317.565 365.214 317.275 364.274 316.915C360.974 315.645 354.384 313.055 351.144 312.975C347.444 312.885 334.694 317.725 332.684 316.005C332.534 315.875 332.534 312.455 332.814 312.125C333.564 311.235 352.634 306.255 355.194 306.015C363.824 305.195 370.944 309.075 378.984 307.805C380.274 307.605 381.964 306.025 382.194 306.035C383.214 306.065 384.254 309.145 383.684 310.005L383.674 309.995Z" fill="#2D2A8D"/>
<path d="M488.675 442.995C488.565 456.165 488.825 469.365 488.725 482.545C488.415 524.735 487.695 569.265 507.155 608.025C525.455 644.475 555.725 652.315 579.705 615.525C594.765 592.405 598.085 562.015 604.895 535.715C605.785 533.175 607.295 534.085 607.745 536.505C603.805 556.015 600.175 576.525 593.425 595.245C586.515 614.415 572.815 638.875 550.715 642.035C551.045 685.915 550.105 729.945 543.525 773.345C540.225 795.125 531.975 817.695 534.795 839.385C537.615 861.075 540.115 867.435 534.605 890.425C529.465 911.855 521.895 932.625 518.795 954.615C516.765 969.025 518.195 983.905 516.735 997.555C516.345 1001.17 515.335 1001.67 512.645 999.345C512.915 977.835 514.675 956.875 518.995 935.805C520.235 929.755 525.595 913.855 525.545 909.475C525.515 906.655 522.425 899.505 521.805 895.385C516.775 862.065 531.165 821.995 537.385 789.185C546.495 741.065 547.655 691.845 547.695 642.985C513.965 643.615 497.215 600.505 491.175 573.005C483.175 536.565 484.165 498.525 485.735 461.535C485.855 458.765 485.105 443.705 485.695 442.985C485.835 442.825 487.885 443.095 488.685 442.985L488.675 442.995ZM527.675 902.995C529.215 893.705 533.865 883.795 534.675 874.495C535.865 860.855 532.335 848.355 531.675 835.005C529.775 835.355 529.995 837.065 529.635 838.455C525.195 855.815 522.685 882.515 526.165 900.025C526.375 901.095 526.235 903.255 527.675 902.995Z" fill="#2D2A8D"/>
<path d="M720.814 457.125C722.374 454.835 738.024 458.175 741.684 456.995C741.304 455.175 739.724 455.135 738.224 454.965C730.764 454.135 716.924 455.765 710.724 451.465C708.974 450.245 706.334 447.515 707.384 445.285C708.074 443.805 712.464 442.125 710.684 441.025C709.224 440.115 706.734 440.855 704.634 437.565C700.444 430.995 708.904 431.555 709.574 430.905C709.834 430.655 709.794 427.645 710.424 426.255C712.874 420.785 730.154 420.825 735.904 419.725C742.924 418.385 750.014 415.695 756.654 414.445C761.294 413.565 762.504 416.355 757.494 418.315C745.154 423.135 730.444 422.145 718.424 425.245C714.454 426.265 709.004 430.095 716.274 430.925C727.434 432.185 739.074 429.415 750.104 428.055C752.224 429.405 752.294 430.785 750.044 431.875L706.694 435.035C708.184 437.915 712.024 439.695 715.164 440.045C726.504 441.325 741.224 439.695 752.684 439.025C753.034 444.855 749.794 444.165 745.064 444.905C736.734 446.195 726.594 446.385 718.144 446.065C715.564 445.965 705.604 443.355 712.724 448.485C719.724 453.535 748.364 450.285 751.234 454.975C751.874 456.015 752.024 457.035 751.244 458.065C750.344 459.255 737.474 461.095 735.194 461.095C732.914 461.095 725.084 458.635 724.704 459.005C722.704 460.995 731.424 464.295 732.634 464.565C749.654 468.435 779.384 462.005 791.364 448.665C798.034 441.235 798.194 429.575 790.224 422.985C783.704 417.595 763.424 411.365 754.354 406.855C750.874 405.125 743.444 399.705 741.194 399.015C739.724 398.565 739.504 399.135 739.694 400.505C740.524 406.435 750.134 410.055 750.724 413.485C751.404 417.455 744.004 411.625 743.234 410.975C739.964 408.215 736.444 404.085 736.624 399.495C736.974 390.405 752.234 402.315 756.034 404.185C764.654 408.425 789.784 417.045 794.714 422.505C807.234 436.385 796.524 450.715 783.394 458.175C767.414 467.255 746.474 472.925 728.494 466.725C725.144 465.575 717.964 461.365 720.844 457.125H720.814Z" fill="#2D2A8D"/>
<path d="M579.684 560.005C578.494 560.005 570.334 565.455 566.684 566.505C516.144 581.085 503.744 498.225 498.834 464.345C498.334 460.875 496.854 454.165 496.924 451.265C496.954 450.065 498.614 448.035 499.174 448.025C500.724 447.975 500.524 451.595 500.674 452.505C505.204 479.085 511.934 529.985 528.694 550.485C543.984 569.205 567.854 570.115 582.504 550.335C584.174 548.075 587.104 541.595 588.724 540.495C588.974 540.325 594.454 539.795 594.674 540.005C596.214 541.525 586.944 574.435 585.164 578.985C567.814 623.345 534.744 619.555 514.154 580.015C511.854 575.595 499.484 547.345 501.684 544.995C501.794 544.885 504.524 544.575 504.764 545.585C510.354 566.855 528.664 614.365 557.714 606.535C578.414 600.955 586.314 564.405 590.634 546.445C590.884 543.535 589.484 545.685 588.844 546.655C585.884 551.125 582.434 555.705 579.684 559.995C586.004 559.955 578.804 570.545 577.124 572.935C571.284 581.265 561.384 587.805 551.064 588.875C546.824 589.315 532.564 589.685 530.794 585.375C530.294 584.145 530.044 582.745 532.154 582.995C535.174 583.355 538.804 585.505 542.274 585.885C556.884 587.465 570.054 578.035 577.194 566.015C578.294 564.155 578.954 561.135 579.684 559.995V560.005Z" fill="#2D2A8D"/>
<path d="M413.194 160.005C414.154 159.805 415.634 161.055 415.654 161.495C415.714 162.395 409.174 169.265 408.164 171.985C406.004 177.815 407.534 183.935 405.164 189.985C402.414 196.985 394.524 200.945 394.604 208.505C394.664 214.575 396.614 216.585 393.724 223.535C390.564 231.145 386.124 230.015 380.724 233.535C375.324 237.055 375.154 242.025 366.194 243.005C353.164 244.425 346.774 238.415 335.654 233.525C334.134 232.525 335.214 231.405 336.304 231.105C342.784 229.295 348.294 236.465 353.714 238.475C359.134 240.485 367.604 241.255 372.634 237.445C374.684 235.885 375.274 233.825 376.754 232.565C380.794 229.125 386.234 228.925 390.144 222.955C394.694 215.995 390.424 211.735 391.914 204.715C392.944 199.845 398.924 195.035 401.174 189.975C404.264 183.025 402.304 178.655 404.204 173.025C405.004 170.655 411.304 160.405 413.204 160.005H413.194Z" fill="#2D2A8D"/>
<path d="M400.554 660.875C394.854 664.705 400.194 652.895 400.804 651.625C411.754 628.635 427.224 607.715 437.544 584.365C443.214 571.545 446.114 557.905 451.184 545.005C451.664 543.795 452.464 541.695 454.174 542.015C456.434 542.425 454.874 544.495 454.654 545.465C446.174 582.975 424.494 615.105 406.514 648.335C405.414 650.355 401.144 660.495 400.564 660.885L400.554 660.875Z" fill="#2D2A8D"/>
<path d="M531.184 122.025C535.104 122.135 537.044 148.865 534.104 153.925C531.404 158.585 524.184 160.005 519.184 160.015C515.854 160.015 511.174 157.175 508.564 157.495C503.614 158.095 497.004 165.825 490.944 166.785C483.364 167.985 477.204 162.695 472.244 163.035C467.284 163.375 461.654 171.105 455.234 163.975C453.844 162.435 447.844 150.845 453.174 152.025C454.864 152.395 455.284 165.105 464.984 162.825C466.804 162.395 467.954 160.655 469.414 160.255C475.484 158.585 478.254 162.245 483.264 162.935C496.124 164.705 502.714 152.785 511.934 154.245C516.824 155.015 518.354 158.235 524.224 156.075C531.684 153.325 533.204 146.985 532.564 139.645C532.384 137.575 527.414 121.935 531.184 122.045V122.025Z" fill="#2D2A8D"/>
<path d="M634.675 519.995L635.165 642.005C632.905 641.985 632.815 640.275 632.625 638.545C631.645 629.865 632.955 618.565 632.715 609.455C632.655 607.085 631.675 604.915 631.625 602.545C631.065 575.055 632.125 547.475 631.675 519.995H634.665H634.675Z" fill="#2D2A8D"/>
<path d="M404.684 157.015C399.484 161.845 392.884 166.685 392.614 174.495C392.424 180.155 395.024 182.505 391.534 188.365C387.004 195.965 379.544 193.415 375.144 196.975C370.744 200.535 372.424 207.725 363.514 210.335C357.274 212.165 352.994 209.445 347.174 209.565C344.914 209.615 343.054 210.335 340.944 210.795C340.244 210.945 338.134 213.005 337.684 210.495C337.324 208.475 339.674 208.245 340.884 207.715C349.064 204.145 356.054 208.965 363.734 206.565C369.124 204.875 369.654 197.025 374.174 194.005C378.944 190.805 386.494 193.025 389.184 187.025C391.874 181.025 388.664 176.605 389.904 170.735C390.854 166.275 399.084 154.695 404.674 157.025L404.684 157.015Z" fill="#2D2A8D"/>
<path d="M323.675 204.995C321.525 207.095 316.365 200.275 313.895 199.275C302.325 194.585 292.905 212.005 306.405 214.775C308.765 215.255 314.855 215.405 317.175 214.985C319.075 214.645 319.385 213.355 320.175 212.985C324.755 210.825 326.815 212.555 323.225 216.035C318.935 220.185 307.825 219.845 302.685 217.505C288.875 211.235 299.665 192.165 311.945 194.215C314.805 194.695 326.285 202.455 323.685 204.995H323.675Z" fill="#2D2A8D"/>
<path d="M502.673 219.005C505.733 222.165 491.703 233.945 484.663 226.525C481.043 222.715 481.433 213.935 480.673 213.005C479.553 211.635 468.553 220.935 468.693 216.505C468.753 214.565 484.463 208.185 471.633 203.555C466.363 201.645 460.103 205.455 459.683 205.005C459.553 204.865 459.483 201.635 459.823 201.145C460.123 200.715 466.053 198.985 467.183 198.975C474.233 198.955 480.263 206.515 482.873 212.325C484.893 216.825 485.693 228.575 493.403 225.275C495.403 224.415 500.793 217.065 502.683 219.015L502.673 219.005Z" fill="#2D2A8D"/>
<path d="M628.673 727.005C630.623 735.725 629.083 744.715 629.633 753.545C630.283 764.105 631.763 775.865 633.973 786.205C634.553 788.935 636.553 792.935 636.673 795.395C636.693 795.815 634.333 796.985 634.183 796.985C633.023 796.985 631.323 790.595 630.983 789.205C626.253 770.275 626.713 748.945 625.693 729.495L628.683 726.995L628.673 727.005Z" fill="#2D2A8D"/>
<path d="M382.684 204.005C382.794 204.105 382.824 206.925 382.684 206.995C382.304 207.205 380.524 206.795 379.454 207.225C372.344 210.075 373.754 222.785 363.714 225.525C354.234 228.105 350.764 220.315 344.094 220.045C341.454 219.935 333.774 223.915 332.684 222.995C329.344 220.145 342.484 216.955 344.184 216.925C351.264 216.805 353.834 222.095 359.444 222.815C371.154 224.315 368.524 207.395 377.624 204.445C378.674 204.105 382.264 203.615 382.684 204.005Z" fill="#2D2A8D"/>
<path d="M463.094 154.425C462.414 154.925 461.534 157.415 459.674 156.555C452.554 153.225 467.924 146.775 471.434 146.225C480.134 144.865 483.524 152.865 494.734 147.555C497.074 146.445 502.634 141.275 503.164 141.245C503.864 141.205 506.664 143.025 506.674 143.515C506.694 145.225 493.624 152.315 490.964 152.775C482.464 154.235 478.534 149.215 471.174 149.985C467.464 150.375 465.894 152.365 463.104 154.435L463.094 154.425Z" fill="#2D2A8D"/>
<path d="M642.674 514.995C643.184 533.065 644.634 551.415 643.684 569.515C643.564 571.785 643.204 571.005 641.194 570.985L639.674 515.575L642.684 514.985L642.674 514.995Z" fill="#2D2A8D"/>
<path d="M371.674 156.005C372.684 156.995 371.384 158.895 369.964 159.785C366.534 161.945 360.294 163.315 356.004 165.825C351.374 168.535 343.884 174.345 340.854 178.675C339.284 180.905 336.224 189.205 335.744 189.565C334.364 190.585 331.894 189.715 331.674 188.485C331.544 187.765 334.754 181.525 335.484 180.305C339.654 173.325 350.024 164.755 357.304 161.125C358.864 160.345 371.124 155.475 371.674 156.005Z" fill="#2D2A8D"/>
<path d="M460.684 143.995C458.624 141.785 463.414 137.445 465.674 136.495C474.734 132.705 484.864 137.275 495.364 132.185C497.154 131.315 502.074 127.155 503.194 127.245C503.694 127.285 505.664 129.325 505.664 129.495C505.684 130.095 497.474 135.145 495.924 135.735C487.334 139.015 478.734 136.835 470.454 139.265C468.594 139.815 461.104 144.435 460.684 143.985V143.995Z" fill="#2D2A8D"/>
<path d="M457.683 134.995C456.253 133.725 465.213 126.855 466.343 126.165C474.033 121.395 477.493 123.215 485.073 121.895C489.923 121.045 495.043 119.145 499.633 118.445C505.063 117.615 504.283 119.845 499.953 121.775C488.443 126.895 479.343 122.795 467.163 129.985C465.143 131.175 459.803 136.885 457.693 135.005L457.683 134.995Z" fill="#2D2A8D"/>
<path d="M371.674 173.005C374.314 175.765 365.144 185.695 362.614 187.435C356.294 191.795 352.294 188.645 346.624 190.445C343.394 191.465 340.294 196.455 337.974 198.755C334.534 202.165 333.824 199.295 335.834 195.645C337.274 193.015 340.524 189.085 343.434 188.245C353.054 185.475 356.064 191.155 364.674 180.475C366.054 178.765 369.474 170.675 371.694 172.995L371.674 173.005Z" fill="#2D2A8D"/>
<path d="M623.263 460.415C622.343 459.215 616.393 453.275 622.753 455.415C629.113 457.555 637.803 476.675 639.023 483.205C639.943 488.135 637.243 488.325 635.183 484.015C630.653 474.585 630.433 469.775 623.273 460.415H623.263Z" fill="#2D2A8D"/>
<path d="M510.684 148.995C508.494 146.805 514.754 143.545 515.684 142.505C520.204 137.415 519.834 133.935 519.724 127.455C519.694 125.735 517.104 118.055 521.164 119.005C522.754 119.375 524.674 128.655 524.714 130.545C524.794 134.675 522.644 140.575 519.724 143.545C518.684 144.595 511.864 150.175 510.684 148.995Z" fill="#2D2A8D"/>
<path d="M521.675 100.995C513.665 100.945 521.355 90.975 513.665 87.515C507.225 84.625 496.185 92.225 494.685 89.985C494.595 89.845 494.565 87.105 494.685 87.015C495.235 86.655 503.965 84.125 505.175 83.985C518.515 82.545 523.155 87.745 521.675 100.985V100.995Z" fill="#2D2A8D"/>
<path d="M392.675 154.005C393.605 154.865 391.365 156.865 390.695 157.515C387.265 160.825 380.535 164.325 379.725 169.545C379.155 173.245 380.805 177.385 377.715 180.535C376.775 181.495 374.525 182.815 373.685 181.995C372.455 180.795 376.075 177.065 376.655 175.475C378.115 171.545 376.885 167.155 378.805 163.625C380.075 161.285 390.135 151.655 392.675 154.005Z" fill="#2D2A8D"/>
<path d="M506.675 179.995C506.345 180.295 500.315 180.075 497.865 180.685C492.265 182.075 488.825 186.565 484.405 188.225C480.075 189.845 477.445 189.345 481.955 185.775C487.075 181.725 496.125 175.185 502.965 176.185C504.355 176.385 507.955 178.835 506.665 179.995H506.675Z" fill="#2D2A8D"/>
<path d="M419.683 219.995C418.323 218.585 420.453 217.395 420.813 216.885C424.753 211.235 431.143 206.185 434.953 200.295C436.293 198.855 441.173 198.275 441.663 200.515C442.153 202.755 436.453 203.825 434.613 205.455C433.193 206.705 422.433 222.875 419.673 220.005L419.683 219.995Z" fill="#2D2A8D"/>
<path d="M525.673 163.005C528.643 165.935 516.203 170.865 514.083 170.965C512.113 171.055 506.073 168.045 504.343 166.835C501.713 164.995 499.733 160.905 504.013 162.165C507.833 163.285 509.973 167.295 515.163 167.075C518.143 166.945 524.583 161.925 525.673 163.005Z" fill="#2D2A8D"/>
<path d="M441.594 293.925C441.254 294.145 438.794 294.105 438.694 294.005C437.034 292.385 446.454 269.085 451.174 270.015C452.764 270.325 452.414 271.465 451.874 272.685C450.774 275.215 447.514 278.645 445.974 281.795C444.894 283.995 442.144 293.585 441.594 293.925Z" fill="#2D2A8D"/>
<path d="M535.683 281.995C535.123 281.465 535.543 278.815 537.313 278.225C539.423 277.525 546.153 278.345 549.103 277.915C551.323 277.595 558.973 273.065 559.683 276.505C560.253 279.285 550.813 281.505 548.893 281.785C547.273 282.015 536.173 282.445 535.693 281.995H535.683Z" fill="#2D2A8D"/>
<path d="M445.684 185.995C444.644 184.835 447.504 177.955 447.724 175.555C447.934 173.285 447.864 169.875 447.584 167.585C447.384 165.915 445.424 162.175 445.664 162.005C445.834 161.885 449.494 160.865 449.654 160.985C450.404 161.535 451.834 174.295 451.594 176.405C451.424 177.885 448.034 188.615 445.674 185.985L445.684 185.995Z" fill="#2D2A8D"/>
<path d="M510.673 184.005C512.883 186.295 503.113 195.785 501.053 196.875C499.323 197.795 491.263 200.185 490.683 197.485C490.033 194.485 496.673 195.155 499.053 193.875C501.693 192.465 508.553 181.805 510.673 184.005Z" fill="#2D2A8D"/>
<path d="M496.685 234.995C493.855 232.255 501.215 230.655 502.225 230.045C504.665 228.555 507.705 221.495 510.665 225.505C507.815 227.365 507.795 231.105 505.215 233.035C503.755 234.125 497.645 235.925 496.695 235.005L496.685 234.995Z" fill="#2D2A8D"/>
<path d="M439.594 164.935C439.284 165.135 436.784 165.115 436.684 165.005C435.064 163.295 440.424 149.995 445.164 151.005C449.004 151.825 442.384 157.675 441.824 158.645C440.984 160.075 439.884 164.755 439.594 164.935Z" fill="#2D2A8D"/>
<path d="M439.675 211.005C443.115 214.545 430.385 225.415 427.685 222.995C426.065 221.545 435.395 215.775 436.235 213.965C436.805 212.715 435.525 211.175 435.675 211.005C435.815 210.855 439.535 210.855 439.675 211.005Z" fill="#2D2A8D"/>
<path d="M506.333 120.165C511.803 118.475 520.543 121.735 512.343 124.165C504.343 126.545 502.373 121.385 506.333 120.165Z" fill="#2D2A8D"/>
<path d="M527.684 109.995C529.764 107.855 527.034 97.145 531.174 98.005C533.524 98.495 534.674 112.965 527.684 109.995Z" fill="#2D2A8D"/>
<path d="M501.684 241.995C499.184 239.625 506.254 236.855 507.244 236.035C508.374 235.105 509.044 230.625 511.194 233.985C513.654 237.845 503.254 243.485 501.684 241.995Z" fill="#2D2A8D"/>
<path d="M513.675 94.995C513.425 95.225 508.135 95.615 506.895 95.735C498.525 96.545 505.425 90.045 512.015 92.165C513.255 92.565 514.315 94.425 513.675 94.995Z" fill="#2D2A8D"/>
<path d="M321.673 245.005C322.623 246.045 319.783 249.795 319.343 251.235C318.953 252.505 319.803 253.935 319.683 253.995C316.043 255.915 315.913 250.895 317.193 248.015C317.613 247.065 320.873 244.125 321.673 245.005Z" fill="#2D2A8D"/>
<path d="M690.383 238.315C692.443 240.085 694.613 245.235 696.693 247.505C703.673 255.105 711.453 247.775 712.683 249.015C713.003 249.335 712.883 252.855 711.733 253.555C707.503 256.125 698.573 254.635 694.763 251.445C692.203 249.295 688.103 240.545 687.553 240.165C686.753 239.605 682.553 240.345 679.953 239.255C673.183 236.415 671.533 228.685 668.903 223.305C668.173 221.815 665.433 219.875 665.693 218.525C666.193 215.925 669.793 218.355 670.733 219.475C674.063 223.455 673.383 230.105 678.733 233.475C681.923 235.485 687.453 235.795 690.393 238.325L690.383 238.315Z" fill="#2D2A8D"/>
<path d="M732.674 234.005C732.144 234.615 730.174 233.575 729.804 232.345C729.144 230.175 730.564 228.015 730.454 225.765C730.214 221.025 726.604 218.445 725.894 215.305C724.344 208.495 726.884 201.975 722.894 194.305C718.714 186.265 706.284 185.815 705.694 185.005C705.104 184.195 706.244 182.405 707.344 182.115C708.324 181.855 718.554 184.525 719.974 185.235C724.414 187.445 727.394 194.135 728.454 198.755C729.564 203.595 728.944 209.935 729.904 214.305C730.454 216.835 733.134 218.425 733.644 221.555C733.924 223.275 733.304 233.295 732.694 234.005H732.674Z" fill="#2D2A8D"/>
<path d="M734.684 249.005C734.564 249.305 729.894 253.255 729.694 253.005C726.804 249.405 737.544 242.165 734.684 249.005C736.714 244.025 737.494 240.975 739.174 235.995C740.734 231.395 742.484 230.195 742.194 235.995C741.884 242.155 740.554 252.315 734.194 254.985L734.684 248.985V249.005Z" fill="#2D2A8D"/>
<path d="M642.674 228.005L638.694 224.005C639.214 228.365 635.444 232.875 634.634 226.535C634.484 225.325 635.104 222.665 634.594 222.095C633.254 220.575 628.884 222.225 628.694 222.005C627.064 220.205 631.044 217.195 633.004 217.215C638.174 217.265 642.814 222.905 642.674 228.005Z" fill="#2D2A8D"/>
<path d="M649.674 218.995C648.784 219.825 641.374 214.645 638.944 214.225C635.864 213.695 633.264 214.925 632.134 214.785C630.724 214.595 630.204 211.485 630.684 211.005C631.084 210.615 640.034 211.015 641.714 211.465C643.394 211.915 651.384 217.395 649.674 218.995Z" fill="#2D2A8D"/>
<path d="M666.673 228.995C667.423 229.885 664.653 235.075 671.163 240.015C671.853 240.535 678.413 242.945 674.153 243.995C670.813 244.825 665.653 240.625 664.433 237.745C663.763 236.165 663.113 229.685 663.683 228.995C663.783 228.875 666.583 228.885 666.673 228.995Z" fill="#2D2A8D"/>
<path d="M678.675 247.005C679.265 247.605 678.575 249.625 677.675 250.495C671.925 256.115 661.025 246.785 663.685 244.005C664.515 243.145 669.945 248.515 672.335 248.745C674.135 248.925 678.025 246.335 678.675 247.005Z" fill="#2D2A8D"/>
<path d="M674.674 893.995C675.624 895.145 673.954 907.675 674.044 910.325C674.164 913.905 678.034 928.355 676.664 930.005C676.554 930.135 673.884 928.965 673.664 928.285C674.214 922.975 670.224 917.165 670.014 912.355C669.934 910.495 671.124 894.735 671.674 893.995C671.764 893.875 674.574 893.885 674.664 893.995H674.674Z" fill="#2D2A8D"/>
</g>
<path d="M302.643 537.45V538.05C300.643 539.45 299.643 541.15 299.643 543.15V572.25C299.643 573.95 300.343 575.2 301.743 576V576.6C297.843 581.3 292.493 585 285.693 587.7C278.893 590.4 271.243 591.75 262.743 591.75C245.343 591.75 231.143 586.6 220.143 576.3C209.043 565.9 203.493 552.4 203.493 535.8C203.493 519.4 208.793 505.9 219.393 495.3C230.093 484.6 243.393 479.25 259.293 479.25C264.493 479.15 269.893 479.95 275.493 481.65C281.193 483.35 285.743 485.05 289.143 486.75C292.643 488.45 294.543 489.3 294.843 489.3C295.743 489.3 296.493 488.85 297.093 487.95H297.693V502.05H297.093C292.693 497.35 287.143 493.6 280.443 490.8C273.843 488 266.793 486.6 259.293 486.6C245.393 486.6 233.893 491.15 224.793 500.25C215.793 509.35 211.293 521.1 211.293 535.5C211.293 550.1 215.943 561.9 225.243 570.9C234.743 579.9 247.243 584.4 262.743 584.4C275.143 584.4 284.893 581.45 291.993 575.55V543.15C291.993 541.15 290.993 539.45 288.993 538.05V537.45H302.643ZM453.219 578.4C454.019 578.4 454.419 578.85 454.419 579.75C454.419 581.65 452.769 583.9 449.469 586.5C446.369 589 442.419 590.25 437.619 590.25C432.919 590.25 428.369 588.8 423.969 585.9C419.569 583 415.569 579.5 411.969 575.4C408.469 571.3 404.919 567.2 401.319 563.1C397.719 558.9 393.569 555.35 388.869 552.45C384.269 549.55 379.469 548.1 374.469 548.1H343.719V582.3C343.719 584.3 344.719 586 346.719 587.4V588H332.919V587.4C334.919 586 335.919 584.3 335.919 582.3V488.7C335.919 486.7 334.919 485 332.919 483.6V483H380.769C392.269 483 401.869 486.1 409.569 492.3C417.269 498.5 421.119 506.3 421.119 515.7C421.119 523 418.469 529.55 413.169 535.35C407.869 541.15 401.119 545 392.919 546.9C398.819 550 405.169 555.75 411.969 564.15C415.369 568.25 418.219 571.55 420.519 574.05C422.819 576.45 425.719 578.75 429.219 580.95C432.719 583.05 436.069 584.1 439.269 584.1C442.269 584.1 445.319 583.15 448.419 581.25C451.519 579.35 453.119 578.4 453.219 578.4ZM343.719 490.35V540.75H380.769C390.169 540.75 397.969 538.4 404.169 533.7C410.369 529 413.469 523 413.469 515.7C413.469 508.4 410.319 502.35 404.019 497.55C397.719 492.75 389.819 490.35 380.319 490.35H343.719ZM500.921 488.4L535.571 582.6C536.271 584.7 537.771 586.3 540.071 587.4V588H526.421V587.4C528.321 586.5 528.821 584.9 527.921 582.6L515.021 547.5H465.971L459.971 563.85C459.071 566.15 459.571 567.75 461.471 568.65V569.25H447.821V568.65C450.121 567.55 451.621 565.95 452.321 563.85L480.071 488.4C480.971 486.1 480.471 484.5 478.571 483.6V483H502.421V483.6C500.621 484.6 500.121 486.2 500.921 488.4ZM486.971 490.35L468.671 540.15H512.321L494.021 490.35H486.971ZM613.83 591.75C598.03 591.75 584.83 586.45 574.23 575.85C563.63 565.25 558.33 551.85 558.33 535.65C558.33 519.75 563.53 506.35 573.93 495.45C584.33 484.65 597.48 479.25 613.38 479.25C618.58 479.15 624.03 479.95 629.73 481.65C635.43 483.35 640.03 485.05 643.53 486.75C647.13 488.45 649.03 489.3 649.23 489.3C650.13 489.3 650.88 488.85 651.48 487.95H652.08V502.05H651.48C640.88 491.75 628.18 486.6 613.38 486.6C599.48 486.6 588.08 491.2 579.18 500.4C570.48 509.5 566.13 521.3 566.13 535.8C566.13 550 570.53 561.65 579.33 570.75C588.13 579.85 599.78 584.4 614.28 584.4C620.08 584.4 625.78 583.55 631.38 581.85C637.08 580.05 641.73 577.95 645.33 575.55C653.83 569.55 658.28 566.55 658.68 566.55C659.18 566.55 659.43 566.8 659.43 567.3C659.43 569.5 656.83 572.9 651.63 577.5C647.43 581.4 642.03 584.8 635.43 587.7C628.93 590.5 621.73 591.85 613.83 591.75ZM765.513 577.8H766.263L764.763 588H685.413V587.4C687.413 586 688.413 584.3 688.413 582.3V488.7C688.413 486.7 687.413 485 685.413 483.6V483H760.563L762.063 493.2H761.163C760.263 491.3 758.563 490.35 756.063 490.35H696.213V522.6H748.713C750.713 522.6 752.413 521.7 753.813 519.9H754.413V532.65H753.813C752.413 530.85 750.713 529.95 748.713 529.95H696.213V580.65H760.413C762.913 580.65 764.613 579.7 765.513 577.8ZM834.04 591.75C821.34 591.75 810.99 589.05 802.99 583.65C794.99 578.05 790.99 571.05 790.99 562.65C790.99 556.35 793.09 551.1 797.29 546.9C801.49 542.7 806.54 540.6 812.44 540.6C816.04 540.6 819.24 541.4 822.04 543C824.94 544.5 826.39 545.95 826.39 547.35C826.39 547.85 826.14 548.1 825.64 548.1C825.44 548.1 824.14 547.8 821.74 547.2C819.64 546.5 817.39 546.15 814.99 546.15C809.99 546.15 805.89 547.65 802.69 550.65C799.59 553.55 798.04 557.3 798.04 561.9C798.04 568.6 801.44 574.05 808.24 578.25C815.04 582.35 823.64 584.4 834.04 584.4C845.14 584.4 853.99 582 860.59 577.2C867.29 572.4 870.64 566.55 870.64 559.65C870.64 555.35 869.24 551.65 866.44 548.55C863.64 545.45 859.99 543 855.49 541.2C850.99 539.3 846.04 537.6 840.64 536.1C835.24 534.6 829.79 533.05 824.29 531.45C818.89 529.85 813.94 528.05 809.44 526.05C804.94 523.95 801.29 521.15 798.49 517.65C795.69 514.05 794.29 509.85 794.29 505.05C794.29 497.15 797.74 490.85 804.64 486.15C811.64 481.55 820.59 479.25 831.49 479.25C841.29 479.25 849.49 480.95 856.09 484.35C863.29 487.65 867.14 489.3 867.64 489.3C868.54 489.3 869.29 488.85 869.89 487.95H870.49V502.05H869.89C866.49 497.75 861.24 494.1 854.14 491.1C847.04 488.1 839.49 486.6 831.49 486.6C823.09 486.6 816.09 488.2 810.49 491.4C804.89 494.6 802.09 499 802.09 504.6C802.09 509.7 804.69 513.9 809.89 517.2C815.39 520.5 821.74 523.1 828.94 525C836.44 527 843.94 529.1 851.44 531.3C858.74 533.5 865.09 537 870.49 541.8C875.79 546.5 878.44 552.35 878.44 559.35C878.44 568.75 874.39 576.5 866.29 582.6C858.29 588.7 847.54 591.75 834.04 591.75Z" fill="#FFF6EF"/>
<path d="M404.204 343.158C403.776 343.539 403.515 344.215 403.422 345.187C403.344 346.105 403.789 347.416 404.755 349.122L423.239 381.75L378.854 365.726L393.02 390.732C393.967 392.402 394.933 393.418 395.919 393.779C396.885 394.105 397.676 394.163 398.292 393.951L390.931 398.122C391.36 397.741 391.63 397.082 391.743 396.145C391.87 395.153 391.451 393.805 390.485 392.099L375.698 365.997C375.027 364.814 374.016 363.961 372.663 363.44C371.311 362.919 369.956 362.882 368.6 363.329L375.074 359.661L415.735 374.347L402.249 350.541C400.731 347.861 398.929 346.791 396.843 347.329L404.204 343.158ZM432.947 375.156C432.991 375.268 433.185 375.106 433.531 374.671C433.861 374.198 434.035 373.487 434.05 372.536C434.088 371.534 433.795 370.231 433.169 368.629L422.459 341.185C421.863 339.657 421.226 338.575 420.548 337.937C419.892 337.249 419.283 336.842 418.719 336.719C418.156 336.595 417.896 336.589 417.94 336.701L438.173 328.805L440.355 334.394C438.811 332.42 436.363 332.087 433.009 333.396L425.24 336.428L431.435 352.302L441.049 348.55C441.794 348.259 442.384 347.9 442.818 347.473C443.238 347.009 443.528 346.595 443.687 346.233C443.846 345.87 443.929 345.644 443.938 345.555L446.053 350.977C445.987 350.917 445.773 350.807 445.41 350.648C445.047 350.489 444.562 350.4 443.953 350.38C443.381 350.345 442.722 350.473 441.977 350.764L432.307 354.538L438.502 370.412L447.222 367.009C448.899 366.355 450.203 365.459 451.133 364.323C452.087 363.136 452.613 361.899 452.713 360.615L454.019 366.933L432.947 375.156ZM499.711 320.677C499.887 319.169 499.893 318.024 499.729 317.24C499.394 315.635 498.509 314.921 497.075 315.098L506.178 313.196C505.616 313.436 504.946 314.046 504.17 315.026C503.433 315.997 502.91 317.7 502.602 320.134L497.412 358.67L479.279 328.5L474.389 363.479L455.285 329.835C453.58 326.759 451.692 325.151 449.619 325.012L459.369 322.975C458.313 323.4 457.9 324.16 458.129 325.257C458.244 325.805 458.683 326.735 459.448 328.046L460.523 329.967L473.04 352.912L478.165 317.884L496.248 347.818L499.711 320.677ZM565.104 312.18C564.702 312.251 564.053 312.677 563.156 313.457C562.258 314.238 561.166 315.694 559.879 317.827L549.111 335.415L548.845 347.532C548.801 349.571 549.049 350.997 549.592 351.809C550.134 352.621 550.644 353.073 551.122 353.163L542.005 352.963C542.486 352.894 543.015 352.485 543.592 351.738C544.169 350.95 544.481 349.517 544.526 347.437L544.793 335.26L534.926 317.22C533.772 315.114 532.764 313.671 531.9 312.892C531.038 312.073 530.349 311.578 529.832 311.407L539.91 311.627C538.906 311.805 538.392 312.434 538.368 313.514C538.36 313.874 538.471 314.317 538.699 314.842C538.929 315.327 539.293 316.035 539.793 316.966L548.156 332.453L557.184 317.587C557.888 316.483 558.253 315.35 558.278 314.191C558.295 313.431 558.066 312.906 557.593 312.615C557.16 312.286 556.724 312.076 556.286 311.986L565.104 312.18ZM570.189 334.262C570.942 330.089 572.499 326.529 574.86 323.581C577.26 320.641 580.237 318.556 583.792 317.328C587.386 316.106 591.308 315.879 595.56 316.646C599.103 317.285 602.267 318.669 605.054 320.798C607.886 322.894 609.947 325.664 611.237 329.107C612.565 332.558 612.835 336.468 612.047 340.837C611.294 345.01 609.718 348.567 607.318 351.507C604.957 354.455 601.979 356.54 598.385 357.761C594.831 358.989 590.928 359.22 586.677 358.453C583.134 357.814 579.946 356.446 577.113 354.35C574.327 352.222 572.269 349.432 570.941 345.981C569.652 342.538 569.401 338.631 570.189 334.262ZM607.163 340.871C607.81 337.289 607.644 333.926 606.667 330.782C605.736 327.607 604.117 324.978 601.81 322.895C599.549 320.78 596.805 319.431 593.577 318.849C590.625 318.317 587.853 318.589 585.26 319.666C582.707 320.749 580.533 322.552 578.736 325.073C576.947 327.555 575.726 330.607 575.073 334.228C574.427 337.81 574.569 341.189 575.5 344.365C576.478 347.509 578.096 350.138 580.357 352.253C582.664 354.335 585.431 355.668 588.659 356.25C591.611 356.783 594.364 356.507 596.917 355.423C599.51 354.346 601.7 352.567 603.489 350.085C605.285 347.564 606.51 344.492 607.163 340.871ZM634.174 348.258C635.909 348.87 637.557 349.006 639.119 348.667C640.695 348.289 642.029 347.572 643.123 346.516C644.268 345.436 645.093 344.179 645.599 342.745C646.118 341.274 646.283 339.784 646.095 338.275C645.957 336.742 645.393 335.334 644.403 334.052C643.414 332.77 641.995 331.802 640.146 331.15L635.337 329.453L624.237 360.912C623.704 362.421 623.487 363.638 623.585 364.563C623.696 365.451 623.931 366.106 624.29 366.53C624.663 366.916 624.863 367.071 624.889 366.996L615.893 363.822C615.866 363.897 616.126 363.883 616.672 363.778C617.218 363.674 617.793 363.304 618.399 362.67C619.042 362.049 619.63 360.983 620.163 359.475L630.145 331.184C630.691 329.638 630.915 328.402 630.817 327.476C630.771 326.527 630.568 325.84 630.208 325.416C629.862 324.955 629.669 324.781 629.629 324.894L640.832 328.847C643.774 329.885 646.015 331.227 647.555 332.874C649.146 334.495 650.084 336.226 650.368 338.065C650.703 339.88 650.551 341.693 649.912 343.504C649.38 345.013 648.496 346.376 647.26 347.594C646.038 348.775 644.554 349.672 642.81 350.287C641.118 350.877 639.311 351.067 637.392 350.857L636.427 350.707L641.913 366.895C642.714 368.832 643.409 370.349 643.997 371.448C644.585 372.546 645.021 373.294 645.305 373.691C645.627 374.101 645.819 374.339 645.881 374.403L639.261 372.067L630.779 347.06L634.174 348.258ZM673.515 388.698L666.464 361.381L659.335 375.122C658.414 376.897 658.017 378.269 658.146 379.237C658.275 380.205 658.533 380.835 658.923 381.127L650.721 376.871C651.184 377.021 651.857 376.897 652.739 376.499C653.64 376.065 654.561 374.943 655.5 373.132L669.4 346.344C670.339 344.533 670.736 343.161 670.589 342.229C670.442 341.296 670.156 340.63 669.733 340.23L677.935 344.486C677.472 344.336 676.808 344.487 675.942 344.939C675.095 345.355 674.192 346.487 673.234 348.333L666.547 361.222L685.691 355.202C688.765 354.228 690.495 353.369 690.882 352.623C691.213 351.984 691.158 351.482 690.717 351.118L699.078 355.456C698.473 355.232 697.365 355.153 695.754 355.219C694.197 355.267 691.962 355.752 689.05 356.675L670.986 362.308L676.86 383.945C677.517 386.674 678.123 388.633 678.678 389.822C679.286 390.994 679.749 391.753 680.066 392.097L673.515 388.698Z" fill="white"/>
<path d="M407.282 726.856C407.229 726.963 407.479 726.999 408.034 726.964C408.606 726.894 409.251 726.546 409.968 725.922C410.738 725.279 411.51 724.19 412.282 722.653L425.51 696.33C426.246 694.864 426.624 693.667 426.644 692.736C426.718 691.788 426.612 691.064 426.327 690.562C426.041 690.061 425.872 689.864 425.818 689.971L445.225 699.724L442.531 705.085C442.965 702.617 441.574 700.575 438.358 698.958L430.906 695.214L423.254 710.439L432.475 715.073C433.19 715.432 433.852 715.63 434.46 715.667C435.086 715.669 435.587 715.607 435.963 715.483C436.339 715.358 436.563 715.269 436.634 715.216L434.021 720.416C434.021 720.326 433.959 720.094 433.835 719.718C433.71 719.342 433.452 718.921 433.059 718.455C432.702 718.007 432.166 717.604 431.451 717.244L422.177 712.584L414.525 727.809L422.889 732.012C424.497 732.82 426.035 733.19 427.502 733.122C429.023 733.035 430.293 732.599 431.315 731.814L427.494 737.012L407.282 726.856ZM451.311 747.34C449.343 746.667 447.541 745.756 445.905 744.605C444.282 743.417 442.919 742.085 441.817 740.609L444.164 733.739C444.282 736.611 445.118 739.053 446.671 741.063C448.276 743.048 450.176 744.416 452.371 745.166C454.566 745.915 456.648 745.823 458.616 744.889C460.596 743.917 461.955 742.353 462.692 740.195C463.183 738.757 463.301 737.423 463.044 736.194C462.825 734.978 462.221 733.715 461.232 732.405C460.255 731.057 458.781 729.433 456.809 727.533C454.033 724.894 452.166 722.503 451.208 720.358C450.3 718.188 450.248 715.93 451.049 713.583C451.735 711.577 452.816 709.959 454.292 708.73C455.819 707.477 457.539 706.712 459.451 706.435C461.414 706.133 463.38 706.318 465.348 706.991C467.051 707.573 468.633 708.388 470.092 709.436C471.565 710.446 472.853 711.626 473.956 712.975L471.861 719.107C471.664 716.714 470.832 714.634 469.365 712.865C467.949 711.071 466.294 709.85 464.402 709.204C462.244 708.467 460.264 708.572 458.46 709.52C456.657 710.468 455.426 711.907 454.766 713.838C454.288 715.238 454.272 716.586 454.717 717.879C455.176 719.135 455.857 720.297 456.76 721.367C457.7 722.449 459.044 723.837 460.789 725.533C462.56 727.279 463.978 728.82 465.043 730.156C466.109 731.492 466.856 733.016 467.286 734.726C467.716 736.437 467.589 738.296 466.903 740.302C466.128 742.573 464.906 744.354 463.24 745.645C461.611 746.948 459.733 747.744 457.606 748.032C455.529 748.294 453.431 748.064 451.311 747.34ZM487.75 717.046C486.023 716.709 484.525 716.763 483.256 717.208C481.987 717.653 480.998 718.336 480.289 719.258L482.262 713.53L510.176 718.977L509.851 725.027C509.54 723.907 508.88 722.902 507.872 722.012C506.863 721.122 505.496 720.509 503.768 720.172L497.879 719.023L491.501 751.706C491.194 753.276 491.157 754.512 491.389 755.413C491.62 756.314 491.945 756.948 492.362 757.315C492.78 757.682 493 757.806 493.023 757.688L483.66 755.861C483.637 755.979 483.888 755.946 484.412 755.763C484.937 755.581 485.453 755.131 485.959 754.415C486.513 753.667 486.947 752.488 487.261 750.879L493.639 718.195L487.75 717.046ZM514.034 761.562C513.237 761.493 512.542 761.172 511.949 760.6C511.399 759.99 511.165 759.207 511.248 758.251C511.33 757.294 511.692 756.583 512.335 756.116C512.977 755.649 513.717 755.452 514.554 755.524C515.391 755.596 516.086 755.917 516.639 756.486C517.192 757.056 517.427 757.819 517.345 758.775C517.263 759.732 516.879 760.462 516.193 760.965C515.551 761.431 514.831 761.63 514.034 761.562ZM554.582 756.118C557.597 751.677 559.75 748.469 561.041 746.491C562.367 744.47 563.427 742.596 564.22 740.869C565.081 739.015 565.651 737.27 565.93 735.634C566.246 733.954 566.32 732.279 566.154 730.607C565.976 728.816 565.465 727.319 564.622 726.117C563.775 724.874 562.721 723.974 561.459 723.416C560.238 722.855 558.95 722.641 557.597 722.776C555.089 723.025 553.15 724.142 551.78 726.128C550.449 728.109 549.923 730.493 550.2 733.279C549.385 732.355 548.896 731.077 548.733 729.445C548.583 727.933 548.815 726.423 549.428 724.914C550.082 723.402 551.141 722.131 552.607 721.101C554.068 720.031 555.893 719.387 558.082 719.17C560.112 718.968 562.011 719.261 563.777 720.05C565.584 720.836 567.072 722.054 568.241 723.707C569.45 725.355 570.17 727.334 570.399 729.642C570.771 733.384 569.665 737.413 567.079 741.73C564.673 745.828 561.56 750.499 557.74 755.743L556.151 757.951L568.271 756.746C570.341 756.54 571.864 756.087 572.839 755.387C573.811 754.647 574.446 753.961 574.745 753.328L574.24 759.77L550.477 762.133L554.582 756.118ZM581.96 739.195C580.922 734.837 580.535 730.879 580.798 727.321C581.051 723.724 581.88 720.813 583.282 718.588C584.724 716.353 586.612 714.958 588.947 714.402C591.242 713.855 593.49 714.142 595.69 715.263C597.889 716.384 599.866 718.298 601.621 721.006C603.376 723.713 604.74 727.109 605.713 731.195C606.751 735.553 607.143 739.53 606.889 743.127C606.626 746.685 605.774 749.581 604.332 751.816C602.929 754.041 601.061 755.432 598.726 755.988C596.43 756.534 594.183 756.247 591.983 755.126C589.784 754.005 587.806 752.091 586.052 749.384C584.297 746.677 582.933 743.281 581.96 739.195ZM602.191 735.056C601.172 730.775 599.927 727.186 598.455 724.288C596.984 721.39 595.421 719.316 593.766 718.065C592.102 716.776 590.468 716.301 588.863 716.642C587.424 716.985 586.306 717.991 585.511 719.661C584.717 721.33 584.314 723.523 584.303 726.24C584.282 728.917 584.675 731.949 585.481 735.334C586.501 739.614 587.746 743.204 589.217 746.102C590.689 749 592.256 751.093 593.92 752.383C595.584 753.673 597.214 754.127 598.809 753.748C600.249 753.405 601.366 752.398 602.161 750.729C602.956 749.059 603.364 746.886 603.384 744.208C603.395 741.492 602.998 738.441 602.191 735.056ZM623.063 742.933C624.796 737.853 626.024 734.189 626.746 731.941C627.49 729.641 628.017 727.553 628.325 725.678C628.664 723.662 628.753 721.828 628.59 720.177C628.45 718.474 628.078 716.838 627.476 715.27C626.83 713.59 625.942 712.281 624.811 711.345C623.665 710.371 622.411 709.781 621.047 709.577C619.72 709.358 618.422 709.493 617.152 709.98C614.8 710.884 613.225 712.475 612.429 714.752C611.67 717.014 611.793 719.453 612.797 722.066C611.766 721.391 610.957 720.288 610.368 718.757C609.823 717.338 609.647 715.82 609.84 714.204C610.071 712.572 610.756 711.066 611.897 709.685C613.023 708.267 614.613 707.164 616.667 706.375C618.571 705.643 620.48 705.424 622.392 705.718C624.342 705.997 626.099 706.779 627.664 708.063C629.266 709.333 630.483 711.051 631.315 713.217C632.663 716.727 632.662 720.905 631.31 725.752C630.073 730.341 628.307 735.669 626.01 741.736L625.061 744.286L636.431 739.918C638.372 739.172 639.721 738.333 640.477 737.4C641.218 736.429 641.649 735.599 641.77 734.91L642.987 741.256L620.695 749.82L623.063 742.933ZM644.621 709.7C647.57 708.263 650.178 707.34 652.444 706.932C655.46 706.406 658.139 706.708 660.481 707.837C662.823 708.967 664.61 710.721 665.843 713.101C667.259 715.836 667.747 718.692 667.306 721.668C666.847 724.608 665.599 727.372 663.56 729.96C661.522 732.547 658.922 734.659 655.761 736.297L655.175 736.6L653.112 734.966L653.645 734.69C658.227 732.317 661.38 729.49 663.104 726.209C664.829 722.928 664.79 719.548 662.987 716.067C661.533 713.261 659.362 711.548 656.473 710.927C653.601 710.252 650.016 711.028 645.718 713.254L643.267 714.523L639.246 697.889L648.463 693.115C651.376 691.606 652.978 690.394 653.269 689.477L654.438 694.345L642.344 700.609L644.621 709.7Z" fill="white"/>
<defs>
<clipPath id="clip0_19_919">
<rect width="593.17" height="925.57" fill="white" transform="translate(243.414 77.215)"/>
</clipPath>
</defs>
</svg>
