<svg width="820" height="568" viewBox="0 0 820 568" fill="none" xmlns="http://www.w3.org/2000/svg">
<g clip-path="url(#clip0_19_1057)">
<path d="M172.643 281.45V282.05C170.643 283.45 169.643 285.15 169.643 287.15V316.25C169.643 317.95 170.343 319.2 171.743 320V320.6C167.843 325.3 162.493 329 155.693 331.7C148.893 334.4 141.243 335.75 132.743 335.75C115.343 335.75 101.143 330.6 90.1426 320.3C79.0426 309.9 73.4926 296.4 73.4926 279.8C73.4926 263.4 78.7926 249.9 89.3926 239.3C100.093 228.6 113.393 223.25 129.293 223.25C134.493 223.15 139.893 223.95 145.493 225.65C151.193 227.35 155.743 229.05 159.143 230.75C162.643 232.45 164.543 233.3 164.843 233.3C165.743 233.3 166.493 232.85 167.093 231.95H167.693V246.05H167.093C162.693 241.35 157.143 237.6 150.443 234.8C143.843 232 136.793 230.6 129.293 230.6C115.393 230.6 103.893 235.15 94.7926 244.25C85.7926 253.35 81.2926 265.1 81.2926 279.5C81.2926 294.1 85.9426 305.9 95.2426 314.9C104.743 323.9 117.243 328.4 132.743 328.4C145.143 328.4 154.893 325.45 161.993 319.55V287.15C161.993 285.15 160.993 283.45 158.993 282.05V281.45H172.643ZM323.219 322.4C324.019 322.4 324.419 322.85 324.419 323.75C324.419 325.65 322.769 327.9 319.469 330.5C316.369 333 312.419 334.25 307.619 334.25C302.919 334.25 298.369 332.8 293.969 329.9C289.569 327 285.569 323.5 281.969 319.4C278.469 315.3 274.919 311.2 271.319 307.1C267.719 302.9 263.569 299.35 258.869 296.45C254.269 293.55 249.469 292.1 244.469 292.1H213.719V326.3C213.719 328.3 214.719 330 216.719 331.4V332H202.919V331.4C204.919 330 205.919 328.3 205.919 326.3V232.7C205.919 230.7 204.919 229 202.919 227.6V227H250.769C262.269 227 271.869 230.1 279.569 236.3C287.269 242.5 291.119 250.3 291.119 259.7C291.119 267 288.469 273.55 283.169 279.35C277.869 285.15 271.119 289 262.919 290.9C268.819 294 275.169 299.75 281.969 308.15C285.369 312.25 288.219 315.55 290.519 318.05C292.819 320.45 295.719 322.75 299.219 324.95C302.719 327.05 306.069 328.1 309.269 328.1C312.269 328.1 315.319 327.15 318.419 325.25C321.519 323.35 323.119 322.4 323.219 322.4ZM213.719 234.35V284.75H250.769C260.169 284.75 267.969 282.4 274.169 277.7C280.369 273 283.469 267 283.469 259.7C283.469 252.4 280.319 246.35 274.019 241.55C267.719 236.75 259.819 234.35 250.319 234.35H213.719ZM370.921 232.4L405.571 326.6C406.271 328.7 407.771 330.3 410.071 331.4V332H396.421V331.4C398.321 330.5 398.821 328.9 397.921 326.6L385.021 291.5H335.971L329.971 307.85C329.071 310.15 329.571 311.75 331.471 312.65V313.25H317.821V312.65C320.121 311.55 321.621 309.95 322.321 307.85L350.071 232.4C350.971 230.1 350.471 228.5 348.571 227.6V227H372.421V227.6C370.621 228.6 370.121 230.2 370.921 232.4ZM356.971 234.35L338.671 284.15H382.321L364.021 234.35H356.971ZM483.83 335.75C468.03 335.75 454.83 330.45 444.23 319.85C433.63 309.25 428.33 295.85 428.33 279.65C428.33 263.75 433.53 250.35 443.93 239.45C454.33 228.65 467.48 223.25 483.38 223.25C488.58 223.15 494.03 223.95 499.73 225.65C505.43 227.35 510.03 229.05 513.53 230.75C517.13 232.45 519.03 233.3 519.23 233.3C520.13 233.3 520.88 232.85 521.48 231.95H522.08V246.05H521.48C510.88 235.75 498.18 230.6 483.38 230.6C469.48 230.6 458.08 235.2 449.18 244.4C440.48 253.5 436.13 265.3 436.13 279.8C436.13 294 440.53 305.65 449.33 314.75C458.13 323.85 469.78 328.4 484.28 328.4C490.08 328.4 495.78 327.55 501.38 325.85C507.08 324.05 511.73 321.95 515.33 319.55C523.83 313.55 528.28 310.55 528.68 310.55C529.18 310.55 529.43 310.8 529.43 311.3C529.43 313.5 526.83 316.9 521.63 321.5C517.43 325.4 512.03 328.8 505.43 331.7C498.93 334.5 491.73 335.85 483.83 335.75ZM635.513 321.8H636.263L634.763 332H555.413V331.4C557.413 330 558.413 328.3 558.413 326.3V232.7C558.413 230.7 557.413 229 555.413 227.6V227H630.563L632.063 237.2H631.163C630.263 235.3 628.563 234.35 626.063 234.35H566.213V266.6H618.713C620.713 266.6 622.413 265.7 623.813 263.9H624.413V276.65H623.813C622.413 274.85 620.713 273.95 618.713 273.95H566.213V324.65H630.413C632.913 324.65 634.613 323.7 635.513 321.8ZM704.04 335.75C691.34 335.75 680.99 333.05 672.99 327.65C664.99 322.05 660.99 315.05 660.99 306.65C660.99 300.35 663.09 295.1 667.29 290.9C671.49 286.7 676.54 284.6 682.44 284.6C686.04 284.6 689.24 285.4 692.04 287C694.94 288.5 696.39 289.95 696.39 291.35C696.39 291.85 696.14 292.1 695.64 292.1C695.44 292.1 694.14 291.8 691.74 291.2C689.64 290.5 687.39 290.15 684.99 290.15C679.99 290.15 675.89 291.65 672.69 294.65C669.59 297.55 668.04 301.3 668.04 305.9C668.04 312.6 671.44 318.05 678.24 322.25C685.04 326.35 693.64 328.4 704.04 328.4C715.14 328.4 723.99 326 730.59 321.2C737.29 316.4 740.64 310.55 740.64 303.65C740.64 299.35 739.24 295.65 736.44 292.55C733.64 289.45 729.99 287 725.49 285.2C720.99 283.3 716.04 281.6 710.64 280.1C705.24 278.6 699.79 277.05 694.29 275.45C688.89 273.85 683.94 272.05 679.44 270.05C674.94 267.95 671.29 265.15 668.49 261.65C665.69 258.05 664.29 253.85 664.29 249.05C664.29 241.15 667.74 234.85 674.64 230.15C681.64 225.55 690.59 223.25 701.49 223.25C711.29 223.25 719.49 224.95 726.09 228.35C733.29 231.65 737.14 233.3 737.64 233.3C738.54 233.3 739.29 232.85 739.89 231.95H740.49V246.05H739.89C736.49 241.75 731.24 238.1 724.14 235.1C717.04 232.1 709.49 230.6 701.49 230.6C693.09 230.6 686.09 232.2 680.49 235.4C674.89 238.6 672.09 243 672.09 248.6C672.09 253.7 674.69 257.9 679.89 261.2C685.39 264.5 691.74 267.1 698.94 269C706.44 271 713.94 273.1 721.44 275.3C728.74 277.5 735.09 281 740.49 285.8C745.79 290.5 748.44 296.35 748.44 303.35C748.44 312.75 744.39 320.5 736.29 326.6C728.29 332.7 717.54 335.75 704.04 335.75Z" fill="white"/>
<path d="M274.204 87.1585C273.776 87.5389 273.515 88.2152 273.422 89.1873C273.344 90.1049 273.789 91.4163 274.755 93.1217L293.239 125.75L248.854 109.726L263.02 134.732C263.967 136.402 264.933 137.418 265.919 137.779C266.885 138.105 267.676 138.163 268.292 137.951L260.931 142.122C261.36 141.741 261.63 141.082 261.743 140.145C261.87 139.153 261.451 137.805 260.485 136.099L245.698 109.997C245.027 108.814 244.016 107.961 242.663 107.44C241.311 106.919 239.956 106.882 238.6 107.329L245.074 103.661L285.735 118.347L272.249 94.5413C270.731 91.8614 268.929 90.7905 266.843 91.3286L274.204 87.1585ZM302.947 119.156C302.991 119.268 303.185 119.106 303.531 118.671C303.861 118.198 304.035 117.487 304.05 116.536C304.088 115.534 303.795 114.231 303.169 112.629L292.459 85.1848C291.863 83.657 291.226 82.5746 290.548 81.9375C289.892 81.2486 289.283 80.8423 288.719 80.7187C288.156 80.5951 287.896 80.5892 287.94 80.701L308.173 72.8046L310.355 78.394C308.811 76.42 306.363 76.0874 303.009 77.3962L295.24 80.4282L301.435 96.3022L311.049 92.5503C311.794 92.2595 312.384 91.9005 312.818 91.4733C313.238 91.0089 313.528 90.5954 313.687 90.2327C313.846 89.8701 313.929 89.6442 313.938 89.5552L316.053 94.9769C315.987 94.9169 315.773 94.8074 315.41 94.6484C315.047 94.4893 314.562 94.3998 313.953 94.3798C313.381 94.3453 312.722 94.4735 311.977 94.7643L302.307 98.538L308.502 114.412L317.222 111.009C318.899 110.355 320.203 109.459 321.133 108.323C322.087 107.136 322.613 105.899 322.713 104.615L324.019 110.933L302.947 119.156ZM369.711 64.6767C369.887 63.169 369.893 62.0236 369.729 61.2405C369.394 59.6351 368.509 58.921 367.075 59.098L376.178 57.1962C375.616 57.4364 374.946 58.0461 374.17 59.0256C373.433 59.9968 372.91 61.6997 372.602 64.1342L367.412 102.67L349.279 72.5002L344.389 107.479L325.285 73.835C323.58 70.7586 321.692 69.1509 319.619 69.0117L329.369 66.975C328.313 67.3998 327.9 68.1603 328.129 69.2567C328.244 69.8048 328.683 70.7346 329.448 72.046L330.523 73.9667L343.04 96.912L348.165 61.8837L366.248 91.8184L369.711 64.6767ZM435.104 56.1797C434.702 56.251 434.053 56.6768 433.156 57.4573C432.258 58.2379 431.166 59.6943 429.879 61.8266L419.111 79.4148L418.845 91.5319C418.801 93.5714 419.049 94.9972 419.592 95.8093C420.134 96.6214 420.644 97.0727 421.122 97.1632L412.005 96.9633C412.486 96.8938 413.015 96.4853 413.592 95.7378C414.169 94.9502 414.481 93.5167 414.526 91.4372L414.793 79.2601L404.926 61.2196C403.772 59.1138 402.764 57.6713 401.9 56.8922C401.038 56.0731 400.349 55.5779 399.832 55.4065L409.91 55.6274C408.906 55.8055 408.392 56.4344 408.368 57.5141C408.36 57.874 408.471 58.3165 408.699 58.8417C408.929 59.3268 409.293 60.035 409.793 60.9662L418.156 76.4532L427.184 61.5874C427.888 60.4826 428.253 59.3503 428.278 58.1906C428.295 57.4308 428.066 56.9057 427.593 56.6152C427.16 56.2857 426.724 56.0761 426.286 55.9864L435.104 56.1797ZM440.189 78.2618C440.942 74.0892 442.499 70.529 444.86 67.5813C447.26 64.6407 450.237 62.5562 453.792 61.3277C457.386 60.1064 461.308 59.8791 465.56 60.6461C469.103 61.2852 472.267 62.669 475.054 64.7975C477.886 66.8937 479.947 69.6636 481.237 73.1072C482.565 76.5579 482.835 80.4679 482.047 84.8374C481.294 89.0101 479.718 92.5667 477.318 95.5073C474.957 98.455 471.979 100.54 468.385 101.761C464.831 102.989 460.928 103.22 456.677 102.453C453.134 101.814 449.946 100.446 447.113 98.3501C444.327 96.2216 442.269 93.432 440.941 89.9814C439.652 86.5378 439.401 82.6313 440.189 78.2618ZM477.163 84.871C477.81 81.2888 477.644 77.9259 476.667 74.7825C475.736 71.6068 474.117 68.9776 471.81 66.8949C469.549 64.78 466.805 63.4314 463.577 62.8491C460.625 62.3165 457.853 62.5886 455.26 63.6655C452.707 64.7495 450.533 66.5521 448.736 69.0732C446.947 71.5551 445.726 74.6067 445.073 78.2283C444.427 81.8105 444.569 85.1894 445.5 88.3651C446.478 91.5086 448.096 94.1378 450.357 96.2527C452.664 98.3353 455.431 99.6678 458.659 100.25C461.611 100.783 464.364 100.507 466.917 99.4231C469.51 98.3462 471.7 96.5668 473.489 94.085C475.285 91.5639 476.51 88.4925 477.163 84.871ZM504.174 92.2575C505.909 92.8698 507.557 93.0061 509.119 92.6665C510.695 92.2892 512.029 91.5724 513.123 90.5162C514.268 89.4356 515.093 88.1786 515.599 86.7452C516.118 85.2741 516.283 83.7841 516.095 82.2754C515.957 80.7422 515.393 79.3344 514.403 78.052C513.414 76.7696 511.995 75.8023 510.146 75.1501L505.337 73.4531L494.237 104.912C493.704 106.421 493.487 107.638 493.585 108.563C493.696 109.451 493.931 110.106 494.29 110.53C494.663 110.916 494.863 111.071 494.889 110.996L485.893 107.822C485.866 107.897 486.126 107.883 486.672 107.778C487.218 107.674 487.793 107.304 488.399 106.67C489.042 106.049 489.63 104.983 490.163 103.475L500.145 75.1842C500.691 73.6376 500.915 72.4017 500.817 71.4765C500.771 70.5268 500.568 69.8401 500.208 69.4164C499.862 68.9549 499.669 68.7807 499.629 68.8939L510.832 72.847C513.774 73.8851 516.015 75.2273 517.555 76.8736C519.146 78.4954 520.084 80.226 520.368 82.0654C520.703 83.8803 520.551 85.6931 519.912 87.5037C519.38 89.0125 518.496 90.376 517.26 91.5942C516.038 92.7747 514.554 93.6723 512.81 94.2871C511.118 94.8774 509.311 95.0673 507.392 94.8566L506.427 94.7069L511.913 110.895C512.714 112.832 513.409 114.349 513.997 115.448C514.585 116.546 515.021 117.294 515.305 117.691C515.627 118.101 515.819 118.339 515.881 118.403L509.261 116.067L500.779 91.0596L504.174 92.2575ZM543.515 132.698L536.464 105.381L529.335 119.122C528.414 120.897 528.017 122.269 528.146 123.237C528.275 124.205 528.533 124.835 528.923 125.127L520.721 120.871C521.184 121.021 521.857 120.897 522.739 120.499C523.64 120.065 524.561 118.943 525.5 117.132L539.4 90.3436C540.339 88.5328 540.736 87.1612 540.589 86.2287C540.442 85.2962 540.156 84.6299 539.733 84.23L547.935 88.4856C547.472 88.3355 546.808 88.4866 545.942 88.9388C545.095 89.3555 544.192 90.4869 543.234 92.3332L536.547 105.222L555.691 99.202C558.765 98.2282 560.495 97.3686 560.882 96.623C561.213 95.9839 561.158 95.4821 560.717 95.1177L569.078 99.4562C568.473 99.2325 567.365 99.1532 565.754 99.2185C564.197 99.2668 561.962 99.7521 559.05 100.675L540.986 106.308L546.86 127.945C547.517 130.674 548.123 132.633 548.678 133.822C549.286 134.994 549.749 135.753 550.066 136.097L543.515 132.698Z" fill="#FFF6EF"/>
<path d="M277.282 470.856C277.229 470.963 277.479 470.999 278.034 470.964C278.606 470.894 279.251 470.546 279.968 469.922C280.738 469.279 281.51 468.19 282.282 466.653L295.51 440.33C296.246 438.864 296.624 437.667 296.644 436.736C296.718 435.788 296.612 435.064 296.327 434.562C296.041 434.061 295.872 433.864 295.818 433.971L315.225 443.724L312.531 449.085C312.965 446.617 311.574 444.575 308.358 442.958L300.906 439.214L293.254 454.439L302.475 459.073C303.19 459.432 303.852 459.63 304.46 459.667C305.086 459.669 305.587 459.607 305.963 459.483C306.339 459.358 306.563 459.269 306.634 459.216L304.021 464.416C304.021 464.326 303.959 464.094 303.835 463.718C303.71 463.342 303.452 462.921 303.059 462.455C302.702 462.007 302.166 461.604 301.451 461.244L292.177 456.584L284.525 471.809L292.889 476.012C294.497 476.82 296.035 477.19 297.502 477.122C299.023 477.035 300.293 476.599 301.315 475.814L297.494 481.012L277.282 470.856ZM321.311 491.34C319.343 490.667 317.541 489.756 315.905 488.605C314.282 487.417 312.919 486.085 311.817 484.609L314.164 477.739C314.282 480.611 315.118 483.053 316.671 485.063C318.276 487.048 320.176 488.416 322.371 489.166C324.566 489.915 326.648 489.823 328.616 488.889C330.596 487.917 331.955 486.353 332.692 484.195C333.183 482.757 333.301 481.423 333.044 480.194C332.825 478.978 332.221 477.715 331.232 476.405C330.255 475.057 328.781 473.433 326.809 471.533C324.033 468.894 322.166 466.503 321.208 464.358C320.3 462.188 320.248 459.93 321.049 457.583C321.735 455.577 322.816 453.959 324.292 452.73C325.819 451.477 327.539 450.712 329.451 450.435C331.414 450.133 333.38 450.318 335.348 450.991C337.051 451.573 338.633 452.388 340.092 453.436C341.565 454.446 342.853 455.626 343.956 456.975L341.861 463.107C341.664 460.714 340.832 458.634 339.365 456.865C337.949 455.071 336.294 453.85 334.402 453.204C332.244 452.467 330.264 452.572 328.46 453.52C326.657 454.468 325.426 455.907 324.766 457.838C324.288 459.238 324.272 460.586 324.717 461.879C325.176 463.135 325.857 464.297 326.76 465.367C327.7 466.449 329.044 467.837 330.789 469.533C332.56 471.279 333.978 472.82 335.043 474.156C336.109 475.492 336.856 477.016 337.286 478.726C337.716 480.437 337.589 482.296 336.903 484.302C336.128 486.573 334.906 488.354 333.24 489.645C331.611 490.948 329.733 491.744 327.606 492.032C325.529 492.294 323.431 492.064 321.311 491.34ZM357.75 461.046C356.023 460.709 354.525 460.763 353.256 461.208C351.987 461.653 350.998 462.336 350.289 463.258L352.262 457.53L380.176 462.977L379.851 469.027C379.54 467.907 378.88 466.902 377.872 466.012C376.863 465.122 375.496 464.509 373.768 464.172L367.879 463.023L361.501 495.706C361.194 497.276 361.157 498.512 361.389 499.413C361.62 500.314 361.945 500.948 362.362 501.315C362.78 501.682 363 501.806 363.023 501.688L353.66 499.861C353.637 499.979 353.888 499.946 354.412 499.763C354.937 499.581 355.453 499.131 355.959 498.415C356.513 497.667 356.947 496.488 357.261 494.879L363.639 462.195L357.75 461.046ZM384.034 505.562C383.237 505.493 382.542 505.172 381.949 504.6C381.399 503.99 381.165 503.207 381.248 502.251C381.33 501.294 381.692 500.583 382.335 500.116C382.977 499.649 383.717 499.452 384.554 499.524C385.391 499.596 386.086 499.917 386.639 500.486C387.192 501.056 387.427 501.819 387.345 502.775C387.263 503.732 386.879 504.462 386.193 504.965C385.551 505.431 384.831 505.63 384.034 505.562ZM424.582 500.118C427.597 495.677 429.75 492.469 431.041 490.491C432.367 488.47 433.427 486.596 434.22 484.869C435.081 483.015 435.651 481.27 435.93 479.634C436.246 477.954 436.32 476.279 436.154 474.607C435.976 472.816 435.465 471.319 434.622 470.117C433.775 468.874 432.721 467.974 431.459 467.416C430.238 466.855 428.95 466.641 427.597 466.776C425.089 467.025 423.15 468.142 421.78 470.128C420.449 472.109 419.923 474.493 420.2 477.279C419.385 476.355 418.896 475.077 418.733 473.445C418.583 471.933 418.815 470.423 419.428 468.914C420.082 467.402 421.141 466.131 422.607 465.101C424.068 464.031 425.893 463.387 428.082 463.17C430.112 462.968 432.011 463.261 433.777 464.05C435.584 464.836 437.072 466.054 438.241 467.707C439.45 469.355 440.17 471.334 440.399 473.642C440.771 477.384 439.665 481.413 437.079 485.73C434.673 489.828 431.56 494.499 427.74 499.743L426.151 501.951L438.271 500.746C440.341 500.54 441.864 500.087 442.839 499.387C443.811 498.647 444.446 497.961 444.745 497.328L444.24 503.77L420.477 506.133L424.582 500.118ZM451.96 483.195C450.922 478.837 450.535 474.879 450.798 471.321C451.051 467.724 451.88 464.813 453.282 462.588C454.724 460.353 456.612 458.958 458.947 458.402C461.242 457.855 463.49 458.142 465.69 459.263C467.889 460.384 469.866 462.298 471.621 465.006C473.376 467.713 474.74 471.109 475.713 475.195C476.751 479.553 477.143 483.53 476.889 487.127C476.626 490.685 475.774 493.581 474.332 495.816C472.929 498.041 471.061 499.432 468.726 499.988C466.43 500.534 464.183 500.247 461.983 499.126C459.784 498.005 457.806 496.091 456.052 493.384C454.297 490.677 452.933 487.281 451.96 483.195ZM472.191 479.056C471.172 474.775 469.927 471.186 468.455 468.288C466.984 465.39 465.421 463.316 463.766 462.065C462.102 460.776 460.468 460.301 458.863 460.642C457.424 460.985 456.306 461.991 455.511 463.661C454.717 465.33 454.314 467.523 454.303 470.24C454.282 472.917 454.675 475.949 455.481 479.334C456.501 483.614 457.746 487.204 459.217 490.102C460.689 493 462.256 495.093 463.92 496.383C465.584 497.673 467.214 498.127 468.809 497.748C470.249 497.405 471.366 496.398 472.161 494.729C472.956 493.059 473.364 490.886 473.384 488.208C473.395 485.492 472.998 482.441 472.191 479.056ZM493.063 486.933C494.796 481.853 496.024 478.189 496.746 475.941C497.49 473.641 498.017 471.553 498.325 469.678C498.664 467.662 498.753 465.828 498.59 464.177C498.45 462.474 498.078 460.838 497.476 459.27C496.83 457.59 495.942 456.281 494.811 455.345C493.665 454.371 492.411 453.781 491.047 453.577C489.72 453.358 488.422 453.493 487.152 453.98C484.8 454.884 483.225 456.475 482.429 458.752C481.67 461.014 481.793 463.453 482.797 466.066C481.766 465.391 480.957 464.288 480.368 462.757C479.823 461.338 479.647 459.82 479.84 458.204C480.071 456.572 480.756 455.066 481.897 453.685C483.023 452.267 484.613 451.164 486.667 450.375C488.571 449.643 490.48 449.424 492.392 449.718C494.342 449.997 496.099 450.779 497.664 452.063C499.266 453.333 500.483 455.051 501.315 457.217C502.663 460.727 502.662 464.905 501.31 469.752C500.073 474.341 498.307 479.669 496.01 485.736L495.061 488.286L506.431 483.918C508.372 483.172 509.721 482.333 510.477 481.4C511.218 480.429 511.649 479.599 511.77 478.91L512.987 485.256L490.695 493.82L493.063 486.933ZM514.621 453.7C517.57 452.263 520.178 451.34 522.444 450.932C525.46 450.406 528.139 450.708 530.481 451.837C532.823 452.967 534.61 454.721 535.843 457.101C537.259 459.836 537.747 462.692 537.306 465.668C536.847 468.608 535.599 471.372 533.56 473.96C531.522 476.547 528.922 478.659 525.761 480.297L525.175 480.6L523.112 478.966L523.645 478.69C528.227 476.317 531.38 473.49 533.104 470.209C534.829 466.928 534.79 463.548 532.987 460.067C531.533 457.261 529.362 455.548 526.473 454.927C523.601 454.252 520.016 455.028 515.718 457.254L513.267 458.523L509.246 441.889L518.463 437.115C521.376 435.606 522.978 434.394 523.269 433.477L524.438 438.345L512.344 444.609L514.621 453.7Z" fill="#FFF6EF"/>
</g>
<defs>
<clipPath id="clip0_19_1057">
<rect width="820" height="568" fill="white"/>
</clipPath>
</defs>
</svg>
